<?xml version="1.0" standalone="no"?>
<!DOCTYPE svg PUBLIC "-//W3C//DTD SVG 1.1//EN" "http://www.w3.org/Graphics/SVG/1.1/DTD/svg11.dtd" >
<svg xmlns="http://www.w3.org/2000/svg">
<metadata>Generated by IcoMoon</metadata>
<defs>
<font id="icomoon" horiz-adv-x="1024">
<font-face units-per-em="1024" ascent="960" descent="-64" />
<missing-glyph horiz-adv-x="1024" />
<glyph unicode="&#x20;" horiz-adv-x="512" d="" />
<glyph unicode="&#xe900;" glyph-name="blizzard" d="M786.737 478.189c-108.396 0-196.584-88.183-196.584-196.584 0-90.455 73.585-164.044 164.035-164.044 18.713 0 33.877 15.168 33.877 33.877s-15.163 33.877-33.877 33.877c-53.091 0-96.282 43.195-96.282 96.291 0 71.037 57.794 128.831 128.831 128.831 93.468 0 169.51-76.037 169.51-169.496 0-121.509-98.857-220.365-220.361-220.365h-702.009c-18.709 0-33.877-15.168-33.877-33.877s15.168-33.877 33.877-33.877h702.009c158.868 0 288.114 129.251 288.114 288.118 0 130.818-106.436 237.249-237.263 237.249zM33.877 243.365h315.68c106.3 0 192.781 86.48 192.781 192.781 0 88.766-72.22 160.986-160.995 160.986-74.754 0-135.57-60.815-135.57-135.57 0-63.534 51.691-115.226 115.226-115.226 18.709 0 33.877 15.168 33.877 33.877s-15.168 33.877-33.877 33.877c-26.175 0-47.472 21.297-47.472 47.472 0 37.395 30.421 67.816 67.816 67.816 51.411 0 93.242-41.822 93.242-93.233 0-68.941-56.086-125.027-125.027-125.027h-315.68c-18.709 0-33.877-15.168-33.877-33.877s15.168-33.877 33.877-33.877zM10.407 716.454c5.023-8.695 14.129-13.555 23.497-13.555 4.598 0 9.26 1.17 13.528 3.636l59.478 34.342v-68.684c0-14.964 12.137-27.101 27.101-27.101s27.101 12.137 27.101 27.101v68.684l59.483-34.346c4.268-2.462 8.93-3.636 13.528-3.636 9.363 0 18.474 4.86 23.497 13.555 7.484 12.963 3.040 29.536-9.919 37.020l-59.483 34.346 59.483 34.346c12.963 7.484 17.404 24.061 9.919 37.020-7.489 12.963-24.057 17.404-37.020 9.919l-59.483-34.342v68.679c0 14.969-12.137 27.101-27.101 27.101s-27.101-12.132-27.101-27.101v-68.675l-59.487 34.342c-12.963 7.484-29.536 3.040-37.020-9.919-7.484-12.963-3.040-29.536 9.919-37.020l59.483-34.346-59.483-34.346c-12.963-7.484-17.404-24.057-9.919-37.020zM529.772 642.386c5.018-8.695 14.129-13.555 23.497-13.555 4.598 0 9.255 1.17 13.524 3.636l109.543 63.241v-126.491c0-14.964 12.137-27.101 27.101-27.101 14.969 0 27.101 12.137 27.101 27.101v126.495l109.552-63.25c4.268-2.462 8.93-3.636 13.524-3.636 9.368 0 18.479 4.86 23.497 13.555 7.48 12.963 3.044 29.54-9.919 37.020l-109.548 63.245 109.548 63.245c12.963 7.484 17.404 24.061 9.919 37.020-7.48 12.959-24.043 17.404-37.020 9.919l-109.552-63.25v126.495c0 14.969-12.132 27.101-27.101 27.101s-27.101-12.132-27.101-27.101v-126.482l-109.543 63.241c-12.968 7.484-29.54 3.035-37.020-9.919-7.48-12.963-3.044-29.536 9.919-37.020l109.548-63.245-109.548-63.245c-12.963-7.484-17.399-24.061-9.919-37.020z" />
<glyph unicode="&#xe901;" glyph-name="breeze" d="M786.742 606.048c-108.401 0-196.588-88.183-196.588-196.579 0-90.455 73.585-164.044 164.035-164.044 18.713 0 33.877 15.168 33.877 33.877s-15.163 33.877-33.877 33.877c-53.091 0-96.282 43.199-96.282 96.291 0 71.033 57.798 128.826 128.835 128.826 93.463 0 169.505-76.037 169.505-169.496 0-121.509-98.852-220.365-220.356-220.365h-702.014c-18.713 0-33.877-15.168-33.877-33.877s15.163-33.877 33.877-33.877h702.014c158.863 0 288.109 129.251 288.109 288.118 0 130.818-106.431 237.249-237.258 237.249zM33.877 461.562h315.68c106.296 0 192.781 86.48 192.781 192.781 0 88.766-72.22 160.986-160.995 160.986-74.754 0-135.57-60.815-135.57-135.57 0-63.534 51.687-115.226 115.226-115.226 18.713 0 33.877 15.168 33.877 33.877s-15.163 33.877-33.877 33.877c-26.175 0-47.472 21.297-47.472 47.472 0 37.395 30.421 67.816 67.816 67.816 51.416 0 93.242-41.822 93.242-93.233 0-68.941-56.086-125.027-125.027-125.027h-315.68c-18.713 0-33.877-15.168-33.877-33.877 0-18.713 15.163-33.877 33.877-33.877z" />
<glyph unicode="&#xe902;" glyph-name="cloudy-day" d="M528.542 210.624c-12.438 0-22.517-10.082-22.517-22.517v-64.023c0-12.435 10.079-22.517 22.517-22.517s22.517 10.082 22.517 22.517v64.023c0 12.435-10.082 22.517-22.517 22.517zM528.542 652.345c12.438 0 22.517 10.082 22.517 22.517v64.026c0 12.435-10.079 22.517-22.517 22.517s-22.517-10.082-22.517-22.517v-64.023c0-12.438 10.079-22.52 22.517-22.52zM749.376 431.482c0-12.435 10.079-22.517 22.517-22.517h64.020c12.438 0 22.517 10.082 22.517 22.517s-10.079 22.517-22.517 22.517h-64.020c-12.435 0-22.517-10.079-22.517-22.517zM307.661 431.482c0 12.435-10.079 22.517-22.517 22.517h-64.050c-12.438 0-22.517-10.082-22.517-22.517s10.079-22.517 22.517-22.517h64.050c12.435 0 22.517 10.082 22.517 22.517zM700.601 581.081c5.761 0 11.526 2.198 15.924 6.596l45.262 45.262c8.794 8.794 8.794 23.051 0 31.842-8.797 8.794-23.051 8.794-31.845 0l-45.262-45.262c-8.794-8.794-8.794-23.051 0-31.842 4.395-4.398 10.163-6.596 15.921-6.596zM340.482 275.32l-45.256-45.262c-8.794-8.794-8.794-23.051 0.003-31.842 4.395-4.395 10.16-6.593 15.921-6.593s11.526 2.198 15.924 6.596l45.256 45.262c8.794 8.794 8.794 23.051-0.003 31.842-8.791 8.794-23.048 8.794-31.845-0.003zM703.768 431.482c0 96.639-78.617 175.262-175.25 175.262-96.645 0-175.268-78.623-175.268-175.262 0-96.636 78.623-175.256 175.268-175.256 96.633 0 175.25 78.62 175.25 175.256zM398.284 431.482c0 71.808 58.424 130.228 130.234 130.228 71.802 0 130.216-58.421 130.216-130.228 0-71.805-58.415-130.222-130.216-130.222-71.811 0-130.234 58.418-130.234 130.222zM917.892 271.096c-19.199 38.39-59.733 63.939-104.184 63.939-61.078 0-111.272-46.613-115.638-105.508-39.987-7.268-70.367-41.821-70.367-83.222 0-46.661 38.597-84.627 86.044-84.627h203.666c58.772 0 106.586 46.973 106.586 104.709 0 57.58-47.556 104.454-106.108 104.709zM917.414 106.714h-203.666c-22.613 0-41.011 17.761-41.011 39.594s18.398 39.594 41.011 39.594c1.324 0 2.894-0.111 4.936-0.345 6.935-0.802 13.873 1.666 18.746 6.686s7.133 12.018 6.122 18.938c-0.498 3.426-0.754 6.794-0.754 10.009 0 37.945 31.812 68.814 70.91 68.814 31.157 0 59.105-20.229 67.968-49.195 3.311-10.82 14.141-17.506 25.285-15.615 3.414 0.576 6.932 0.871 10.454 0.871 33.94 0 61.552-26.771 61.552-59.676 0-32.908-27.612-59.676-61.552-59.676zM396.296 665.669c0 57.58-47.553 104.454-106.105 104.709-19.202 38.39-59.733 63.939-104.187 63.939-61.078 0-111.272-46.613-115.638-105.511-39.987-7.262-70.367-41.815-70.367-83.216 0-46.664 38.597-84.627 86.044-84.627h203.66c58.775 0 106.592 46.973 106.592 104.706zM45.034 645.59c0 21.832 18.398 39.594 41.011 39.594 1.327 0 2.888-0.111 4.909-0.345 6.941-0.814 13.882 1.651 18.764 6.671 4.876 5.020 7.142 12.021 6.131 18.947-0.498 3.429-0.754 6.797-0.754 10.015 0 37.945 31.812 68.814 70.91 68.814 31.157 0 59.105-20.229 67.968-49.192 3.308-10.811 14.147-17.491 25.255-15.618 3.447 0.576 6.971 0.871 10.478 0.871 33.943 0 61.558-26.771 61.558-59.679 0-32.902-27.615-59.673-61.558-59.673h-203.66c-22.613 0-41.011 17.761-41.011 39.594z" />
<glyph unicode="&#xe903;" glyph-name="cold" d="M942.618 239.732l-104.002 60.048 90.132 53.147c16.624 9.803 22.154 31.226 12.351 47.85-9.808 16.624-31.221 22.145-47.854 12.351l-124.149-73.21-73.070 42.184v131.794l73.028 42.166 124.195-73.205c5.572-3.285 11.681-4.841 17.714-4.841 11.965 0 23.617 6.15 30.136 17.206 9.803 16.624 4.268 38.047-12.356 47.85l-90.151 53.138 104.026 60.062c16.712 9.649 22.439 31.021 12.789 47.733-9.645 16.712-31.026 22.439-47.733 12.789l-104.012-60.052-0.941 104.65c-0.172 19.298-15.99 34.921-35.256 34.627-19.303-0.172-34.804-15.958-34.632-35.256l1.295-144.16-73.056-42.18-114.131 65.899v84.336l125.5 70.931c16.796 9.495 22.723 30.811 13.227 47.617-9.495 16.801-30.82 22.727-47.617 13.227l-91.11-51.498v120.118c0 19.298-15.641 34.944-34.944 34.944s-34.944-15.646-34.944-34.944v-120.118l-91.115 51.493c-16.806 9.505-38.126 3.574-47.617-13.227-9.495-16.801-3.574-38.121 13.227-47.617l125.504-70.931v-84.345l-114.127-65.89-73.065 42.184 1.295 144.155c0.172 19.298-15.329 35.084-34.632 35.256-0.112 0-0.214 0-0.317 0-19.149 0-34.767-15.436-34.939-34.632l-0.941-104.641-103.998 60.048c-16.726 9.654-38.093 3.923-47.733-12.789-9.649-16.712-3.923-38.084 12.789-47.733l104.026-60.062-90.165-53.138c-16.629-9.798-22.164-31.221-12.361-47.85 6.514-11.056 18.166-17.206 30.136-17.206 6.029 0 12.142 1.561 17.71 4.841l124.209 73.205 73.037-42.17v-131.79l-73.075-42.194-124.167 73.219c-16.619 9.803-38.038 4.272-47.85-12.351-9.803-16.624-4.268-38.047 12.351-47.85l90.141-53.147-103.993-60.043c-16.712-9.649-22.439-31.021-12.789-47.733 6.476-11.21 18.217-17.477 30.294-17.477 5.926 0 11.941 1.514 17.439 4.687l103.998 60.043 0.941-104.65c0.172-19.191 15.785-34.632 34.939-34.632 0.103 0 0.214 0 0.317 0.005 19.298 0.172 34.804 15.958 34.632 35.256l-1.3 144.169 73.065 42.184 114.131-65.899v-84.355l-125.504-70.931c-16.796-9.495-22.723-30.811-13.227-47.617 6.425-11.368 18.264-17.756 30.452-17.756 5.824 0 11.732 1.458 17.164 4.529l91.115 51.493v-120.109c0-19.298 15.641-34.944 34.944-34.944s34.944 15.646 34.944 34.944v120.109l91.115-51.493c5.433-3.070 11.34-4.529 17.164-4.529 12.188 0 24.027 6.388 30.452 17.756 9.495 16.806 3.574 38.121-13.227 47.617l-125.5 70.931v84.35l114.136 65.904 73.056-42.175-1.333-144.164c-0.177-19.298 15.324-35.088 34.622-35.265 0.107-0.005 0.219-0.005 0.326-0.005 19.149 0 34.762 15.436 34.939 34.622l0.969 104.673 104.016-60.057c5.507-3.178 11.513-4.687 17.439-4.687 12.077 0 23.822 6.271 30.294 17.477 9.645 16.708 3.914 38.080-12.794 47.729zM397.866 513.893l114.141 65.904 114.131-65.904v-131.785l-114.131-65.904-114.141 65.904v131.785z" />
<glyph unicode="&#xe904;" glyph-name="dark-night" d="M1022.085 349.172c-3.434 8.293-11.029 14.124-19.926 15.308-81.899 10.868-152.373 64.934-183.924 141.102-31.552 76.171-19.952 164.24 30.274 229.835 5.456 7.126 6.703 16.623 3.27 24.915s-11.029 14.124-19.926 15.305c-48.996 6.509-99.081-0.074-144.834-19.024-86.536-35.844-147.48-110.405-167.268-198.005-40.086 45.277-99.158 73.297-162.573 73.297-118.49 0-214.889-94.49-214.889-210.633 0-0.409 0-0.815 0.003-1.224-79.478-5.979-142.292-71.349-142.292-150.843 0-83.418 69.163-151.279 154.177-151.279h413.601c74.518 0 139.435 41.018 172.54 101.231 18.246-3.645 36.615-5.489 54.945-5.489 36.565 0 72.942 7.243 107.689 21.636 45.753 18.953 85.819 49.713 115.868 88.957 5.456 7.122 6.703 16.619 3.266 24.912zM567.774 168.226h-413.598c-57.278 0-103.876 45.3-103.876 100.979 0 55.682 46.598 100.986 103.876 100.986 3.534 0 7.465-0.265 12.36-0.838 7.77-0.919 15.506 1.844 20.955 7.451 5.446 5.603 7.978 13.423 6.851 21.16-1.164 7.978-1.754 15.821-1.754 23.309 0 88.408 73.834 160.333 164.589 160.333 71.986 0 136.625-46.752 157.473-113.776 0.268-0.942 0.594-1.858 0.966-2.75 4.376-10.841 15.757-17.36 27.467-15.375 8.115 1.361 16.421 2.049 24.691 2.049 80.276 0 145.582-63.596 145.582-141.763 0-78.17-65.306-141.766-145.582-141.766zM883.7 281.773c-40.15-16.629-82.911-21.602-125.056-14.802 3.243 13.839 5.017 28.225 5.017 43.017 0 105.905-87.874 192.063-195.882 192.063-1.529 0-3.058-0.104-4.587-0.137 2.18 91 57.356 172.717 143.080 208.222 24.728 10.244 50.998 16.086 77.533 17.367-39.422-73.837-44.549-162.684-12.035-241.172 32.507-78.478 98.964-137.682 179.042-162.017-19.674-17.857-42.38-32.296-67.11-42.54z" />
<glyph unicode="&#xe905;" glyph-name="drizzle" d="M761.338 721.17c-5.364 0-10.738-0.162-16.107-0.486-44.048 104.064-149.735 174.606-266.29 174.606-158.886 0-288.148-126.704-288.148-282.442 0-0.544 0-1.093 0.004-1.641-106.568-8.017-190.798-95.673-190.798-202.268 0-111.856 92.741-202.853 206.738-202.853h554.605c144.829 0 262.662 115.53 262.662 257.54s-117.832 257.545-262.666 257.545zM761.338 273.534h-554.6c-76.806 0-139.29 60.744-139.29 135.405 0 74.665 62.484 135.414 139.29 135.414 4.739 0 10.009-0.355 16.579-1.124 10.419-1.232 20.792 2.478 28.094 9.991 7.307 7.518 10.697 18.004 9.186 28.373-1.56 10.702-2.352 21.219-2.352 31.256 0 118.547 99.005 214.994 220.7 214.994 96.856 0 183.815-63.109 211.459-153.476 4.955-16.188 21.147-26.219 37.825-23.391 10.882 1.821 22.020 2.747 33.108 2.747 107.638 0 195.213-85.277 195.213-190.092 0-104.819-87.57-190.096-195.213-190.096zM213.811 154.897l-96.613-96.613c-13.17-13.175-13.17-34.525 0-47.695 6.583-6.583 15.216-9.874 23.845-9.874s17.262 3.291 23.845 9.874l96.613 96.613c13.17 13.175 13.17 34.525 0 47.695-13.166 13.166-34.52 13.166-47.69 0zM419.915 154.892l-96.604-96.613c-13.17-13.17-13.166-34.525 0.004-47.69 6.587-6.583 15.216-9.874 23.845-9.874s17.262 3.291 23.85 9.879l96.604 96.613c13.17 13.17 13.166 34.525-0.004 47.69-13.175 13.166-34.529 13.17-47.695-0.004zM626.019 154.892l-96.604-96.613c-13.17-13.17-13.166-34.525 0.004-47.69 6.587-6.583 15.216-9.874 23.845-9.874s17.262 3.291 23.85 9.879l96.604 96.613c13.17 13.17 13.166 34.525-0.004 47.69-13.175 13.166-34.529 13.17-47.695-0.004zM832.132 154.897l-96.613-96.613c-13.17-13.175-13.17-34.525 0-47.695 6.583-6.583 15.216-9.874 23.845-9.874s17.262 3.291 23.845 9.874l96.613 96.613c13.17 13.175 13.17 34.525 0 47.695-13.166 13.166-34.52 13.166-47.69 0z" />
<glyph unicode="&#xe906;" glyph-name="drought" d="M978.176 879.764c-15.214 15.214-39.882 15.214-55.091 0l-175.645-175.645c-68.664 118.072-136.719 217.693-151.487 239.068-7.277 10.529-19.26 16.814-32.059 16.814s-24.782-6.285-32.054-16.819c-31.784-46.032-310.557-454.751-310.557-629.534 0-40.542 7.121-79.442 20.112-115.563l-195.571-195.576c-15.214-15.214-15.214-39.882 0-55.096 7.604-7.604 17.578-11.412 27.545-11.412s19.941 3.802 27.545 11.412l177.344 177.344c61.407-92.537 166.493-153.699 285.64-153.699 188.964 0 342.705 153.684 342.705 342.59 0 77.837-55.304 202.058-119.464 319.99l191.036 191.036c15.214 15.209 15.214 39.882 0 55.091zM299.197 313.647c0 113.303 169.101 392.902 264.702 537.704 35.971-54.452 82.345-127.982 126.201-204.557l-385.656-385.656c-3.423 16.975-5.246 34.532-5.246 52.509zM828.684 313.647c0-145.944-118.783-264.676-264.79-264.676-97.757 0-183.245 53.309-229.090 132.34l394.58 394.57c55.553-104 99.3-204.598 99.3-262.234z" />
<glyph unicode="&#xe907;" glyph-name="flood" d="M197.37 656.099c59.604 0 116.181 24.259 157.328 65.614 41.152-41.36 97.724-65.614 157.328-65.614 59.615 0 116.181 24.248 157.307 65.598 41.147-41.35 97.714-65.598 157.328-65.598 78.878 0 152.434 42.476 191.969 110.844 11.065 19.14 4.521 43.629-14.619 54.693-19.14 11.054-43.629 4.521-54.693-14.619-25.262-43.703-72.264-70.855-122.65-70.855-50.397 0-97.409 27.152-122.672 70.855-7.158 12.372-20.368 20-34.662 19.994-14.299 0-27.504-7.627-34.656-20.005-25.246-43.703-72.238-70.845-122.64-70.845-50.381 0-97.393 27.157-122.693 70.871-7.158 12.367-20.363 19.984-34.646 19.984h-0.011c-14.288 0-27.493-7.622-34.646-19.994-25.262-43.703-72.264-70.855-122.656-70.855-50.397 0-97.409 27.152-122.672 70.855-11.065 19.135-35.553 25.689-54.693 14.619-19.14-11.065-25.689-35.553-14.619-54.693 39.514-68.373 113.075-110.849 191.969-110.849zM1004 528.079c-19.14 11.054-43.629 4.526-54.693-14.619-25.262-43.703-72.264-70.855-122.65-70.855-50.397 0-97.409 27.152-122.672 70.855-7.158 12.372-20.368 20-34.662 19.994-14.299 0-27.504-7.627-34.656-20.005-25.246-43.703-72.238-70.845-122.64-70.845-50.381 0-97.393 27.157-122.693 70.871-7.158 12.367-20.363 19.984-34.646 19.984h-0.011c-14.288 0-27.493-7.622-34.646-19.994-25.262-43.703-72.264-70.855-122.656-70.855-50.397 0-97.409 27.152-122.672 70.855-11.065 19.14-35.553 25.689-54.693 14.619-19.14-11.065-25.689-35.553-14.619-54.693 39.53-68.373 113.091-110.849 191.99-110.849 59.604 0 116.181 24.259 157.328 65.614 41.152-41.36 97.724-65.614 157.328-65.614 59.615 0 116.181 24.248 157.307 65.598 41.147-41.35 97.714-65.598 157.328-65.598 78.878 0 152.434 42.471 191.969 110.849 11.043 19.135 4.5 43.623-14.641 54.688zM1004 234.516c-19.14 11.059-43.629 4.526-54.693-14.619-25.262-43.703-72.264-70.855-122.65-70.855-50.397 0-97.409 27.152-122.672 70.855-7.158 12.372-20.368 20-34.662 19.994-14.299 0-27.504-7.627-34.656-20.005-25.246-43.703-72.238-70.845-122.64-70.845-50.381 0-97.393 27.157-122.693 70.871-7.158 12.367-20.363 19.984-34.646 19.984h-0.011c-14.288 0-27.493-7.622-34.646-19.994-25.262-43.703-72.264-70.855-122.656-70.855-50.397 0-97.409 27.152-122.672 70.855-11.065 19.14-35.553 25.684-54.693 14.619s-25.689-35.553-14.619-54.693c39.53-68.373 113.091-110.849 191.99-110.849 59.604 0 116.181 24.259 157.328 65.614 41.152-41.36 97.724-65.614 157.328-65.614 59.615 0 116.181 24.248 157.307 65.598 41.147-41.35 97.714-65.598 157.328-65.598 78.878 0 152.434 42.476 191.969 110.849 11.043 19.135 4.5 43.623-14.641 54.688z" />
<glyph unicode="&#xe908;" glyph-name="foggy" d="M497.339 736.61c19.861 0 35.963 16.097 35.963 35.963v114.069c0 19.866-16.097 35.963-35.963 35.963-19.861 0-35.963-16.097-35.963-35.963v-114.069c0-19.866 16.102-35.963 35.963-35.963zM803.971 609.633c9.202 0 18.403 3.51 25.423 10.525l80.671 80.638c14.049 14.045 14.054 36.816 0.014 50.856-14.049 14.054-36.821 14.049-50.856 0.014l-80.671-80.638c-14.049-14.045-14.054-36.816-0.014-50.856 7.025-7.025 16.231-10.539 25.433-10.539zM165.356 620.172c7.020-7.025 16.226-10.535 25.428-10.535s18.408 3.51 25.428 10.53c14.045 14.045 14.045 36.816 0 50.856l-80.633 80.643c-14.045 14.049-36.816 14.045-50.856 0.005-14.045-14.045-14.045-36.816 0-50.856l80.633-80.643zM101.141 302.987h862.763c19.866 0 35.963 16.097 35.963 35.963s-16.097 35.963-35.963 35.963h-160.59c-17.881 152.995-148.219 272.136-305.937 272.136-157.703 0-288.032-119.142-305.908-272.136h-90.329c-19.861 0-35.963-16.097-35.963-35.963 0-19.861 16.102-35.963 35.963-35.963zM497.378 575.123c118.005 0 216.073-86.996 233.445-200.211h-466.862c17.368 113.22 115.426 200.211 233.417 200.211zM885.405 174.159c0 19.866-16.097 35.963-35.963 35.963h-813.48c-19.861 0-35.963-16.097-35.963-35.963s16.102-35.963 35.963-35.963h813.48c19.861 0 35.963 16.097 35.963 35.963zM988.037 45.322h-812.079c-19.861 0-35.963-16.097-35.963-35.963s16.102-35.963 35.963-35.963h812.079c19.866 0 35.963 16.097 35.963 35.963s-16.097 35.963-35.963 35.963z" />
<glyph unicode="&#xe909;" glyph-name="hail-storm" d="M736.955 802.907c-4.84 0-9.688-0.146-14.532-0.438-39.741 93.887-135.088 157.531-240.249 157.531-143.344 0-259.97-114.313-259.97-254.821 0-0.495 0-0.986 0.004-1.481-96.147-7.229-172.139-86.313-172.139-182.484 0-100.914 83.672-183.016 186.521-183.016h500.369c130.666 0 236.976 104.236 236.976 232.355-0.004 128.119-106.309 232.355-236.98 232.355zM736.955 399.050h-500.369c-69.295 0-125.664 54.804-125.664 122.163 0 67.364 56.374 122.171 125.664 122.171 4.276 0 9.030-0.325 14.958-1.014 9.392-1.103 18.759 2.235 25.351 9.014 6.588 6.779 9.651 16.239 8.288 25.599-1.408 9.651-2.122 19.14-2.122 28.199-0.004 106.95 89.323 193.965 199.113 193.965 87.384 0 165.839-56.942 190.78-138.468 4.471-14.601 19.067-23.655 34.126-21.104 9.818 1.647 19.866 2.479 29.87 2.479 97.112 0 176.123-76.938 176.123-171.502 0.004-94.569-79.003-171.502-176.119-171.502zM496.852 62.808c-5.602 9.7-17.996 13.022-27.708 7.424l-25.225-14.564v29.12c0 11.201-9.083 20.284-20.284 20.284s-20.284-9.083-20.284-20.284v-29.116l-25.221 14.56c-9.704 5.602-22.11 2.276-27.708-7.424-5.602-9.704-2.28-22.11 7.424-27.708l25.221-14.56-25.221-14.56c-9.704-5.598-13.026-18.008-7.424-27.708 3.757-6.507 10.572-10.146 17.586-10.146 3.44 0 6.929 0.876 10.122 2.722l25.221 14.56v-29.12c0-11.201 9.083-20.284 20.284-20.284s20.284 9.083 20.284 20.284v29.124l25.225-14.564c3.197-1.846 6.682-2.722 10.122-2.722 7.010 0 13.83 3.639 17.586 10.146 5.602 9.704 2.28 22.11-7.424 27.708l-25.221 14.56 25.221 14.56c9.7 5.598 13.026 18.004 7.424 27.708zM676.715 62.808c-5.598 9.7-18 13.022-27.708 7.424l-25.225-14.564v29.12c0 11.201-9.083 20.284-20.284 20.284s-20.284-9.083-20.284-20.284v-29.116l-25.221 14.56c-9.708 5.602-22.11 2.276-27.708-7.424-5.602-9.704-2.276-22.11 7.424-27.708l25.221-14.56-25.221-14.56c-9.704-5.598-13.026-18.008-7.424-27.708 3.757-6.507 10.576-10.146 17.586-10.146 3.44 0 6.925 0.876 10.122 2.722l25.221 14.56v-29.12c0-11.201 9.083-20.284 20.284-20.284s20.284 9.083 20.284 20.284v29.124l25.225-14.564c3.197-1.846 6.682-2.722 10.122-2.722 7.010 0 13.83 3.639 17.586 10.146 5.602 9.704 2.28 22.11-7.424 27.708l-25.221 14.56 25.221 14.56c9.704 5.598 13.026 18.004 7.424 27.708zM353.983 163.973v29.124l25.225-14.564c3.197-1.842 6.682-2.722 10.122-2.722 7.010 0 13.83 3.639 17.586 10.146 5.602 9.704 2.28 22.106-7.424 27.708l-25.221 14.56 25.221 14.56c9.704 5.602 13.026 18.004 7.424 27.708-5.598 9.7-18.004 13.026-27.708 7.424l-25.225-14.564v29.12c0 11.201-9.083 20.284-20.284 20.284s-20.284-9.083-20.284-20.284v-29.116l-25.217 14.56c-9.704 5.598-22.11 2.276-27.708-7.424-5.602-9.704-2.276-22.106 7.424-27.708l25.221-14.56-25.221-14.56c-9.704-5.602-13.026-18.008-7.424-27.708 3.757-6.507 10.572-10.146 17.586-10.146 3.44 0 6.929 0.876 10.122 2.722l25.217 14.56v-29.12c0-11.201 9.083-20.284 20.284-20.284s20.284 9.083 20.284 20.284zM533.854 163.973v29.12l25.221-14.56c3.197-1.842 6.682-2.722 10.122-2.722 7.010 0 13.83 3.639 17.586 10.146 5.602 9.704 2.28 22.106-7.424 27.708l-25.221 14.56 25.221 14.56c9.704 5.602 13.026 18.004 7.424 27.708-5.602 9.7-18.004 13.026-27.708 7.424l-25.221-14.56v29.116c0 11.201-9.083 20.284-20.284 20.284s-20.284-9.083-20.284-20.284v-29.116l-25.221 14.56c-9.708 5.598-22.106 2.276-27.708-7.424-5.602-9.704-2.28-22.106 7.424-27.708l25.221-14.56-25.221-14.56c-9.704-5.602-13.026-18.008-7.424-27.708 3.757-6.507 10.572-10.146 17.586-10.146 3.44 0 6.929 0.876 10.122 2.722l25.221 14.56v-29.12c0-11.201 9.083-20.284 20.284-20.284s20.284 9.083 20.284 20.284zM766.647 270.498c-5.598 9.7-18 13.026-27.708 7.424l-25.225-14.564v29.12c0 11.201-9.083 20.284-20.284 20.284s-20.284-9.083-20.284-20.284v-29.112l-25.213 14.556c-9.708 5.598-22.106 2.276-27.708-7.424-5.602-9.704-2.28-22.106 7.424-27.708l25.221-14.56-25.221-14.56c-9.704-5.602-13.026-18.008-7.424-27.708 3.757-6.507 10.572-10.146 17.586-10.146 3.44 0 6.929 0.876 10.122 2.722l25.213 14.556v-29.116c0-11.201 9.083-20.284 20.284-20.284s20.284 9.083 20.284 20.284v29.124l25.225-14.564c3.197-1.842 6.682-2.722 10.122-2.722 7.010 0 13.83 3.639 17.586 10.146 5.602 9.704 2.28 22.106-7.424 27.708l-25.221 14.56 25.221 14.56c9.704 5.602 13.026 18.004 7.424 27.708z" />
<glyph unicode="&#xe90a;" glyph-name="hail" d="M761.343 734.296c-5.364 0-10.747-0.162-16.111-0.486-44.044 104.064-149.726 174.606-266.29 174.606-158.886 0-288.148-126.704-288.148-282.442 0-0.549 0-1.093 0.004-1.641-106.577-8.004-190.798-95.664-190.798-202.264 0-111.852 92.741-202.853 206.734-202.853h554.614c144.829 0 262.657 115.534 262.657 257.54-0.004 142.006-117.832 257.54-262.662 257.54zM761.343 286.659h-554.609c-76.801 0-139.285 60.744-139.285 135.405 0 74.665 62.484 135.414 139.285 135.414 4.739 0 10.005-0.36 16.583-1.124 10.396-1.232 20.788 2.469 28.094 9.987 7.302 7.514 10.697 17.991 9.191 28.364-1.565 10.738-2.352 21.26-2.352 31.269 0 118.547 99.010 214.994 220.7 214.994 96.86 0 183.815-63.109 211.455-153.472 4.955-16.188 21.17-26.197 37.825-23.396 10.882 1.826 22.020 2.747 33.117 2.747 107.638 0 195.209-85.277 195.209-190.092-0.004-104.819-87.57-190.096-195.213-190.096zM393.786 128.133c-6.21 10.751-19.956 14.447-30.711 8.229l-27.96-16.143v32.276c0 12.415-10.063 22.483-22.483 22.483s-22.483-10.068-22.483-22.483v-32.272l-27.951 16.138c-10.76 6.219-24.511 2.523-30.711-8.229-6.21-10.756-2.527-24.502 8.229-30.711l27.955-16.138-27.955-16.138c-10.756-6.21-14.438-19.956-8.229-30.711 4.164-7.212 11.718-11.246 19.493-11.246 3.813 0 7.68 0.971 11.219 3.017l27.951 16.138v-32.276c0-12.415 10.063-22.483 22.483-22.483s22.483 10.068 22.483 22.483v32.281l27.96-16.143c3.539-2.046 7.406-3.017 11.219-3.017 7.775 0 15.329 4.033 19.493 11.246 6.21 10.756 2.527 24.502-8.229 30.711l-27.955 16.138 27.955 16.138c10.756 6.21 14.438 19.96 8.229 30.711zM593.149 128.133c-6.205 10.751-19.96 14.447-30.711 8.229l-27.955-16.138v32.272c0 12.415-10.063 22.483-22.483 22.483s-22.483-10.068-22.483-22.483v-32.272l-27.955 16.138c-10.765 6.219-24.506 2.523-30.711-8.229-6.21-10.756-2.527-24.502 8.229-30.711l27.955-16.138-27.955-16.138c-10.756-6.21-14.438-19.956-8.229-30.711 4.164-7.212 11.718-11.246 19.493-11.246 3.813 0 7.68 0.971 11.219 3.017l27.955 16.138v-32.276c0-12.415 10.063-22.483 22.483-22.483s22.483 10.068 22.483 22.483v32.276l27.955-16.138c3.539-2.046 7.406-3.017 11.219-3.017 7.775 0 15.329 4.033 19.493 11.246 6.21 10.756 2.527 24.502-8.229 30.711l-27.955 16.138 27.955 16.138c10.756 6.21 14.438 19.96 8.229 30.711zM792.513 128.133c-6.21 10.751-19.956 14.447-30.711 8.229l-27.96-16.143v32.276c0 12.415-10.063 22.483-22.483 22.483s-22.483-10.068-22.483-22.483v-32.272l-27.951 16.138c-10.765 6.219-24.511 2.523-30.711-8.229-6.21-10.756-2.523-24.502 8.229-30.711l27.955-16.138-27.955-16.138c-10.756-6.21-14.438-19.956-8.229-30.711 4.164-7.212 11.723-11.246 19.493-11.246 3.813 0 7.68 0.971 11.219 3.017l27.951 16.138v-32.276c0-12.415 10.063-22.483 22.483-22.483s22.483 10.068 22.483 22.483v32.281l27.96-16.143c3.539-2.046 7.41-3.017 11.219-3.017 7.775 0 15.329 4.033 19.493 11.246 6.21 10.756 2.527 24.502-8.229 30.711l-27.955 16.138 27.955 16.138c10.756 6.21 14.438 19.96 8.229 30.711z" />
<glyph unicode="&#xe90b;" glyph-name="hot-weather" d="M839.906 437.377c-14.246 40.29-33.995 79.275-58.659 115.808-13.212 19.661-28.037 40.99-43.728 63.574-65.548 94.326-155.32 223.513-166.656 296.029-4.383 27.356-27.773 47.212-55.606 47.212-16.39 0-31.91-7.195-42.579-19.74l0.074-0.065c-9.46-10.285-27.912-33.647-39.985-57.13-14.259-27.754-23.905-53.795-29.464-79.511-11.128-50.751-9.923-105.644 3.484-158.73 4.197-16.641 9.673-33.138 16.302-49.083l0.927-2.21c4.54-10.845 8.83-21.088 9.428-29.334 0.273-4.42-2.812-8.204-4.151-9.627-3.465-3.683-8.279-5.976-12.564-5.976-9.455 0-14.537 4.526-16.483 14.723-4.123 21.394-22.881 36.923-44.608 36.923-7.982 0-15.867-2.136-22.936-6.254-107.497-63.213-174.272-179.92-174.272-304.655 0.264-122.785 62.453-234.748 166.443-299.777 0.403-0.273 0.815-0.537 1.232-0.792l0.542-0.32c55.634-34.314 119.741-52.451 185.4-52.451 65.641 0 129.641 18.081 185.094 52.298 82.443 50.946 141.024 134.227 160.722 228.484 14.621 69.893 8.413 146.184-17.956 220.604zM789.832 231.014c-15.821-75.703-62.926-142.622-129.215-183.584-44.46-27.435-95.841-41.935-148.584-41.935-52.688 0-104.115 14.519-148.788 42.023-0.208 0.134-0.412 0.269-0.625 0.394-84.144 52.192-134.505 142.501-134.714 241.502 0 90.625 43.932 176.019 116.192 229.012 15.121-24.6 41.245-39.313 72.622-39.313 23.497 0 46.526 10.15 63.176 27.847 16.14 17.155 24.271 38.984 22.876 61.856-1.436 19.976-8.464 36.76-14.662 51.566l-0.876 2.089c-5.304 12.758-9.696 25.999-13.069 39.364-10.785 42.704-11.813 86.562-2.96 126.94 4.281 19.8 11.925 40.253 23.372 62.532 4.012 7.806 9.126 15.705 14.056 22.617 25.049-85.584 102.591-197.176 171.831-296.816 15.533-22.353 30.205-43.469 43.158-62.74 21.412-31.715 38.493-65.409 50.784-100.173 22.112-62.43 27.449-125.768 15.427-183.181z" />
<glyph unicode="&#xe90c;" glyph-name="hurricane" d="M800.527 448c0 20.189-16.362 36.556-36.556 36.556h-672.080c-20.193 0-36.556-16.367-36.556-36.556s16.362-36.556 36.556-36.556h672.085c20.189 0 36.551 16.367 36.551 36.556zM887.213 698.275h-713.159c-20.189 0-36.556-16.367-36.556-36.556s16.367-36.556 36.556-36.556h713.159c20.193 0 36.556 16.367 36.556 36.556s-16.362 36.556-36.556 36.556zM813.254 270.846h-475.444c-20.193 0-36.556-16.367-36.556-36.556s16.362-36.556 36.556-36.556h475.449c20.193 0 36.556 16.367 36.556 36.556-0.005 20.189-16.367 36.556-36.561 36.556zM615.185 57.121h-155.547c-20.189 0-36.556-16.367-36.556-36.556s16.367-36.556 36.556-36.556h155.547c20.193 0 36.556 16.367 36.556 36.556s-16.367 36.556-36.556 36.556zM987.444 911.99h-950.888c-20.193 0-36.556-16.367-36.556-36.556s16.362-36.556 36.556-36.556h950.888c20.193 0 36.556 16.367 36.556 36.556s-16.367 36.556-36.556 36.556z" />
<glyph unicode="&#xe90d;" glyph-name="lighting" d="M921.611 581.183c-6.632 14.188-20.879 23.256-36.541 23.256h-268.017l168.048 295.269c7.105 12.489 7.035 27.812-0.188 40.23s-20.508 20.061-34.874 20.061h-276.611c-14.5 0-27.887-7.783-35.056-20.384l-334.499-587.752c-7.105-12.483-7.035-27.806 0.188-40.225s20.502-20.061 34.868-20.061h288.75l-73.13-305.854c-4.357-18.211 4.394-37.025 21.126-45.426 5.766-2.894 11.956-4.292 18.088-4.292 11.66 0 23.1 5.056 30.969 14.468l491.285 587.758c10.047 12.015 12.225 28.764 5.594 42.952zM472.939 133.936l45.093 188.594c2.867 12.010 0.081 24.676-7.567 34.368s-19.319 15.35-31.668 15.35h-270.496l288.589 507.076h183.78l-168.048-295.269c-7.105-12.489-7.035-27.812 0.188-40.23s20.508-20.061 34.868-20.061h251.102l-325.84-389.827z" />
<glyph unicode="&#xe90e;" glyph-name="mist" d="M681.93 738.203c0 19.507-15.815 35.322-35.322 35.322h-611.287c-19.507 0-35.322-15.815-35.322-35.322s15.815-35.322 35.322-35.322h611.287c19.507 0 35.322 15.815 35.322 35.322zM988.678 628.423h-712.547c-19.507 0-35.322-15.815-35.322-35.322s15.815-35.322 35.322-35.322h712.547c19.507 0 35.322 15.815 35.322 35.322s-15.815 35.322-35.322 35.322zM821.96 412.683c19.507 0 35.322 15.815 35.322 35.322s-15.815 35.322-35.322 35.322h-716.249c-19.507 0-35.322-15.815-35.322-35.322s15.815-35.322 35.322-35.322h716.249zM939.28 338.225h-715.015c-19.507 0-35.322-15.815-35.322-35.322s15.815-35.322 35.322-35.322h715.015c19.507 0 35.322 15.815 35.322 35.322s-15.815 35.322-35.322 35.322zM592.27 193.119h-474.21c-19.507 0-35.322-15.815-35.322-35.322s15.815-35.322 35.322-35.322h474.206c19.507 0 35.322 15.815 35.322 35.322 0.005 19.507-15.81 35.322-35.317 35.322z" />
<glyph unicode="&#xe90f;" glyph-name="moon-eclipse" d="M511.973 960c-66.165 0-130.754-12.565-191.966-37.348-0.012-0.006-0.024-0.006-0.037-0.012-194.376-78.712-319.97-265.019-319.97-474.649 0-209.624 125.594-395.925 319.964-474.625 0.018-0.006 0.024-0.006 0.043-0.012 61.218-24.777 125.801-37.348 191.96-37.348 282.336 0 512.027 229.679 512.027 511.991 0.006 282.312-229.685 512.003-512.021 512.003zM91.27 447.991c0 166.021 95.889 314.208 245.822 382.636 149.957-68.435 245.858-216.621 245.858-382.636 0-166.009-95.901-314.189-245.858-382.618-149.933 68.422-245.822 216.603-245.822 382.618zM511.973 27.27c-17.81 0-35.48 1.107-52.961 3.31 133.547 94.52 215.216 248.377 215.216 417.404 0 169.033-81.669 322.903-215.216 417.429 17.475 2.209 35.145 3.316 52.961 3.316 232.010 0 420.757-188.747 420.757-420.739 0-231.985-188.747-420.72-420.757-420.72z" />
<glyph unicode="&#xe910;" glyph-name="night" d="M972.401 181.708c-6.237 15.048-20.013 25.629-36.155 27.777-148.607 19.721-276.49 117.825-333.736 256.033-57.251 138.215-36.204 298.018 54.933 417.042 9.906 12.93 12.163 30.162 5.933 45.21s-20.013 25.629-36.155 27.777c-22.301 2.951-44.972 4.454-67.395 4.454-67.224 0-132.97-13.113-195.417-38.979-126.343-52.335-224.74-150.731-277.056-277.074-52.31-126.325-52.298-265.465 0.024-391.796 79.552-192.052 265.264-316.145 473.125-316.145 0.006 0 0.006 0 0.006 0 67.242 0 133.085 13.149 195.709 39.088 83.020 34.391 155.721 90.206 210.246 161.416 9.906 12.924 12.169 30.15 5.939 45.197zM721.291 59.411c-51.495-21.327-105.588-32.146-160.783-32.14-170.817 0-323.434 101.98-388.808 259.806-43.001 103.812-43.007 218.15-0.024 321.949 42.995 103.812 123.843 184.666 227.66 227.666 45.173 18.711 92.421 29.304 140.716 31.568-71.563-133.992-80.872-295.237-21.875-437.675 58.985-142.413 179.554-249.833 324.876-293.984-35.687-32.401-76.887-58.602-121.762-77.191z" />
<glyph unicode="&#xe911;" glyph-name="overcast-day" d="M762.837 616.428c-6.066 0-12.14-0.21-18.197-0.621-19.431 46.898-51.94 88.594-93.372 119.231-50.032 36.999-109.69 56.554-172.524 56.554-158.143 0-286.8-126.078-286.8-281.055 0-1.501 0.012-3.010 0.041-4.528-106.985-6.555-191.984-94.030-191.984-200.608 0-110.83 91.913-200.994 204.889-200.994h557.948c144.004 0 261.163 114.847 261.163 256.010 0 141.167-117.159 256.010-261.163 256.010zM762.837 166.094h-557.948c-78.963 0-143.203 62.492-143.203 139.308 0 76.82 64.24 139.32 143.203 139.32 4.865 0 10.281-0.366 17.054-1.156 9.512-1.114 19.016 2.274 25.69 9.15 6.679 6.876 9.779 16.462 8.393 25.945-1.592 10.898-2.398 21.623-2.398 31.879 0 120.959 100.985 219.369 225.114 219.369 98.784 0 187.481-64.388 215.692-156.584 4.532-14.805 19.312-23.984 34.606-21.389 11.087 1.863 22.458 2.809 33.792 2.809 109.991 0 199.477-87.175 199.477-194.328 0.004-107.153-89.482-194.324-199.473-194.324z" />
<glyph unicode="&#xe912;" glyph-name="partialy-cloudy" d="M409.348 198.747c-15.431 0-27.934-12.507-27.934-27.934v-79.426c0-15.427 12.503-27.934 27.934-27.934 15.427 0 27.934 12.507 27.934 27.934v79.426c0 15.427-12.503 27.934-27.934 27.934zM409.348 746.741c15.427 0 27.934 12.507 27.934 27.934v79.426c0 15.427-12.507 27.934-27.934 27.934-15.431 0-27.934-12.507-27.934-27.934v-79.426c0-15.427 12.507-27.934 27.934-27.934zM176.077 666.503c5.456-5.453 12.604-8.179 19.751-8.179 7.151 0 14.302 2.726 19.759 8.187 10.905 10.913 10.902 28.597-0.007 39.502l-56.173 56.155c-10.92 10.909-28.604 10.905-39.506-0.007-10.905-10.913-10.902-28.597 0.007-39.502l56.17-56.155zM683.313 472.738c0-15.427 12.503-27.934 27.934-27.934h79.422c15.431 0 27.934 12.507 27.934 27.934s-12.503 27.934-27.934 27.934h-79.422c-15.431 0-27.934-12.507-27.934-27.934zM135.327 472.738c0 15.427-12.503 27.934-27.934 27.934h-79.459c-15.431 0-27.934-12.507-27.934-27.934s12.503-27.934 27.934-27.934h79.459c15.431 0 27.934 12.507 27.934 27.934zM622.805 658.324c7.147 0 14.298 2.726 19.755 8.183l56.151 56.151c10.909 10.909 10.909 28.597 0 39.502-10.913 10.909-28.597 10.909-39.506 0l-56.151-56.151c-10.909-10.909-10.909-28.597 0-39.502 5.453-5.453 12.604-8.183 19.751-8.183zM176.047 279.007l-56.144-56.151c-10.909-10.909-10.909-28.597 0.004-39.502 5.453-5.453 12.604-8.179 19.751-8.179s14.298 2.726 19.755 8.183l56.144 56.151c10.909 10.909 10.909 28.597-0.004 39.502-10.909 10.905-28.597 10.905-39.506-0.004zM626.727 472.738c0 119.889-97.531 217.427-217.412 217.427-119.889 0-217.427-97.538-217.427-217.427 0-119.885 97.538-217.419 217.427-217.419 119.881 0 217.412 97.534 217.412 217.419zM247.756 472.738c0 89.083 72.476 161.559 161.559 161.559 89.076 0 161.544-72.476 161.544-161.559 0-89.080-72.468-161.551-161.544-161.551-89.083 0-161.559 72.472-161.559 161.551zM892.364 273.766c-23.818 47.626-74.103 79.321-129.249 79.321-75.772 0-138.046-57.827-143.458-130.895-49.607-9.017-87.299-51.883-87.299-103.244 0-57.887 47.883-104.987 106.745-104.987h252.665c72.911 0 132.228 58.274 132.228 129.9 0.004 71.436-58.993 129.584-131.632 129.904zM891.772 69.834h-252.665c-28.053 0-50.877 22.034-50.877 49.119s22.824 49.123 50.877 49.123c1.643 0 3.59-0.138 6.123-0.428 8.596-0.987 17.196 2.060 23.241 8.28 6.045 6.216 8.857 14.891 7.617 23.472-0.626 4.313-0.942 8.503-0.942 12.455 0 47.074 39.465 85.37 87.97 85.37 38.653 0 73.321-25.096 84.32-61.030 4.108-13.419 17.543-21.714 31.368-19.368 4.235 0.715 8.6 1.080 12.969 1.080 42.106 0 76.36-33.212 76.36-74.032 0-40.825-34.258-74.040-76.36-74.040z" />
<glyph unicode="&#xe913;" glyph-name="pour-rain" d="M958.448 349.707c0 117.706-182.871 385.82-203.723 416.009-7.53 10.902-19.938 17.41-33.196 17.41-13.252 0-25.66-6.508-33.19-17.415-7.040-10.197-32.572-47.561-63.293-97.091-82.666 144.964-170.549 272.518-171.55 273.971-7.535 10.902-19.943 17.41-33.196 17.41s-25.66-6.508-33.19-17.415c-32.916-47.658-321.564-470.863-321.564-651.847 0-195.602 159.142-354.733 354.754-354.733 126.344 0 244.131 68.688 307.112 177.025 127.925 3.136 231.035 108.058 231.035 236.677zM420.306 16.676c-151.128 0-274.078 122.94-274.078 274.057 0 117.282 174.976 406.634 273.987 556.611 37.568-57.054 100.942-156.307 157.291-258.943-47.862-84.984-92.821-180.327-92.821-238.694 0-102.050 64.88-189.228 155.56-222.462-51.224-68.403-132.949-110.569-219.939-110.569zM721.535 193.55c-86.114 0-156.173 70.054-156.173 156.157 0 42.151 42.323 129.63 91.976 215.685 0.904 1.355 1.7 2.77 2.431 4.217 20.26 34.933 41.629 69.505 61.776 100.582 70.575-108.794 156.227-260.471 156.227-320.483 0-86.103-70.086-156.157-156.237-156.157z" />
<glyph unicode="&#xe914;" glyph-name="puddles" d="M836.027 593.827c-22.876 64.828-158.079 94.583-284.488 94.583-133.945 0-277.766-33.417-287.37-106.555-129.205-9.978-264.169-47.894-264.169-127.803 0-51.582 60.244-92.486 166.799-114.42-0.012-0.481-0.016-0.962-0.016-1.447 0-89.731 175.063-130.603 337.722-130.603 159.004 0 329.861 39.050 337.455 124.625 114.642 23.71 182.040 71.394 182.040 130.22 0 59.755-69.754 108.109-187.973 131.4zM801.109 387.452c-10.069-1.595-18.703-8.058-23.057-17.272-4.362-9.214-3.881-19.985 1.27-28.78 0.785-1.336 1.233-2.508 1.233-3.211 0-3.754-12.203-22.892-68.582-41.221-54.965-17.868-128.645-27.707-207.469-27.707s-152.504 9.843-207.469 27.707c-56.375 18.329-68.582 37.467-68.582 41.221 0 1.003 0.851 3.125 3.236 6.077 6.948 8.589 8.774 20.236 4.782 30.539s-13.189 17.679-24.109 19.344c-113.594 17.284-150.691 50.43-150.691 59.903 0 3.507 9.871 20.166 58.168 37.644 47.318 17.124 112.611 28.011 183.853 30.655 11.602 0.432 21.984 7.347 26.852 17.889 4.868 10.546 3.396 22.929-3.803 32.040-0.625 0.793-0.999 1.394-1.217 1.788 6.739 15.2 83.095 52.667 226.011 52.667 143.607 0 220.001-37.825 226.094-52.885-1.694-8.112-0.053-16.573 4.572-23.476 4.761-7.104 12.26-11.911 20.709-13.272 108.75-17.519 159.415-54.916 159.415-74.679 0.004-19.953-51.232-57.588-161.216-74.971zM579.443 543.606c-8.169 10.895-23.632 13.107-34.532 4.934l-215.47-161.607c-10.899-8.173-13.107-23.636-4.934-34.532 4.847-6.463 12.252-9.867 19.755-9.867 5.147 0 10.344 1.608 14.78 4.934l215.47 161.607c10.899 8.173 13.107 23.632 4.93 34.532zM695.389 548.54l-215.47-161.607c-10.899-8.173-13.107-23.636-4.934-34.532 4.847-6.463 12.252-9.867 19.755-9.867 5.147 0 10.344 1.608 14.78 4.934l215.47 161.607c10.899 8.173 13.107 23.636 4.934 34.532s-23.636 13.107-34.536 4.934z" />
<glyph unicode="&#xe915;" glyph-name="rainbow" d="M512.004 720.222c-282.32 0-512.004-229.68-512.004-511.996 0-17.92 14.524-32.449 32.449-32.449s32.449 14.528 32.449 32.449c0 246.531 200.571 447.098 447.107 447.098 246.527 0 447.098-200.567 447.098-447.098 0-17.92 14.524-32.449 32.449-32.449s32.449 14.528 32.449 32.449c0 282.316-229.68 511.996-511.996 511.996zM512.004 360.558c-83.999 0-152.34-68.337-152.34-152.331 0-17.92 14.524-32.449 32.449-32.449s32.449 14.528 32.449 32.449c0 48.21 39.224 87.434 87.442 87.434s87.442-39.224 87.442-87.434c0-17.92 14.524-32.449 32.449-32.449s32.449 14.528 32.449 32.449c0 83.994-68.341 152.331-152.34 152.331zM512.004 540.396c-183.162 0-332.17-149.008-332.17-332.166 0-17.92 14.524-32.449 32.449-32.449s32.449 14.528 32.449 32.449c0 147.373 119.9 267.268 267.273 267.268s267.264-119.895 267.264-267.268c0-17.92 14.524-32.449 32.449-32.449s32.449 14.528 32.449 32.449c0 183.153-149.004 332.166-332.161 332.166z" />
<glyph unicode="&#xe916;" glyph-name="rainy-day" d="M755.084 790.249c-5.23 0-10.468-0.158-15.703-0.473-42.943 101.453-145.978 170.225-259.609 170.225-154.899 0-280.918-123.525-280.918-275.355 0-0.535 0-1.065 0.004-1.6-103.899-7.812-186.015-93.268-186.015-197.189 0-109.045 90.414-197.763 201.546-197.763h540.689c141.196 0 256.071 112.636 256.071 251.078 0.004 138.447-114.871 251.078-256.067 251.078zM755.084 353.848h-540.689c-74.874 0-135.79 59.22-135.79 132.007 0 72.792 60.916 132.016 135.79 132.016 4.62 0 9.758-0.351 16.163-1.096 10.148-1.201 20.27 2.411 27.394 9.741 7.124 7.325 10.429 17.548 8.956 27.661-1.521 10.429-2.293 20.682-2.293 30.471-0.004 115.568 96.517 209.595 215.158 209.595 94.426 0 179.198-61.53 206.154-149.625 4.831-15.777 20.604-25.548 36.876-22.804 10.609 1.78 21.467 2.678 32.277 2.678 104.938 0 190.315-83.137 190.315-185.322 0.004-102.189-85.373-185.322-190.311-185.322zM173.6 97.497l94.189 94.189c12.84 12.84 12.84 33.658 0 46.494-12.84 12.84-33.658 12.84-46.494 0l-94.189-94.189c-12.84-12.84-12.84-33.658 0-46.498 6.418-6.418 14.835-9.631 23.247-9.631 8.412 0.009 16.825 3.218 23.247 9.635zM374.542 97.497l94.18 94.189c12.84 12.84 12.836 33.658-0.004 46.498-12.844 12.84-33.658 12.836-46.498-0.004l-94.18-94.189c-12.84-12.84-12.836-33.658 0-46.498 6.422-6.418 14.835-9.627 23.247-9.627 8.421 0.004 16.838 3.213 23.256 9.631zM575.474 97.497l94.18 94.189c12.84 12.84 12.836 33.658 0 46.498-12.844 12.84-33.658 12.836-46.498-0.004l-94.18-94.189c-12.84-12.84-12.836-33.658 0-46.498 6.422-6.418 14.835-9.627 23.247-9.627 8.417 0.004 16.834 3.213 23.251 9.631zM824.098 238.184l-94.189-94.189c-12.84-12.84-12.84-33.658 0-46.498 6.418-6.418 14.835-9.631 23.247-9.631s16.829 3.209 23.247 9.631l94.189 94.189c12.84 12.84 12.84 33.658 0 46.494-12.836 12.844-33.654 12.844-46.494 0.004zM235.091 86.318l-94.18-94.189c-12.84-12.84-12.836-33.658 0-46.498 6.422-6.418 14.835-9.627 23.247-9.627 8.417 0 16.829 3.209 23.251 9.631l94.18 94.189c12.84 12.84 12.836 33.658-0.004 46.498-12.836 12.836-33.654 12.836-46.494-0.004zM436.615 86.318l-94.18-94.189c-12.84-12.84-12.836-33.658 0.004-46.498 6.422-6.418 14.835-9.627 23.247-9.627s16.829 3.209 23.251 9.631l94.18 94.189c12.84 12.84 12.836 33.658 0 46.498-12.849 12.836-33.663 12.836-46.503-0.004zM638.14 86.318l-94.18-94.189c-12.84-12.84-12.836-33.658 0-46.498 6.422-6.418 14.835-9.627 23.247-9.627s16.829 3.209 23.251 9.631l94.18 94.189c12.84 12.84 12.836 33.658-0.004 46.498-12.84 12.836-33.654 12.836-46.494-0.004z" />
<glyph unicode="&#xe917;" glyph-name="sleet" d="M870.447 116.024c0-26.073-21.136-47.209-47.209-47.209s-47.209 21.136-47.209 47.209c0 26.073 21.136 47.209 47.209 47.209s47.209-21.136 47.209-47.209zM664.451 116.024c0-26.073-21.136-47.209-47.209-47.209s-47.209 21.136-47.209 47.209c0 26.073 21.136 47.209 47.209 47.209s47.209-21.136 47.209-47.209zM457.021 116.024c0-26.073-21.136-47.209-47.209-47.209s-47.209 21.136-47.209 47.209c0 26.073 21.136 47.209 47.209 47.209s47.209-21.136 47.209-47.209zM251.029 116.024c0-26.073-21.136-47.209-47.209-47.209s-47.209 21.136-47.209 47.209c0 26.073 21.136 47.209 47.209 47.209s47.209-21.136 47.209-47.209zM767.867-13.441c0-26.070-21.134-47.205-47.205-47.205s-47.205 21.134-47.205 47.205c0 26.070 21.134 47.205 47.205 47.205s47.205-21.134 47.205-47.205zM560.437-13.441c0-26.070-21.134-47.205-47.205-47.205s-47.205 21.134-47.205 47.205c0 26.070 21.134 47.205 47.205 47.205s47.205-21.134 47.205-47.205zM354.445-13.441c0-26.070-21.134-47.205-47.205-47.205s-47.205 21.134-47.205 47.205c0 26.070 21.134 47.205 47.205 47.205s47.205-21.134 47.205-47.205zM761.338 782.526c-5.364 0-10.738-0.162-16.107-0.486-44.048 104.064-149.735 174.606-266.29 174.606-158.886 0-288.148-126.704-288.148-282.442 0-0.544 0-1.093 0.004-1.641-106.568-8.013-190.798-95.669-190.798-202.264 0-111.856 92.741-202.853 206.738-202.853h554.605c144.829 0 262.662 115.534 262.662 257.54s-117.832 257.54-262.666 257.54zM761.338 334.889h-554.6c-76.806 0-139.29 60.744-139.29 135.409s62.484 135.414 139.29 135.414c4.739 0 10.009-0.36 16.579-1.124 10.419-1.223 20.792 2.478 28.094 9.991 7.307 7.514 10.697 18 9.186 28.373-1.56 10.697-2.352 21.215-2.352 31.256 0 118.547 99.005 214.994 220.7 214.994 96.856 0 183.815-63.114 211.459-153.476 4.955-16.188 21.147-26.215 37.825-23.391 10.882 1.826 22.020 2.747 33.108 2.747 107.638 0 195.213-85.277 195.213-190.092 0-104.824-87.57-190.101-195.213-190.101z" />
<glyph unicode="&#xe918;" glyph-name="smog" d="M289.41 115.368c0.794 4.625 6.627 10.829 16.014 17.015 12.2 8.042 15.565 24.449 7.527 36.65s-24.445 15.573-36.654 7.527c-22.505-14.837-35.644-32.426-39.040-52.263-5.432-31.764 14.736-58.352 32.527-81.814 10.741-14.154 24.097-31.769 22.531-40.913-0.794-4.625-6.632-10.829-16.014-17.015-12.2-8.042-15.569-24.449-7.531-36.65 5.084-7.712 13.514-11.896 22.117-11.896 4.996 0 10.049 1.415 14.533 4.37 22.514 14.842 35.653 32.426 39.048 52.267 5.437 31.764-14.736 58.356-32.527 81.818-10.737 14.145-24.097 31.755-22.531 40.905zM436.833 115.368c0.794 4.625 6.627 10.829 16.014 17.015 12.2 8.042 15.565 24.449 7.527 36.65s-24.445 15.573-36.654 7.527c-22.505-14.837-35.644-32.426-39.040-52.263-5.432-31.764 14.736-58.352 32.527-81.814 10.741-14.154 24.097-31.769 22.531-40.913-0.794-4.625-6.632-10.829-16.014-17.015-12.2-8.042-15.569-24.449-7.531-36.65 5.084-7.712 13.514-11.896 22.117-11.896 4.996 0 10.049 1.415 14.533 4.37 22.514 14.842 35.653 32.426 39.048 52.267 5.437 31.764-14.736 58.356-32.527 81.818-10.737 14.145-24.092 31.755-22.531 40.905zM584.252 115.368c0.794 4.625 6.627 10.829 16.014 17.015 12.2 8.042 15.565 24.449 7.527 36.65s-24.44 15.573-36.654 7.527c-22.505-14.837-35.644-32.426-39.040-52.263-5.432-31.764 14.736-58.352 32.527-81.814 10.741-14.154 24.097-31.769 22.531-40.913-0.794-4.625-6.632-10.829-16.014-17.015-12.2-8.042-15.569-24.449-7.531-36.65 5.084-7.712 13.514-11.896 22.117-11.896 4.996 0 10.049 1.415 14.533 4.37 22.514 14.842 35.653 32.426 39.048 52.267 5.437 31.764-14.736 58.356-32.527 81.818-10.737 14.145-24.092 31.755-22.531 40.905zM731.68 115.368c0.794 4.625 6.627 10.829 16.014 17.015 12.2 8.042 15.565 24.449 7.527 36.65s-24.445 15.573-36.654 7.527c-22.505-14.837-35.644-32.426-39.040-52.263-5.432-31.764 14.736-58.352 32.527-81.814 10.741-14.154 24.097-31.769 22.531-40.913-0.794-4.625-6.632-10.829-16.014-17.015-12.2-8.042-15.569-24.449-7.531-36.65 5.084-7.712 13.514-11.896 22.117-11.896 4.996 0 10.049 1.415 14.533 4.37 22.514 14.842 35.653 32.426 39.048 52.267 5.437 31.764-14.736 58.356-32.527 81.818-10.741 14.145-24.097 31.755-22.531 40.905zM756.495 789.269c-5.26 0-10.529-0.159-15.785-0.476-43.193 102.048-146.828 171.207-261.129 171.207-155.801 0-282.554-124.239-282.554-276.945 0-0.538 0-1.071 0.004-1.609-104.499-7.857-187.089-93.816-187.089-198.346 0-109.685 90.936-198.915 202.715-198.915h543.837c142.022 0 257.562 113.291 257.562 252.54 0 139.253-115.54 252.544-257.562 252.544zM756.495 350.32h-543.837c-75.306 0-136.577 59.565-136.577 132.776 0 73.22 61.271 132.793 136.577 132.793 4.661 0 9.824-0.353 16.252-1.102 10.199-1.204 20.393 2.421 27.553 9.797 7.165 7.368 10.494 17.65 9.013 27.822-1.534 10.494-2.31 20.803-2.31 30.649 0 116.241 97.087 210.806 216.415 210.806 94.984 0 180.255-61.888 207.363-150.497 4.863-15.882 20.759-25.679 37.117-22.933 10.635 1.79 21.548 2.698 32.43 2.698 105.549 0 191.423-83.621 191.423-186.41 0.004-102.784-85.87-186.401-191.419-186.401z" />
<glyph unicode="&#xe919;" glyph-name="snow-cloud" d="M870.447 51.292c0-26.073-21.136-47.209-47.209-47.209s-47.209 21.136-47.209 47.209c0 26.073 21.136 47.209 47.209 47.209s47.209-21.136 47.209-47.209zM664.451 51.292c0-26.073-21.136-47.209-47.209-47.209s-47.209 21.136-47.209 47.209c0 26.073 21.136 47.209 47.209 47.209s47.209-21.136 47.209-47.209zM457.021 51.292c0-26.073-21.136-47.209-47.209-47.209s-47.209 21.136-47.209 47.209c0 26.073 21.136 47.209 47.209 47.209s47.209-21.136 47.209-47.209zM251.029 51.292c0-26.073-21.136-47.209-47.209-47.209s-47.209 21.136-47.209 47.209c0 26.073 21.136 47.209 47.209 47.209s47.209-21.136 47.209-47.209zM761.338 717.798c-5.364 0-10.742-0.162-16.102-0.486-44.053 104.064-149.74 174.601-266.295 174.601-158.886 0-288.148-126.704-288.148-282.442 0-0.544 0-1.093 0.004-1.641-106.573-8.013-190.798-95.669-190.798-202.264 0-111.856 92.741-202.853 206.738-202.853h554.605c144.834 0 262.662 115.534 262.662 257.54-0.004 142.010-117.832 257.545-262.666 257.545zM761.338 270.161h-554.6c-76.801 0-139.29 60.744-139.29 135.405 0 74.665 62.484 135.414 139.29 135.414 4.739 0 10.009-0.36 16.579-1.124 10.383-1.219 20.792 2.473 28.094 9.991 7.307 7.514 10.702 18 9.191 28.373-1.565 10.697-2.352 21.215-2.352 31.256 0 118.547 99.010 214.994 220.7 214.994 96.856 0 183.81-63.114 211.459-153.476 4.955-16.188 21.161-26.197 37.825-23.391 10.882 1.826 22.024 2.747 33.108 2.747 107.638 0 195.213-85.277 195.213-190.092-0.004-104.819-87.575-190.096-195.218-190.096z" />
<glyph unicode="&#xe91a;" glyph-name="sun-eclipse" d="M513.437 105.24c-19.298 0-34.944-15.646-34.944-34.944v-99.352c0-19.298 15.646-34.944 34.944-34.944 19.303 0 34.944 15.646 34.944 34.944v99.352c0 19.298-15.641 34.944-34.944 34.944zM513.437 790.751c19.303 0 34.944 15.646 34.944 34.944v99.362c0 19.298-15.641 34.944-34.944 34.944-19.298 0-34.944-15.646-34.944-34.944v-99.362c0-19.298 15.646-34.944 34.944-34.944zM221.717 205.65l-70.279-70.242c-13.651-13.642-13.656-35.769-0.014-49.415 6.826-6.826 15.771-10.241 24.717-10.241 8.941 0 17.877 3.411 24.703 10.227l70.279 70.242c13.651 13.642 13.656 35.769 0.014 49.415-13.647 13.647-35.769 13.651-49.42 0.014zM170.726 447.988c0 19.298-15.646 34.944-34.944 34.944h-99.357c-19.298 0-34.944-15.646-34.944-34.944s15.646-34.944 34.944-34.944h99.352c19.303 0 34.949 15.646 34.949 34.944zM221.707 690.382c6.821-6.821 15.767-10.236 24.708-10.236s17.887 3.411 24.708 10.236c13.647 13.647 13.647 35.773 0 49.415l-70.237 70.247c-13.647 13.647-35.773 13.647-49.415 0-13.647-13.647-13.647-35.773 0-49.415l70.237-70.247zM750.52 719.978c-42.431 0-82.621-9.784-118.45-27.191-36.789 17.826-77.398 27.191-118.595 27.191-149.965 0-271.971-122.015-271.971-271.989 0-149.97 122.005-271.98 271.971-271.98 41.201 0 81.811 9.37 118.6 27.191 35.824-17.407 76.010-27.191 118.446-27.191 149.979 0 271.998 122.010 271.998 271.98 0 149.974-122.019 271.989-271.998 271.989zM513.475 245.896c-111.429 0-202.083 90.658-202.083 202.092 0 111.438 90.654 202.101 202.083 202.101 16.54 0 32.926-2.106 48.824-6.052-51.559-49.527-83.753-119.079-83.753-196.049s32.19-146.517 83.749-196.044c-15.892-3.937-32.279-6.048-48.819-6.048zM750.52 245.896c-111.429 0-202.083 90.658-202.083 202.092 0 111.438 90.654 202.101 202.083 202.101 111.443 0 202.111-90.663 202.111-202.101 0-111.429-90.668-202.092-202.111-202.092z" />
<glyph unicode="&#xe91b;" glyph-name="sunny-day" d="M511.944 105.246c-19.298 0-34.943-15.645-34.943-34.943v-99.35c0-19.298 15.645-34.943 34.943-34.943 19.303 0 34.943 15.645 34.943 34.943v99.35c0 19.303-15.645 34.943-34.943 34.943zM511.944 790.74c19.303 0 34.943 15.645 34.943 34.943v99.359c0 19.298-15.641 34.943-34.943 34.943-19.298 0-34.943-15.645-34.943-34.943v-99.359c0-19.298 15.645-34.943 34.943-34.943zM220.23 205.653l-70.278-70.24c-13.651-13.642-13.656-35.768-0.014-49.414 6.826-6.826 15.771-10.241 24.716-10.241 8.941 0 17.877 3.41 24.702 10.227l70.278 70.24c13.651 13.642 13.656 35.768 0.014 49.414-13.651 13.651-35.772 13.651-49.419 0.014zM779.035 680.143c8.941 0 17.882 3.41 24.707 10.231l70.268 70.24c13.646 13.646 13.651 35.768 0.009 49.419-13.646 13.651-35.768 13.656-49.419 0.005l-70.268-70.24c-13.646-13.642-13.651-35.768-0.009-49.414 6.821-6.83 15.766-10.241 24.712-10.241zM169.236 447.991c0 19.298-15.645 34.943-34.943 34.943h-99.35c-19.298 0-34.943-15.645-34.943-34.943s15.645-34.943 34.943-34.943h99.35c19.298 0 34.943 15.645 34.943 34.943zM989.057 482.934h-99.397c-19.303 0-34.943-15.645-34.943-34.943s15.641-34.943 34.943-34.943h99.397c19.303 0 34.943 15.645 34.943 34.943 0 19.293-15.641 34.943-34.943 34.943zM220.221 690.375c6.821-6.821 15.766-10.231 24.707-10.231s17.886 3.41 24.707 10.231c13.646 13.646 13.646 35.772 0 49.419l-70.24 70.24c-13.646 13.646-35.772 13.646-49.414 0-13.646-13.646-13.646-35.772 0-49.414l70.24-70.245zM803.784 205.644c-13.646 13.646-35.772 13.651-49.419 0.005-13.651-13.646-13.651-35.772-0.005-49.414l70.231-70.24c6.826-6.826 15.766-10.236 24.712-10.236 8.941 0 17.886 3.41 24.707 10.231 13.651 13.646 13.651 35.772 0.005 49.414l-70.231 70.24zM511.981 719.974c-149.962 0-271.964-122.012-271.964-271.983 0-149.966 122.003-271.974 271.964-271.974 149.976 0 271.988 122.007 271.988 271.974 0 149.971-122.017 271.983-271.988 271.983zM511.981 245.903c-111.426 0-202.078 90.656-202.078 202.087 0 111.436 90.652 202.097 202.078 202.097 111.44 0 202.101-90.661 202.101-202.097 0-111.431-90.661-202.087-202.101-202.087z" />
<glyph unicode="&#xe91c;" glyph-name="temperature" d="M663.395 365.754v442.868c0 83.474-67.921 151.378-151.412 151.378-83.468 0-151.384-67.904-151.384-151.378v-442.868c-56.917-45.736-90.261-114.453-90.261-188.098 0-133.251 108.399-241.661 241.644-241.661 133.257 0 241.678 108.405 241.678 241.661 0 73.646-33.35 142.363-90.266 188.098zM511.983 21.264c-86.231 0-156.38 70.161-156.38 156.397 0 52.756 26.54 101.652 70.991 130.778 12.022 7.884 19.27 21.288 19.27 35.657v464.525c0 36.453 29.661 66.114 66.12 66.114 36.476 0 66.148-29.661 66.148-66.114v-464.531c0-14.376 7.242-27.785 19.27-35.657 44.457-29.126 70.997-78.017 70.997-130.778 0-86.236-70.167-156.392-156.414-156.392z" />
<glyph unicode="&#xe91d;" glyph-name="windy-day" d="M786.742 546.335c-108.401 0-196.588-88.183-196.588-196.579 0-90.455 73.589-164.044 164.035-164.044 18.709 0 33.877 15.163 33.877 33.877s-15.168 33.877-33.877 33.877c-53.091 0-96.282 43.195-96.282 96.291 0 71.037 57.794 128.826 128.835 128.826 93.468 0 169.505-76.037 169.505-169.496 0-121.509-98.852-220.365-220.356-220.365h-702.014c-18.709 0-33.877-15.163-33.877-33.877s15.168-33.877 33.877-33.877h702.014c158.863 0 288.109 129.251 288.109 288.118 0 130.818-106.431 237.249-237.258 237.249zM33.877 275.376h315.68c106.3 0 192.781 86.48 192.781 192.781 0 88.766-72.22 160.986-160.995 160.986-74.754 0-135.57-60.815-135.57-135.57 0-63.534 51.691-115.226 115.226-115.226 18.709 0 33.877 15.163 33.877 33.877s-15.168 33.877-33.877 33.877c-26.175 0-47.472 21.297-47.472 47.472 0 37.391 30.421 67.816 67.816 67.816 51.411 0 93.242-41.826 93.242-93.233 0-68.941-56.086-125.027-125.027-125.027h-315.68c-18.709 0-33.877-15.163-33.877-33.877s15.168-33.877 33.877-33.877zM589.011 601.807h236.766c81.905 0 148.538 66.633 148.538 148.538 0 68.756-55.942 124.689-124.698 124.689-58.245 0-105.627-47.382-105.627-105.627 0-49.83 40.539-90.374 90.365-90.374 16.216 0 29.36 13.144 29.36 29.36s-13.144 29.36-29.36 29.36c-17.449 0-31.645 14.201-31.645 31.654 0 25.868 21.044 46.908 46.908 46.908 36.383 0 65.978-29.595 65.978-65.969 0-49.528-40.291-89.818-89.818-89.818h-236.766c-16.216 0-29.36-13.144-29.36-29.36s13.149-29.36 29.36-29.36z" />
</font>
</defs>
</svg>
