<?xml version="1.0" encoding="UTF-8"?>
<svg width="206px" height="199px" viewBox="0 0 206 199" version="1.1" xmlns="http://www.w3.org/2000/svg" xmlns:xlink="http://www.w3.org/1999/xlink">
    <!-- Generator: Sketch 48.1 (47250) - http://www.bohemiancoding.com/sketch -->
    <title>Group 5</title>
    <desc>Created with Sketch.</desc>
    <defs>
        <path d="M0.946,100.102 C0.951,99.982 0.954,99.861 0.954,99.74 L0.954,0.638 L0.957,0.635 L0.957,99.682 C0.957,99.823 0.953,99.963 0.946,100.102" id="path-1"></path>
        <path d="M44.275,107.356 L9.244,107.356 L0.024,96.22 L34.248,96.22 C37.765,96.22 40.648,93.341 40.648,89.822 L40.648,13.058 L51.954,0.638 L51.954,99.74 C51.954,99.861 51.951,99.982 51.946,100.102 C51.725,104.133 48.352,107.356 44.275,107.356" id="path-3"></path>
        <path d="M46.248,83.22 L12.024,83.22 L0.362,69.136 L0.208,67.796 L4.338,63.669 L2.416,61.749 L18.627,37.434 L29.17,25.852 L38.251,25.852 L38.251,19.147 L35.273,19.147 L52.648,0.058 L52.648,76.822 C52.648,80.341 49.765,83.22 46.248,83.22" id="path-5"></path>
        <polyline id="path-7" points="9.251 6.852 0.17 6.852 6.273 0.147 9.251 0.147 9.251 6.852"></polyline>
    </defs>
    <g id="Symbols" stroke="none" stroke-width="1" fill="none" fill-rule="evenodd">
        <g id="Group-5">
            <path d="M78.841,22.036 C74.65,22.036 67.796,22.036 63.609,22.036 L8.105,22.036 C3.916,22.036 0.488,25.466 0.488,29.654 L0.488,190.74 C0.488,194.931 3.916,198.356 8.105,198.356 L63.609,198.356 C67.796,198.356 74.65,198.356 78.841,198.356 L134.341,198.356 C138.527,198.356 141.954,194.931 141.954,190.74 L141.954,29.654 C141.954,25.466 138.527,22.036 134.341,22.036 L78.841,22.036" id="Fill-10" fill="#6DC0AB"></path>
            <path d="M124.255,32.904 L18.185,32.907 C14.671,32.907 11.787,35.784 11.787,39.303 L11.787,180.822 C11.787,184.341 14.671,187.22 18.185,187.22 L124.248,187.22 C127.765,187.22 130.648,184.341 130.648,180.822 L130.648,64.796 L130.65,39.296 C130.65,35.782 127.772,32.904 124.255,32.904" id="Fill-11" fill="#F4F4F1"></path>
            <path d="M84.619,14.042 C84.589,6.658 78.607,0.689 71.22,0.689 C63.832,0.689 57.85,6.658 57.818,14.042 L28.469,14.042 L28.469,40.848 L113.974,40.848 L113.974,14.042 L84.619,14.042" id="Fill-12" fill="#E07253"></path>
            <polygon id="Fill-13" fill="#D9DAD5" points="26.188 92.641 116.251 92.641 116.251 85.937 26.188 85.937"></polygon>
            <polygon id="Fill-14" fill="#D9DAD5" points="26.188 111.247 116.251 111.247 116.251 104.54 26.188 104.54"></polygon>
            <polygon id="Fill-15" fill="#D9DAD5" points="26.188 129.852 116.251 129.852 116.251 123.147 26.188 123.147"></polygon>
            <g id="Group-18" transform="translate(141.000000, 91.000000)">
                <mask id="mask-2" fill="white">
                    <use xlink:href="#path-1"></use>
                </mask>
                <g id="Clip-17"></g>
                <path d="M0.946,100.102 C0.951,99.982 0.954,99.861 0.954,99.74 L0.954,0.638 L0.957,0.635 L0.957,99.682 C0.957,99.823 0.953,99.963 0.946,100.102" id="Fill-16" mask="url(#mask-2)"></path>
            </g>
            <g id="Group-21" transform="translate(90.000000, 91.000000)">
                <mask id="mask-4" fill="white">
                    <use xlink:href="#path-3"></use>
                </mask>
                <g id="Clip-20"></g>
                <path d="M44.275,107.356 L9.244,107.356 L0.024,96.22 L34.248,96.22 C37.765,96.22 40.648,93.341 40.648,89.822 L40.648,13.058 L51.954,0.638 L51.954,99.74 C51.954,99.861 51.951,99.982 51.946,100.102 C51.725,104.133 48.352,107.356 44.275,107.356" id="Fill-19" mask="url(#mask-4)"></path>
            </g>
            <g id="Group-24" transform="translate(78.000000, 104.000000)">
                <mask id="mask-6" fill="white">
                    <use xlink:href="#path-5"></use>
                </mask>
                <g id="Clip-23"></g>
                <path d="M46.248,83.22 L12.024,83.22 L0.362,69.136 L0.208,67.796 L4.338,63.669 L2.416,61.749 L18.627,37.434 L29.17,25.852 L38.251,25.852 L38.251,19.147 L35.273,19.147 L52.648,0.058 L52.648,76.822 C52.648,80.341 49.765,83.22 46.248,83.22" id="Fill-22" mask="url(#mask-6)"></path>
            </g>
            <g id="Group-27" transform="translate(107.000000, 123.000000)">
                <mask id="mask-8" fill="white">
                    <use xlink:href="#path-7"></use>
                </mask>
                <g id="Clip-26"></g>
                <polyline id="Fill-25" mask="url(#mask-8)" points="9.251 6.852 0.17 6.852 6.273 0.147 9.251 0.147 9.251 6.852"></polyline>
            </g>
            <path d="M152.757,144.492 C150.171,140.716 148.069,134.739 149.92,129.286 C150.673,127.082 151.818,124.874 153.237,122.897 C154.43,121.234 155.831,119.643 157.521,118.034 C163.458,112.38 170.942,108.671 176.956,105.69 C180.262,104.049 183.01,102.461 185.357,100.838 C190.223,97.472 193.579,93.105 195.062,88.201 C195.912,85.405 196.102,82.52 195.628,79.625 C195.031,76.012 193.968,72.783 192.708,70.768 L196.384,68.469 C198.51,71.87 199.503,76.478 199.902,78.923 C200.479,82.428 200.24,86.073 199.212,89.461 C197.442,95.308 193.503,100.476 187.821,104.403 C185.304,106.148 182.38,107.839 178.881,109.572 C171.568,113.199 165.569,116.356 160.51,121.174 C159.021,122.594 157.792,123.984 156.759,125.423 C155.602,127.036 154.633,128.904 154.026,130.681 C152.688,134.623 154.433,139.266 156.332,142.041 L152.757,144.492" id="Fill-28" fill="#E07253"></path>
            <path d="M81.835,167.201 L78.362,170.671 C77.681,171.351 77.681,172.452 78.362,173.136 C78.699,173.475 79.146,173.644 79.593,173.644 C80.038,173.644 80.484,173.475 80.824,173.136 L84.296,169.666 L81.835,167.201" id="Fill-29" fill="#E07253"></path>
            <polyline id="Fill-30" fill="#F7C238" points="147.573 86.017 165.482 103.929 158.996 110.406 141.087 92.503 147.573 86.017"></polyline>
            <polyline id="Fill-31" fill="#3B3E41" points="78.984 165 86.504 172.52 110.059 154.872 96.627 141.434 78.984 165"></polyline>
            <path d="M201.772,49.723 C198.336,46.286 193.388,44.983 188.014,45.575 L147.573,86.017 L165.479,103.924 L205.92,63.481 C206.517,58.111 205.212,53.158 201.772,49.723" id="Fill-32" fill="#3B3E41"></path>
            <polyline id="Fill-33" fill="#595D64" points="141.087 92.503 96.627 141.434 110.059 154.872 158.996 110.406 141.087 92.503"></polyline>
            <g id="Group-37" transform="translate(65.000000, 8.000000)" fill="#F7C238">
                <path d="M12.035,6.481 C12.035,9.693 9.434,12.296 6.223,12.296 C3.01,12.296 0.405,9.693 0.405,6.481 C0.405,3.27 3.01,0.665 6.223,0.665 C9.434,0.665 12.035,3.27 12.035,6.481" id="Fill-34"></path>
            </g>
        </g>
    </g>
</svg>