<?xml version="1.0" encoding="utf-8"?>
<!-- Generator: Adobe Illustrator 19.0.1, SVG Export Plug-In . SVG Version: 6.00 Build 0)  -->
<!DOCTYPE svg PUBLIC "-//W3C//DTD SVG 1.1//EN" "http://www.w3.org/Graphics/SVG/1.1/DTD/svg11.dtd">
<svg version="1.1" id="Layer_1" xmlns="http://www.w3.org/2000/svg" xmlns:xlink="http://www.w3.org/1999/xlink" x="0px" y="0px"
	 viewBox="0 0 149 98" style="enable-background:new 0 0 149 98;" xml:space="preserve">
<style type="text/css">
	.st0{fill:#C25929;}
	.st1{fill:url(#SVGID_1_);}
	.st2{fill:url(#SVGID_2_);}
	.st3{fill:url(#SVGID_3_);}
	.st4{fill:#BFC9C8;}
	.st5{fill:url(#SVGID_4_);}
	.st6{fill:url(#SVGID_5_);}
	.st7{opacity:0.4;fill:#7B7B7B;}
	.st8{fill:url(#SVGID_6_);}
	.st9{fill:#FFFFFF;}
	.st10{fill:#CFD0D0;}
	.st11{fill:#F4783F;}
	.st12{fill:url(#SVGID_7_);}
	.st13{fill:url(#SVGID_8_);}
	.st14{fill:url(#SVGID_9_);}
	.st15{fill:url(#SVGID_10_);}
	.st16{fill:url(#SVGID_11_);}
	.st17{fill:#D95E27;}
	.st18{fill:#F68E60;}
	.st19{fill:#F58756;}
	.st20{fill:#C6972C;}
	.st21{fill:#DAA628;}
	.st22{fill:url(#SVGID_12_);}
	.st23{fill:#B0B9C2;}
	.st24{fill:#DCDBDB;}
	.st25{fill:url(#SVGID_13_);}
	.st26{fill:#CDCCCC;}
	.st27{fill:url(#SVGID_14_);}
	.st28{fill:url(#SVGID_15_);}
	.st29{fill:#F3F3F3;}
	.st30{fill:#E0E0DF;}
	.st31{fill:url(#SVGID_16_);}
	.st32{fill:url(#SVGID_17_);}
	.st33{fill:url(#SVGID_18_);}
	.st34{fill:url(#SVGID_19_);}
	.st35{fill:url(#SVGID_20_);}
	.st36{fill:url(#SVGID_21_);}
	.st37{fill:url(#SVGID_22_);}
	.st38{fill:url(#SVGID_23_);}
	.st39{fill:url(#SVGID_24_);}
	.st40{fill:#E6E6E5;}
	.st41{opacity:0.2;fill:#7B7B7B;}
	.st42{fill:#E0E1E0;}
	.st43{fill:#30AC4A;}
	.st44{fill:#39B54A;}
	.st45{fill:#2A8C43;}
	.st46{fill:#2E9947;}
</style>
<g>
	<g>
		<rect x="14.3" y="21.1" class="st0" width="120.5" height="2"/>
		<linearGradient id="SVGID_1_" gradientUnits="userSpaceOnUse" x1="15.3287" y1="44.5882" x2="133.7454" y2="44.5882">
			<stop  offset="0" style="stop-color:#E6E6E5"/>
			<stop  offset="1" style="stop-color:#DCDBDB"/>
		</linearGradient>
		<rect x="15.3" y="23.2" class="st1" width="118.4" height="42.9"/>
		<linearGradient id="SVGID_2_" gradientUnits="userSpaceOnUse" x1="51.437" y1="20.7243" x2="73.4873" y2="80.7484">
			<stop  offset="0" style="stop-color:#E6E6E5"/>
			<stop  offset="1" style="stop-color:#DCDBDB"/>
		</linearGradient>
		<rect x="52.1" y="20.1" class="st2" width="24.5" height="71.5"/>
		<linearGradient id="SVGID_3_" gradientUnits="userSpaceOnUse" x1="1.037" y1="81.3382" x2="148.037" y2="81.3382">
			<stop  offset="0" style="stop-color:#C9C9C9"/>
			<stop  offset="1" style="stop-color:#D1D2D2"/>
		</linearGradient>
		<polygon class="st3" points="148,97.7 1,97.7 1,89.5 2.1,89.5 2.1,65 148,65 		"/>
		<rect x="0" y="93.6" class="st4" width="149" height="4.1"/>
		<linearGradient id="SVGID_4_" gradientUnits="userSpaceOnUse" x1="15.3287" y1="60.9216" x2="54.1204" y2="60.9216">
			<stop  offset="0" style="stop-color:#E6E6E5"/>
			<stop  offset="1" style="stop-color:#DCDBDB"/>
		</linearGradient>
		<rect x="15.3" y="59.9" class="st5" width="38.8" height="2"/>
		<g>
			<linearGradient id="SVGID_5_" gradientUnits="userSpaceOnUse" x1="29.1634" y1="32.4891" x2="34.0992" y2="53.3648">
				<stop  offset="0" style="stop-color:#FBF3F3"/>
				<stop  offset="1" style="stop-color:#EDE4E5"/>
			</linearGradient>
			<path class="st6" d="M38.8,53.8c-4.8,0-9.5,0-14.3,0c0-7.1,0-14.3,0-21.4c4.5-2.3,9.8-2.3,14.3,0C38.8,39.5,38.8,46.6,38.8,53.8z
				"/>
			<polygon class="st7" points="22.5,54.8 26.6,59.9 47,59.9 40.8,51.7 			"/>
			<linearGradient id="SVGID_6_" gradientUnits="userSpaceOnUse" x1="22.4745" y1="53.2653" x2="40.8495" y2="53.2653">
				<stop  offset="0" style="stop-color:#E6E6E5"/>
				<stop  offset="1" style="stop-color:#DCDBDB"/>
			</linearGradient>
			<rect x="22.5" y="51.7" class="st8" width="18.4" height="3.1"/>
		</g>
		<path class="st4" d="M26.6,34.1c3.8-1.9,8.2-2.2,12.3-0.8c0-0.3,0-0.6,0-0.9c-4.5-2.3-9.8-2.3-14.3,0c0,7.1,0,12.2,0,19.4
			c0.7,0,1.4,0,2,0C26.6,45.2,26.6,40.6,26.6,34.1z"/>
		<rect x="48" y="20.1" class="st9" width="7.1" height="34.7"/>
		<rect x="73.5" y="20.1" class="st10" width="7.1" height="71.5"/>
		<polygon class="st11" points="134.8,21.1 14.3,21.1 25.5,-0.1 123.5,-0.1 		"/>
		<linearGradient id="SVGID_7_" gradientUnits="userSpaceOnUse" x1="24.5162" y1="41.5257" x2="38.8079" y2="41.5257">
			<stop  offset="0" style="stop-color:#E6E6E5"/>
			<stop  offset="1" style="stop-color:#DCDBDB"/>
		</linearGradient>
		<rect x="24.5" y="40.5" class="st12" width="14.3" height="2"/>
		<g>
			<linearGradient id="SVGID_8_" gradientUnits="userSpaceOnUse" x1="103.9226" y1="31.3384" x2="109.3403" y2="54.2525">
				<stop  offset="0" style="stop-color:#FBF3F3"/>
				<stop  offset="1" style="stop-color:#EDE4E5"/>
			</linearGradient>
			<path class="st13" d="M118.4,53.8c-7.8,0-15.7,0-23.5,0c0-7.1,0-14.3,0-21.4c7.4-3.8,16.1-3.8,23.5,0
				C118.4,39.5,118.4,46.6,118.4,53.8z"/>
			<path class="st4" d="M97,34.1c6.7-3.4,14.5-3.7,21.4-0.9c0-0.3,0-0.6,0-0.9c-7.4-3.8-16.1-3.8-23.5,0c0,7.1,0,14.3,0,21.4
				c0.7,0,1.4,0,2,0C97,47.2,97,40.7,97,34.1z"/>
			<polygon class="st7" points="92.9,54.8 97,59.9 126.6,59.9 120.5,51.7 			"/>
			<linearGradient id="SVGID_9_" gradientUnits="userSpaceOnUse" x1="105.7659" y1="49.3429" x2="107.6364" y2="57.2543">
				<stop  offset="0" style="stop-color:#E6E6E5"/>
				<stop  offset="1" style="stop-color:#DCDBDB"/>
			</linearGradient>
			<rect x="92.9" y="51.7" class="st14" width="27.6" height="3.1"/>
			<linearGradient id="SVGID_10_" gradientUnits="userSpaceOnUse" x1="94.9537" y1="41.5257" x2="118.4329" y2="41.5257">
				<stop  offset="0" style="stop-color:#E6E6E5"/>
				<stop  offset="1" style="stop-color:#DCDBDB"/>
			</linearGradient>
			<rect x="95" y="40.5" class="st15" width="23.5" height="2"/>
			
				<linearGradient id="SVGID_11_" gradientUnits="userSpaceOnUse" x1="100.7752" y1="36.2963" x2="124.2544" y2="36.2963" gradientTransform="matrix(0 1 -1 0 143.5 -71.4995)">
				<stop  offset="0" style="stop-color:#E6E6E5"/>
				<stop  offset="1" style="stop-color:#DCDBDB"/>
			</linearGradient>
			<rect x="106.2" y="29.3" class="st16" width="2" height="23.5"/>
		</g>
		<polygon class="st7" points="80.7,20.1 111.3,59.9 80.7,59.9 		"/>
		<polygon class="st11" points="46,21.1 82.7,21.1 64.3,-0.3 		"/>
		<polygon class="st17" points="73.5,21.1 82.7,21.1 64.3,-0.3 		"/>
		<polygon class="st11" points="0,65 49,65 49,59.9 15.3,59.9 15.3,51.7 		"/>
		<rect x="0" y="65" class="st0" width="49" height="2"/>
		<polygon class="st17" points="149.1,65 80.7,65 80.7,59.9 133.7,59.9 133.7,51.7 		"/>
		<polygon class="st18" points="46,21.1 55.1,21.1 64.3,-0.3 		"/>
		<rect x="52.1" y="58.9" class="st4" width="24.5" height="32.7"/>
		<rect x="80.7" y="65" class="st0" width="68.4" height="2"/>
		<rect x="43.9" y="61.9" class="st0" width="40.8" height="2"/>
		<polygon class="st19" points="82.7,61.9 43.9,61.9 48,53.8 80.7,53.8 		"/>
		<polygon class="st17" points="84.7,61.9 73.5,61.9 73.5,53.8 80.7,53.8 		"/>
		<polygon class="st7" points="58.2,25.2 52.1,25.2 48,26.2 15.3,26.2 15.3,23.2 48,23.2 48,23.2 56.2,23.2 76.6,23.2 76.6,25.2 		
			"/>
		<polygon class="st7" points="76.6,23.2 80.7,23.2 80.7,23.2 133.7,23.2 133.7,26.2 80.7,26.2 76.6,25.2 76.6,25.2 		"/>
		<rect x="56.2" y="66" class="st20" width="16.3" height="25.5"/>
		<rect x="58.2" y="68.1" class="st21" width="5.1" height="7.1"/>
		<rect x="65.3" y="68.1" class="st21" width="5.1" height="7.1"/>
		<rect x="58.2" y="77.3" class="st21" width="5.1" height="3.1"/>
		<rect x="65.3" y="77.3" class="st21" width="5.1" height="3.1"/>
		<rect x="58.2" y="82.4" class="st21" width="5.1" height="7.1"/>
		<g>
			<linearGradient id="SVGID_12_" gradientUnits="userSpaceOnUse" x1="24.6567" y1="67.9589" x2="30.5503" y2="92.8858">
				<stop  offset="0" style="stop-color:#FBF8F9"/>
				<stop  offset="1" style="stop-color:#EDE4E5"/>
			</linearGradient>
			<rect x="11.2" y="69.1" class="st22" width="32.7" height="22.5"/>
			<polygon class="st23" points="34.7,69.1 13.3,69.1 11.2,69.1 11.2,71.1 11.2,91.5 13.3,91.5 13.3,71.1 34.7,71.1 			"/>
			<rect x="21.5" y="69.1" class="st24" width="2" height="22.5"/>
			<rect x="11.2" y="77.3" class="st24" width="32.7" height="2"/>
			<rect x="32.7" y="69.1" class="st24" width="2" height="22.5"/>
		</g>
		<rect x="65.3" y="82.4" class="st21" width="5.1" height="7.1"/>
		<polygon class="st7" points="7.2,77.3 20.4,91.5 51.1,91.5 51.1,67 7.2,67 		"/>
		<linearGradient id="SVGID_13_" gradientUnits="userSpaceOnUse" x1="39.1427" y1="61.3762" x2="60.1817" y2="89.1262">
			<stop  offset="0" style="stop-color:#F3F3F3"/>
			<stop  offset="1" style="stop-color:#EBEBEB"/>
		</linearGradient>
		<rect x="49" y="64" class="st25" width="5.1" height="27.6"/>
		<rect x="48" y="64" class="st26" width="7.1" height="3.1"/>
		<path class="st24" d="M7.2,75.2c0,0,3.1-5.1,9.2-5.1s9.2,5.1,9.2,5.1V67H7.2V75.2z"/>
		<path class="st24" d="M30.6,75.2c0,0,3.1-5.1,9.2-5.1s9.2,5.1,9.2,5.1V67H30.6V75.2z"/>
		<linearGradient id="SVGID_14_" gradientUnits="userSpaceOnUse" x1="46.2145" y1="81.2283" x2="56.648" y2="98.3525">
			<stop  offset="0" style="stop-color:#F3F3F3"/>
			<stop  offset="1" style="stop-color:#EBEBEB"/>
		</linearGradient>
		<rect x="48" y="88.5" class="st27" width="7.1" height="3.1"/>
		<g>
			<linearGradient id="SVGID_15_" gradientUnits="userSpaceOnUse" x1="110.7518" y1="69.1843" x2="118.0084" y2="99.8756">
				<stop  offset="0" style="stop-color:#F3F3F3"/>
				<stop  offset="1" style="stop-color:#EBEBEB"/>
			</linearGradient>
			<rect x="91.9" y="71.1" class="st28" width="44.9" height="26.5"/>
			<polygon class="st29" points="116.4,72.2 112.3,72.2 111.3,69.1 117.4,69.1 			"/>
			<rect x="95" y="74.2" class="st30" width="10.2" height="4.1"/>
			<rect x="109.2" y="74.2" class="st30" width="10.2" height="4.1"/>
			<rect x="123.5" y="74.2" class="st30" width="10.2" height="4.1"/>
			<rect x="95" y="82.4" class="st30" width="10.2" height="4.1"/>
			<rect x="109.2" y="82.4" class="st30" width="10.2" height="4.1"/>
			<rect x="123.5" y="82.4" class="st30" width="10.2" height="4.1"/>
			<rect x="95" y="90.5" class="st30" width="10.2" height="4.1"/>
			<rect x="109.2" y="90.5" class="st30" width="10.2" height="4.1"/>
			<rect x="123.5" y="90.5" class="st30" width="10.2" height="4.1"/>
		</g>
		<polygon class="st7" points="54.1,69.1 54.1,72.2 49,67 54.1,67 		"/>
		<g>
			<linearGradient id="SVGID_16_" gradientUnits="userSpaceOnUse" x1="-6.605" y1="64.5043" x2="12.3841" y2="89.5505">
				<stop  offset="0" style="stop-color:#F3F3F3"/>
				<stop  offset="1" style="stop-color:#EBEBEB"/>
			</linearGradient>
			<rect x="2.1" y="67" class="st31" width="5.1" height="24.5"/>
			<rect x="1" y="67" class="st26" width="7.1" height="3.1"/>
			<linearGradient id="SVGID_17_" gradientUnits="userSpaceOnUse" x1="-0.7438" y1="81.2283" x2="9.6897" y2="98.3525">
				<stop  offset="0" style="stop-color:#F3F3F3"/>
				<stop  offset="1" style="stop-color:#EBEBEB"/>
			</linearGradient>
			<rect x="1" y="88.5" class="st32" width="7.1" height="3.1"/>
			<polygon class="st7" points="7.2,72.2 7.2,75.2 2.1,70.1 7.2,70.1 			"/>
		</g>
		<g>
			<linearGradient id="SVGID_18_" gradientUnits="userSpaceOnUse" x1="16.8741" y1="64.5043" x2="35.8633" y2="89.5505">
				<stop  offset="0" style="stop-color:#F3F3F3"/>
				<stop  offset="1" style="stop-color:#EBEBEB"/>
			</linearGradient>
			<rect x="25.5" y="67" class="st33" width="5.1" height="24.5"/>
			<rect x="24.5" y="67" class="st26" width="7.1" height="3.1"/>
			<linearGradient id="SVGID_19_" gradientUnits="userSpaceOnUse" x1="22.7353" y1="81.2283" x2="33.1688" y2="98.3525">
				<stop  offset="0" style="stop-color:#F3F3F3"/>
				<stop  offset="1" style="stop-color:#EBEBEB"/>
			</linearGradient>
			<rect x="24.5" y="88.5" class="st34" width="7.1" height="3.1"/>
			<polygon class="st7" points="30.6,72.2 30.6,75.2 25.5,70.1 30.6,70.1 			"/>
		</g>
		<linearGradient id="SVGID_20_" gradientUnits="userSpaceOnUse" x1="56.4197" y1="50.5028" x2="77.4579" y2="78.2518">
			<stop  offset="0" style="stop-color:#F3F3F3"/>
			<stop  offset="1" style="stop-color:#EBEBEB"/>
		</linearGradient>
		<rect x="74.5" y="64" class="st35" width="5.1" height="27.6"/>
		<polygon class="st7" points="80.7,67 80.7,97.7 106.2,97.7 85.8,70.1 148,70.1 148,67 		"/>
		<rect x="73.5" y="64" class="st26" width="7.1" height="3.1"/>
		<linearGradient id="SVGID_21_" gradientUnits="userSpaceOnUse" x1="64.8273" y1="69.8904" x2="75.2608" y2="87.0146">
			<stop  offset="0" style="stop-color:#F3F3F3"/>
			<stop  offset="1" style="stop-color:#EBEBEB"/>
		</linearGradient>
		<rect x="73.5" y="88.5" class="st36" width="7.1" height="3.1"/>
		<polygon class="st7" points="79.6,69.1 79.6,72.2 74.5,67 79.6,67 		"/>
		<linearGradient id="SVGID_22_" gradientUnits="userSpaceOnUse" x1="44.9329" y1="95.6299" x2="83.7245" y2="95.6299">
			<stop  offset="0" style="stop-color:#E6E6E5"/>
			<stop  offset="1" style="stop-color:#DCDBDB"/>
		</linearGradient>
		<rect x="44.9" y="93.6" class="st37" width="38.8" height="4.1"/>
		<polygon class="st29" points="83.7,93.6 44.9,93.6 47,91.5 81.7,91.5 		"/>
		<polygon class="st29" points="84.7,96.7 43.9,96.7 44.9,95.6 83.7,95.6 		"/>
		<linearGradient id="SVGID_23_" gradientUnits="userSpaceOnUse" x1="43.912" y1="97.1612" x2="84.7454" y2="97.1612">
			<stop  offset="0" style="stop-color:#E6E6E5"/>
			<stop  offset="1" style="stop-color:#DCDBDB"/>
		</linearGradient>
		<rect x="43.9" y="96.7" class="st38" width="40.8" height="1"/>
		<rect x="46" y="21.1" class="st0" width="36.8" height="2"/>
		<rect x="55.1" y="53.8" class="st11" width="18.4" height="8.2"/>
		<rect x="1" y="91.5" class="st29" width="47" height="2"/>
		<g>
			<g>
				<linearGradient id="SVGID_24_" gradientUnits="userSpaceOnUse" x1="62.0882" y1="32.56" x2="66.5182" y2="51.2965">
					<stop  offset="0" style="stop-color:#FBF3F3"/>
					<stop  offset="1" style="stop-color:#EDE4E5"/>
				</linearGradient>
				<path class="st39" d="M70.5,51.7c-4.1,0-8.2,0-12.2,0c0-6.5,0-12.9,0-19.4c3.8-2,8.4-2,12.2,0C70.5,38.8,70.5,45.3,70.5,51.7z"
					/>
			</g>
			<path class="st4" d="M60.2,34.1c2.2-1.6,5.1-2.1,10.2-0.7c0-0.3,0-0.7,0-1c-4.5-2.3-7.8-2.3-12.2,0c0,7.1,0,12.2,0,19.4
				c0.7,0,1.4,0,2,0C60.2,45.2,60.2,40.6,60.2,34.1z"/>
			<rect x="58.2" y="40.5" class="st40" width="12.2" height="2"/>
		</g>
		<polygon class="st41" points="54.1,70.1 74.5,93.6 74.5,64 54.1,64 		"/>
	</g>
	<g>
		<g>
			<rect x="89.8" y="90.5" class="st42" width="1" height="7.1"/>
			<rect x="85.8" y="90.5" class="st42" width="1" height="7.1"/>
			<rect x="92.9" y="90.5" class="st42" width="1" height="7.1"/>
			<path class="st43" d="M98,92.6c0,1.7-1.4,3-3,3h-9.2c-1.7,0-3-1.4-3-3v-3.1c0-1.7,1.4-3,3-3H95c1.7,0,3,1.4,3,3V92.6z"/>
			<path class="st44" d="M82.7,91.7V89c0-1.7,1.4-2.5,3.1-2.5h8.5L82.7,91.7z"/>
			<path class="st45" d="M100.1,93.2c0,1.3-1.1,2.4-2.4,2.4h-7.4c-1.3,0-2.4-1.1-2.4-2.4v-2.3c0-1.3,1.1-2.4,2.4-2.4h7.4
				c1.3,0,2.4,1.1,2.4,2.4V93.2z"/>
			<path class="st46" d="M87.8,92.3v-1.8c0-1.3,0.9-2,2.2-2h7L87.8,92.3z"/>
			<path class="st46" d="M89.8,93.4c0,0.7-0.5,1.2-1.2,1.2h-5.7c-0.7,0-1.2-0.5-1.2-1.2v-1.7c0-0.7,0.5-1.2,1.2-1.2h5.7
				c0.7,0,1.2,0.5,1.2,1.2V93.4z"/>
			<path class="st43" d="M81.7,93.5v-1.8c0-0.7,0.7-1.2,1.4-1.2h5.2L81.7,93.5z"/>
		</g>
	</g>
</g>
</svg>
