<?xml version="1.0" encoding="UTF-8"?>
<svg width="1169px" height="903px" viewBox="0 0 1169 903" version="1.1" xmlns="http://www.w3.org/2000/svg" xmlns:xlink="http://www.w3.org/1999/xlink">
    <!-- Generator: Sketch 48.1 (47250) - http://www.bohemiancoding.com/sketch -->
    <title>Artboard Copy 2</title>
    <desc>Created with Sketch.</desc>
    <defs>
        <polygon id="path-1" points="0.153 0.468306846 264.46944 0.468306846 264.46944 386.94 0.153 386.94"></polygon>
        <polygon id="path-3" points="0.816 0.056 993.92 0.056 993.92 409.94 0.816 409.94"></polygon>
        <polygon id="path-5" points="0.432824731 0.755061425 293.3 0.755061425 293.3 633.94 0.432824731 633.94"></polygon>
    </defs>
    <g id="Agents---Desktop" stroke="none" stroke-width="1" fill="none" fill-rule="evenodd">
        <g id="Artboard-Copy-2">
            <g id="shutterstock_480719353">
                <g id="Group-13" transform="translate(18.000000, 628.000000)" fill="#FFAA71">
                    <polyline id="Fill-12" points="0.138 275 152.055 275 194.942 26.344 46.582 0.756 0.138 275"></polyline>
                </g>
                <path d="M58.837,643.837 C43.057,641.115 32.373,625.978 35.095,610.198 L74.337,382.667 C77.059,366.887 92.196,356.203 107.976,358.925 C123.756,361.646 134.439,376.784 131.718,392.563 L92.475,620.095 C89.754,635.875 74.616,646.558 58.837,643.837" id="Fill-14" fill="#FFAA71"></path>
                <path d="M123.821,607.143 C108.041,604.422 97.357,589.285 100.078,573.505 L134.253,375.36 C136.974,359.581 152.112,348.897 167.891,351.618 C183.671,354.34 194.355,369.477 191.633,385.257 L157.459,583.401 C154.738,599.181 139.6,609.865 123.821,607.143" id="Fill-15" fill="#FFAA71"></path>
                <path d="M180.781,616.968 C165.001,614.246 154.318,599.109 157.039,583.329 L186.164,414.464 C188.885,398.684 204.022,388 219.802,390.721 L219.802,390.722 C235.582,393.443 246.266,408.58 243.544,424.36 L214.42,593.225 C211.698,609.005 196.561,619.689 180.781,616.968" id="Fill-16" fill="#FFAA71"></path>
                <path d="M228.436,680.749 L228.436,680.748 C212.656,678.027 201.972,662.89 204.694,647.11 L236.709,461.481 C239.431,445.701 254.568,435.018 270.348,437.739 C286.128,440.461 296.812,455.598 294.09,471.378 L262.074,657.006 C259.353,672.786 244.216,683.47 228.436,680.749" id="Fill-17" fill="#FFAA71"></path>
                <g id="Group-21" transform="translate(0.000000, 516.000000)">
                    <mask id="mask-2" fill="white">
                        <use xlink:href="#path-1"></use>
                    </mask>
                    <g id="Clip-19"></g>
                    <path d="M128.595,232.994 C65.87,222.176 23.4,162.004 34.219,99.278 L34.693,96.528 C45.511,33.803 105.683,-8.667 168.409,2.152 C231.135,12.97 273.604,73.142 262.786,135.868 L262.311,138.618 C251.493,201.343 191.321,243.813 128.595,232.994" id="Fill-18" fill="#FFAA71" mask="url(#mask-2)"></path>
                    <polyline id="Fill-20" fill="#2E4970" mask="url(#mask-2)" points="234.476 387 242.582 339.44 14.489 300.102 0.153 387 234.476 387"></polyline>
                </g>
                <polyline id="Fill-22" fill="#FFFFFF" points="24.303 759.2 228.21 794.368 218.396 851.27 14.489 816.102 24.303 759.2"></polyline>
                <path d="M167.44,815.837 C166.036,823.98 171.497,831.72 179.638,833.12 C187.779,834.52 195.517,829.06 196.921,820.921 C198.325,812.78 192.864,805.043 184.723,803.639 C176.582,802.234 168.844,807.696 167.44,815.837" id="Fill-23" fill="#2E4970"></path>
                <path d="M1082.55,34.523 L1082.55,650.629 C1082.55,669.254 1067.45,684.352 1048.82,684.352 L151.881,684.352 C133.257,684.352 118.158,669.254 118.158,650.629 L118.158,34.523 C118.158,15.898 133.257,0.799 151.881,0.799 L1048.82,0.799 C1067.45,0.799 1082.55,15.898 1082.55,34.523" id="Fill-24" fill="#DDDDDD"></path>
                <path d="M1048.82,0.799 L151.881,0.799 C138.131,0.799 126.311,9.034 121.062,20.836 L1080.59,661.946 C1081.86,658.408 1082.55,654.6 1082.55,650.629 L1082.55,34.523 C1082.55,15.898 1067.45,0.799 1048.82,0.799" id="Fill-25" fill="#EDEDED"></path>
                <polygon id="Fill-26" fill="#FE4352" points="201.342 610.676 1003.86 610.676 1003.86 74.476 201.342 74.476"></polygon>
                <path d="M160.427,333.957 C165.187,333.957 169.046,337.816 169.046,342.576 C169.046,347.336 165.187,351.195 160.427,351.195 C155.667,351.195 151.808,347.336 151.808,342.576 C151.808,337.816 155.667,333.957 160.427,333.957" id="Fill-27" fill="#A6A8AC"></path>
                <path d="M1043.69,327.003 C1035.1,327.003 1028.12,333.989 1028.12,342.576 C1028.12,351.163 1035.1,358.149 1043.69,358.149 C1052.28,358.149 1059.26,351.163 1059.26,342.576 C1059.26,333.989 1052.28,327.003 1043.69,327.003 Z M1043.69,360.149 C1034,360.149 1026.12,352.266 1026.12,342.576 C1026.12,332.886 1034,325.003 1043.69,325.003 C1053.38,325.003 1061.26,332.886 1061.26,342.576 C1061.26,352.266 1053.38,360.149 1043.69,360.149 Z" id="Fill-28" fill="#7A7B7C"></path>
                <polygon id="Fill-29" fill="#FFFFFF" points="201.342 610.676 1003.86 610.676 1003.86 74.476 201.342 74.476"></polygon>
                <polygon id="Fill-30" fill="#414042" points="201.342 126.8 1003.86 126.8 1003.86 74.476 201.342 74.476"></polygon>
                <path d="M923.91,99.688 C923.91,105.698 919.04,110.57 913.03,110.57 C907.01,110.57 902.14,105.698 902.14,99.688 C902.14,93.678 907.01,88.805 913.03,88.805 C919.04,88.805 923.91,93.678 923.91,99.688" id="Fill-31" fill="#6D6E71"></path>
                <path d="M948.18,88.805 C942.17,88.805 937.3,93.678 937.3,99.688 C937.3,105.698 942.17,110.57 948.18,110.57 C954.19,110.57 959.06,105.698 959.06,99.688 C959.06,93.678 954.19,88.805 948.18,88.805" id="Fill-32" fill="#6D6E71"></path>
                <path d="M983.34,88.805 C977.33,88.805 972.46,93.678 972.46,99.688 C972.46,105.698 977.33,110.57 983.34,110.57 C989.35,110.57 994.22,105.698 994.22,99.688 C994.22,93.678 989.35,88.805 983.34,88.805" id="Fill-33" fill="#6D6E71"></path>
                <polygon id="Fill-34" fill="#808285" points="942.9 145.57 983.2 145.57 983.2 138.481 942.9 138.481"></polygon>
                <polygon id="Fill-35" fill="#808285" points="942.9 158.292 983.2 158.292 983.2 151.204 942.9 151.204"></polygon>
                <polygon id="Fill-36" fill="#808285" points="942.9 171.015 983.2 171.015 983.2 163.926 942.9 163.926"></polygon>
                <path d="M504.226,416.832 L320.252,416.832 C316.673,416.832 313.745,413.904 313.745,410.325 L313.745,226.351 C313.745,222.773 316.673,219.845 320.252,219.845 L504.226,219.845 C507.804,219.845 510.732,222.773 510.732,226.351 L510.732,410.325 C510.732,413.904 507.804,416.832 504.226,416.832" id="Fill-37" fill="#8FDDE5"></path>
                <path d="M330.628,416.832 L493.849,416.832 C494.075,416.832 494.284,416.774 494.507,416.765 C486.428,369.449 452.684,333.937 412.239,333.937 C371.793,333.937 338.05,369.449 329.97,416.765 C330.193,416.774 330.403,416.832 330.628,416.832" id="Fill-38" fill="#55B8C9"></path>
                <path d="M455.029,284.721 C455.029,308.354 435.871,327.512 412.239,327.512 C388.606,327.512 369.448,308.354 369.448,284.721 C369.448,261.088 388.606,241.931 412.239,241.931 C435.871,241.931 455.029,261.088 455.029,284.721" id="Fill-39" fill="#55B8C9"></path>
                <path d="M888.79,281.678 L531.982,281.678 C530.193,281.678 528.729,280.214 528.729,278.425 L528.729,223.098 C528.729,221.309 530.193,219.845 531.982,219.845 L888.79,219.845 C890.58,219.845 892.05,221.309 892.05,223.098 L892.05,278.425 C892.05,280.214 890.58,281.678 888.79,281.678" id="Fill-40" fill="#E6E7E8"></path>
                <path d="M888.79,363.014 L531.982,363.014 C530.193,363.014 528.729,361.55 528.729,359.76 L528.729,304.434 C528.729,302.644 530.193,301.18 531.982,301.18 L888.79,301.18 C890.58,301.18 892.05,302.644 892.05,304.434 L892.05,359.76 C892.05,361.55 890.58,363.014 888.79,363.014" id="Fill-41" fill="#E6E7E8"></path>
                <polyline id="Fill-42" fill="#939598" points="552.09 263.028 552.09 238.155 556.204 238.155 568.624 258.126 568.624 238.155 571.844 238.155 571.844 263.028 567.907 263.028 555.31 242.666 555.31 263.028 552.09 263.028"></polyline>
                <path d="M581.793,252.864 L590.382,252.864 L586.982,244.106 L585.979,240.481 L585.013,244.106 L581.793,252.864 M580.863,255.513 L578.106,263.028 L574.672,263.028 L583.939,238.155 L587.948,238.155 L597.682,263.028 L594.318,263.028 L591.42,255.513 L580.863,255.513" id="Fill-43" fill="#939598"></path>
                <polyline id="Fill-44" fill="#939598" points="600.402 263.028 600.402 238.155 605.448 238.155 612.498 255.764 619.799 238.155 624.307 238.155 624.307 263.028 621.087 263.028 621.087 242.235 613.929 260.094 610.852 260.094 603.622 241.806 603.622 263.028 600.402 263.028"></polyline>
                <polyline id="Fill-45" fill="#939598" points="646.425 263.028 628.639 263.028 628.639 238.155 646.533 238.155 645.602 241.09 631.859 241.09 631.859 248.391 644.17 248.391 644.17 251.325 631.859 251.325 631.859 260.094 646.425 260.094 646.425 263.028"></polyline>
                <polyline id="Fill-46" fill="#939598" points="557.386 331.065 557.101 335.145 560.894 333.534 561.752 335.862 557.673 337.042 560.321 340.406 558.281 341.801 556.134 338.259 553.987 341.801 551.947 340.406 554.595 337.042 550.514 335.862 551.374 333.534 555.132 335.145 554.881 331.065 557.386 331.065"></polyline>
                <polyline id="Fill-47" fill="#939598" points="569.77 331.065 569.484 335.145 573.277 333.534 574.135 335.862 570.055 337.042 572.704 340.406 570.664 341.801 568.517 338.259 566.37 341.801 564.33 340.406 566.978 337.042 562.897 335.862 563.757 333.534 567.515 335.145 567.264 331.065 569.77 331.065"></polyline>
                <polyline id="Fill-48" fill="#939598" points="582.151 331.065 581.865 335.145 585.658 333.534 586.516 335.862 582.437 337.042 585.085 340.406 583.045 341.801 580.897 338.259 578.751 341.801 576.711 340.406 579.36 337.042 575.279 335.862 576.138 333.534 579.897 335.145 579.646 331.065 582.151 331.065"></polyline>
                <polyline id="Fill-49" fill="#939598" points="594.534 331.065 594.248 335.145 598.041 333.534 598.899 335.861 594.82 337.042 597.468 340.406 595.429 341.801 593.28 338.258 591.134 341.801 589.094 340.406 591.743 337.042 587.662 335.861 588.521 333.534 592.28 335.145 592.029 331.065 594.534 331.065"></polyline>
                <polyline id="Fill-50" fill="#939598" points="606.915 331.065 606.629 335.145 610.423 333.534 611.281 335.861 607.202 337.042 609.849 340.406 607.81 341.801 605.663 338.258 603.515 341.801 601.476 340.406 604.124 337.042 600.043 335.861 600.903 333.534 604.661 335.145 604.41 331.065 606.915 331.065"></polyline>
                <polyline id="Fill-51" fill="#939598" points="619.298 331.065 619.013 335.145 622.806 333.534 623.664 335.861 619.584 337.042 622.233 340.406 620.193 341.801 618.046 338.258 615.898 341.801 613.859 340.406 616.507 337.042 612.426 335.861 613.286 333.534 617.044 335.145 616.793 331.065 619.298 331.065"></polyline>
                <polyline id="Fill-52" fill="#939598" points="631.68 331.065 631.394 335.145 635.187 333.534 636.045 335.861 631.965 337.042 634.614 340.406 632.574 341.801 630.426 338.258 628.28 341.801 626.24 340.406 628.889 337.042 624.807 335.861 625.667 333.534 629.426 335.145 629.175 331.065 631.68 331.065"></polyline>
                <polyline id="Fill-53" fill="#939598" points="644.063 331.065 643.777 335.145 647.57 333.534 648.43 335.861 644.349 337.042 646.997 340.406 644.957 341.801 642.809 338.258 640.663 341.801 638.624 340.406 641.272 337.042 637.19 335.861 638.05 333.534 641.809 335.145 641.558 331.065 644.063 331.065"></polyline>
                <path d="M886.27,501.248 L316.704,501.248 C314.914,501.248 313.45,499.784 313.45,497.995 L313.45,442.668 C313.45,440.879 314.914,439.415 316.704,439.415 L886.27,439.415 C888.06,439.415 889.52,440.879 889.52,442.668 L889.52,497.995 C889.52,499.784 888.06,501.248 886.27,501.248" id="Fill-54" fill="#2BB673"></path>
                <path d="M544.246,463.237 C544.246,462.02 544.508,460.983 545.034,460.123 C545.558,459.264 546.244,458.567 547.091,458.03 C547.938,457.493 548.899,457.105 549.972,456.867 C551.045,456.629 552.119,456.509 553.193,456.509 C554.719,456.509 556.181,456.809 557.577,457.41 C558.972,458.012 560.171,458.881 561.174,460.015 L558.848,462.093 C558.084,461.185 557.188,460.517 556.163,460.089 C555.137,459.658 554.016,459.444 552.799,459.444 C552.203,459.444 551.594,459.515 550.973,459.659 C550.354,459.803 549.793,460.03 549.293,460.339 C548.791,460.651 548.379,461.032 548.057,461.486 C547.736,461.941 547.574,462.468 547.574,463.065 C547.574,464.187 547.927,465.042 548.63,465.626 C549.334,466.214 550.222,466.678 551.296,467.024 C552.37,467.374 553.52,467.688 554.75,467.974 C555.977,468.263 557.129,468.664 558.203,469.175 C559.277,469.69 560.165,470.401 560.869,471.307 C561.572,472.216 561.925,473.471 561.925,475.072 C561.925,476.362 561.626,477.461 561.031,478.37 C560.433,479.279 559.671,480.019 558.74,480.594 C557.809,481.166 556.777,481.585 555.644,481.845 C554.511,482.109 553.42,482.24 552.37,482.24 C550.341,482.24 548.552,481.782 547.002,480.864 C545.45,479.946 544.211,478.602 543.28,476.839 L546.071,475.371 C546.81,476.73 547.693,477.725 548.719,478.357 C549.745,478.99 550.973,479.307 552.405,479.307 C553.026,479.307 553.699,479.247 554.427,479.126 C555.155,479.008 555.835,478.793 556.467,478.484 C557.099,478.173 557.631,477.744 558.061,477.194 C558.489,476.648 558.703,475.943 558.703,475.085 C558.703,474.033 558.346,473.229 557.631,472.667 C556.915,472.108 556.021,471.647 554.946,471.291 C553.873,470.932 552.714,470.605 551.475,470.306 C550.235,470.007 549.077,469.598 548.004,469.07 C546.931,468.546 546.035,467.831 545.32,466.922 C544.604,466.017 544.246,464.788 544.246,463.237" id="Fill-55" fill="#FFFFFF"></path>
                <polygon id="Fill-56" fill="#FFFFFF" points="565.325 481.811 568.545 481.811 568.545 456.938 565.325 456.938"></polygon>
                <path d="M589.732,461.769 C589.446,461.366 589.082,461.013 588.64,460.714 C588.199,460.416 587.722,460.171 587.209,459.98 C586.696,459.79 586.159,459.653 585.598,459.569 C585.037,459.485 584.494,459.444 583.97,459.444 C582.682,459.444 581.501,459.653 580.427,460.071 C579.354,460.489 578.387,461.177 577.528,462.135 C576.597,463.139 576.025,464.206 575.811,465.344 C575.596,466.478 575.489,467.701 575.489,469.016 L575.489,469.912 C575.489,471.228 575.631,472.429 575.917,473.515 C576.205,474.605 576.801,475.663 577.708,476.689 C578.136,477.169 578.643,477.576 579.228,477.909 C579.813,478.243 580.427,478.513 581.071,478.716 C581.716,478.919 582.372,479.069 583.039,479.164 C583.708,479.259 584.364,479.307 585.009,479.307 C585.652,479.307 586.386,479.193 587.209,478.967 C588.032,478.739 588.742,478.497 589.337,478.233 L589.337,471.898 L583.97,471.898 L583.97,468.892 L592.416,468.892 L592.416,480.057 C591.271,480.68 590.048,481.197 588.748,481.614 C587.447,482.033 586.129,482.24 584.793,482.24 C583.935,482.24 583.069,482.176 582.198,482.043 C581.328,481.912 580.475,481.699 579.639,481.401 C578.804,481.102 578.011,480.727 577.26,480.273 C576.508,479.819 575.846,479.272 575.274,478.627 C574.081,477.315 573.282,475.949 572.877,474.529 C572.47,473.108 572.269,471.539 572.269,469.823 L572.269,469.001 C572.269,468.165 572.291,467.364 572.34,466.602 C572.388,465.839 572.5,465.093 572.68,464.365 C572.858,463.637 573.139,462.916 573.52,462.201 C573.901,461.483 574.427,460.768 575.094,460.052 C576.287,458.763 577.641,457.852 579.156,457.315 C580.672,456.778 582.276,456.509 583.97,456.509 C585.472,456.509 586.91,456.764 588.283,457.269 C589.654,457.775 590.877,458.656 591.951,459.909 L589.732,461.769" id="Fill-57" fill="#FFFFFF"></path>
                <polyline id="Fill-58" fill="#FFFFFF" points="596.245 481.811 596.245 456.938 600.359 456.938 612.779 476.908 612.779 456.938 615.999 456.938 615.999 481.811 612.062 481.811 599.465 461.448 599.465 481.811 596.245 481.811"></polyline>
                <polygon id="Fill-59" fill="#FFFFFF" points="631.065 481.811 634.285 481.811 634.285 456.938 631.065 456.938"></polygon>
                <polyline id="Fill-60" fill="#FFFFFF" points="638.832 481.811 638.832 456.938 642.946 456.938 655.37 476.908 655.37 456.938 658.59 456.938 658.59 481.811 654.65 481.811 642.052 461.448 642.052 481.811 638.832 481.811"></polyline>
                <path d="M546.993,406.33 L538.244,397.584 L541.435,394.388 L546.998,399.952 L555.697,391.254 L558.888,394.445 L547.001,406.328 L546.998,406.325 L546.993,406.33 Z M536.365,410.992 L560.766,410.992 L560.766,386.592 L536.365,386.592 L536.365,410.992 Z M532.299,415.059 L564.833,415.059 L564.833,382.525 L532.299,382.525 L532.299,415.059 Z" id="Fill-61" fill="#2BB673"></path>
                <path d="M880.88,406.383 L590.213,406.383 C586.038,406.383 582.622,402.967 582.622,398.792 C582.622,394.617 586.038,391.201 590.213,391.201 L880.88,391.201 C885.06,391.201 888.48,394.617 888.48,398.792 C888.48,402.967 885.06,406.383 880.88,406.383" id="Fill-62" fill="#2BB673"></path>
                <path d="M1003.86,610.676 L840.08,501.248 L886.27,501.248 C888.06,501.248 889.52,499.784 889.52,497.995 L889.52,442.668 C889.52,440.879 888.06,439.415 886.27,439.415 L747.54,439.415 L698.1,406.383 L880.88,406.383 C885.06,406.383 888.48,402.967 888.48,398.792 C888.48,394.617 885.06,391.201 880.88,391.201 L675.38,391.201 L633.19,363.014 L888.79,363.014 C890.58,363.014 892.05,361.55 892.05,359.76 L892.05,304.434 C892.05,302.644 890.58,301.18 888.79,301.18 L540.645,301.18 L510.732,281.194 L510.732,226.351 C510.732,222.773 507.804,219.845 504.226,219.845 L418.912,219.845 L279.654,126.8 L1003.86,126.8 L1003.86,610.676 Z M531.982,219.845 C530.193,219.845 528.729,221.309 528.729,223.098 L528.729,278.425 C528.729,280.214 530.193,281.678 531.982,281.678 L888.79,281.678 C890.58,281.678 892.05,280.214 892.05,278.425 L892.05,223.098 C892.05,221.309 890.58,219.845 888.79,219.845 L531.982,219.845 Z M942.9,171.015 L983.2,171.015 L983.2,163.926 L942.9,163.926 L942.9,171.015 Z M942.9,158.292 L983.2,158.292 L983.2,151.204 L942.9,151.204 L942.9,158.292 Z M942.9,145.57 L983.2,145.57 L983.2,138.481 L942.9,138.481 L942.9,145.57 Z" id="Fill-63" fill="#FFFFFF"></path>
                <path d="M1003.86,126.8 L279.654,126.8 L201.342,74.476 L1003.86,74.476 L1003.86,126.8 M983.34,88.805 C977.33,88.805 972.46,93.678 972.46,99.688 C972.46,105.698 977.33,110.57 983.34,110.57 C989.35,110.57 994.22,105.698 994.22,99.688 C994.22,93.678 989.35,88.805 983.34,88.805 M948.18,88.805 C942.17,88.805 937.3,93.678 937.3,99.688 C937.3,105.698 942.17,110.57 948.18,110.57 C954.19,110.57 959.06,105.698 959.06,99.688 C959.06,93.678 954.19,88.805 948.18,88.805 M913.03,88.805 C907.01,88.805 902.14,93.678 902.14,99.688 C902.14,105.698 907.01,110.57 913.03,110.57 C919.04,110.57 923.91,105.698 923.91,99.688 C923.91,93.678 919.04,88.805 913.03,88.805" id="Fill-64" fill="#616062"></path>
                <path d="M913.03,110.57 C907.01,110.57 902.14,105.698 902.14,99.688 C902.14,93.678 907.01,88.805 913.03,88.805 C919.04,88.805 923.91,93.678 923.91,99.688 C923.91,105.698 919.04,110.57 913.03,110.57" id="Fill-65" fill="#868689"></path>
                <path d="M948.18,110.57 C942.17,110.57 937.3,105.698 937.3,99.688 C937.3,93.678 942.17,88.805 948.18,88.805 C954.19,88.805 959.06,93.678 959.06,99.688 C959.06,105.698 954.19,110.57 948.18,110.57" id="Fill-66" fill="#868689"></path>
                <path d="M983.34,110.57 C977.33,110.57 972.46,105.698 972.46,99.688 C972.46,93.678 977.33,88.805 983.34,88.805 C989.35,88.805 994.22,93.678 994.22,99.688 C994.22,105.698 989.35,110.57 983.34,110.57" id="Fill-67" fill="#868689"></path>
                <polygon id="Fill-68" fill="#95979A" points="942.9 145.57 983.2 145.57 983.2 138.481 942.9 138.481"></polygon>
                <polygon id="Fill-69" fill="#95979A" points="942.9 158.292 983.2 158.292 983.2 151.204 942.9 151.204"></polygon>
                <polygon id="Fill-70" fill="#95979A" points="942.9 171.015 983.2 171.015 983.2 163.926 942.9 163.926"></polygon>
                <path d="M510.732,281.194 L418.912,219.845 L504.226,219.845 C507.804,219.845 510.732,222.773 510.732,226.351 L510.732,281.194" id="Fill-71" fill="#A2E3E9"></path>
                <path d="M888.79,281.678 L531.982,281.678 C530.193,281.678 528.729,280.214 528.729,278.425 L528.729,223.098 C528.729,221.309 530.193,219.845 531.982,219.845 L888.79,219.845 C890.58,219.845 892.05,221.309 892.05,223.098 L892.05,278.425 C892.05,280.214 890.58,281.678 888.79,281.678 M628.639,238.155 L628.639,263.028 L646.425,263.028 L646.425,260.094 L631.859,260.094 L631.859,251.325 L644.17,251.325 L644.17,248.391 L631.859,248.391 L631.859,241.09 L645.602,241.09 L646.533,238.155 L628.639,238.155 M621.087,242.235 L621.087,263.028 L624.307,263.028 L624.307,238.155 L619.799,238.155 L612.498,255.764 L605.448,238.155 L600.402,238.155 L600.402,263.028 L603.622,263.028 L603.622,241.806 L610.852,260.094 L613.929,260.094 L621.087,242.235 M597.682,263.028 L587.948,238.155 L583.939,238.155 L574.672,263.028 L578.106,263.028 L580.863,255.513 L591.42,255.513 L594.318,263.028 L597.682,263.028 M555.31,242.666 L567.907,263.028 L571.844,263.028 L571.844,238.155 L568.624,238.155 L568.624,258.126 L556.204,238.155 L552.09,238.155 L552.09,263.028 L555.31,263.028 L555.31,242.666 M590.382,252.864 L581.793,252.864 L585.013,244.106 L585.979,240.481 L586.982,244.106 L590.382,252.864" id="Fill-72" fill="#EAEBEC"></path>
                <path d="M888.79,363.014 L633.19,363.014 L595.376,337.749 L594.82,337.042 L598.899,335.861 L598.041,333.534 L594.248,335.145 L594.534,331.065 L592.029,331.065 L592.28,335.145 L590.048,334.188 L540.645,301.18 L888.79,301.18 C890.58,301.18 892.05,302.644 892.05,304.434 L892.05,359.76 C892.05,361.55 890.58,363.014 888.79,363.014 M642.809,338.258 L644.957,341.801 L646.997,340.406 L644.349,337.042 L648.43,335.861 L647.57,333.534 L643.777,335.145 L644.063,331.065 L641.558,331.065 L641.809,335.145 L638.05,333.534 L637.19,335.861 L641.272,337.042 L638.624,340.406 L640.663,341.801 L642.809,338.258 M630.426,338.258 L632.574,341.801 L634.614,340.406 L631.965,337.042 L636.045,335.861 L635.187,333.534 L631.394,335.145 L631.68,331.065 L629.175,331.065 L629.426,335.145 L625.667,333.534 L624.807,335.861 L628.889,337.042 L626.24,340.406 L628.28,341.801 L630.426,338.258 M618.046,338.258 L620.193,341.801 L622.233,340.406 L619.584,337.042 L623.664,335.861 L622.806,333.534 L619.013,335.145 L619.298,331.065 L616.793,331.065 L617.044,335.145 L613.286,333.534 L612.426,335.861 L616.507,337.042 L613.859,340.406 L615.898,341.801 L618.046,338.258 M605.663,338.258 L607.81,341.801 L609.849,340.406 L607.202,337.042 L611.281,335.861 L610.423,333.534 L606.629,335.145 L606.915,331.065 L604.41,331.065 L604.661,335.145 L600.903,333.534 L600.043,335.861 L604.124,337.042 L601.476,340.406 L603.515,341.801 L605.663,338.258" id="Fill-73" fill="#EAEBEC"></path>
                <polyline id="Fill-74" fill="#A5A7A9" points="571.844 263.028 567.907 263.028 555.31 242.666 555.31 263.028 552.09 263.028 552.09 238.155 556.204 238.155 568.624 258.126 568.624 238.155 571.844 238.155 571.844 263.028"></polyline>
                <path d="M597.682,263.028 L594.318,263.028 L591.42,255.513 L580.863,255.513 L578.106,263.028 L574.672,263.028 L583.939,238.155 L587.948,238.155 L597.682,263.028 M585.979,240.481 L585.013,244.106 L581.793,252.864 L590.382,252.864 L586.982,244.106 L585.979,240.481" id="Fill-75" fill="#A5A7A9"></path>
                <polyline id="Fill-76" fill="#A5A7A9" points="624.307 263.028 621.087 263.028 621.087 242.235 613.929 260.094 610.852 260.094 603.622 241.806 603.622 263.028 600.402 263.028 600.402 238.155 605.448 238.155 612.498 255.764 619.799 238.155 624.307 238.155 624.307 263.028"></polyline>
                <polyline id="Fill-77" fill="#A5A7A9" points="646.425 263.028 628.639 263.028 628.639 238.155 646.533 238.155 645.602 241.09 631.859 241.09 631.859 248.391 644.17 248.391 644.17 251.325 631.859 251.325 631.859 260.094 646.425 260.094 646.425 263.028"></polyline>
                <polyline id="Fill-78" fill="#A5A7A9" points="595.376 337.749 590.048 334.188 592.28 335.145 592.029 331.065 594.534 331.065 594.248 335.145 598.041 333.534 598.899 335.861 594.82 337.042 595.376 337.749"></polyline>
                <polyline id="Fill-79" fill="#A5A7A9" points="607.81 341.801 605.663 338.258 603.515 341.801 601.476 340.406 604.124 337.042 600.043 335.861 600.903 333.534 604.661 335.145 604.41 331.065 606.915 331.065 606.629 335.145 610.423 333.534 611.281 335.861 607.202 337.042 609.849 340.406 607.81 341.801"></polyline>
                <polyline id="Fill-80" fill="#A5A7A9" points="620.193 341.801 618.046 338.258 615.898 341.801 613.859 340.406 616.507 337.042 612.426 335.861 613.286 333.534 617.044 335.145 616.793 331.065 619.298 331.065 619.013 335.145 622.806 333.534 623.664 335.861 619.584 337.042 622.233 340.406 620.193 341.801"></polyline>
                <polyline id="Fill-81" fill="#A5A7A9" points="632.574 341.801 630.426 338.258 628.28 341.801 626.24 340.406 628.889 337.042 624.807 335.861 625.667 333.534 629.426 335.145 629.175 331.065 631.68 331.065 631.394 335.145 635.187 333.534 636.045 335.861 631.965 337.042 634.614 340.406 632.574 341.801"></polyline>
                <polyline id="Fill-82" fill="#A5A7A9" points="644.957 341.801 642.809 338.258 640.663 341.801 638.624 340.406 641.272 337.042 637.19 335.861 638.05 333.534 641.809 335.145 641.558 331.065 644.063 331.065 643.777 335.145 647.57 333.534 648.43 335.861 644.349 337.042 646.997 340.406 644.957 341.801"></polyline>
                <path d="M886.27,501.248 L840.08,501.248 L747.54,439.415 L886.27,439.415 C888.06,439.415 889.52,440.879 889.52,442.668 L889.52,497.995 C889.52,499.784 888.06,501.248 886.27,501.248" id="Fill-83" fill="#4FC28B"></path>
                <path d="M880.88,406.383 L698.1,406.383 L675.38,391.201 L880.88,391.201 C885.06,391.201 888.48,394.617 888.48,398.792 C888.48,402.967 885.06,406.383 880.88,406.383" id="Fill-84" fill="#4FC28B"></path>
                <path d="M34.497,644.943 C28.338,629.917 35.592,612.582 50.619,606.423 L182.911,552.193 C197.938,546.033 215.272,553.288 221.432,568.314 L221.432,568.315 C227.591,583.341 220.337,600.675 205.31,606.835 L73.018,661.065 C57.991,667.224 40.657,659.97 34.497,644.943" id="Fill-85" fill="#FFAA71"></path>
                <g id="Group-89" transform="translate(145.000000, 493.000000)">
                    <mask id="mask-4" fill="white">
                        <use xlink:href="#path-3"></use>
                    </mask>
                    <g id="Clip-87"></g>
                    <path d="M33.663,86.221 C46.481,82.657 55.868,71.544 58.541,58.597 C52.027,56.39 44.736,56.395 37.911,59.193 L0.816,74.399 C8.075,84.714 20.758,89.81 33.663,86.221" id="Fill-86" fill="#FFBE91" mask="url(#mask-4)"></path>
                    <polyline id="Fill-88" fill="#FFB380" mask="url(#mask-4)" points="993.92 410 843.58 410 793.03 20.981 942.12 0.056 993.92 410"></polyline>
                </g>
                <path d="M977.39,607.474 C966.74,619.735 948,621.053 935.74,610.403 L827.8,516.643 C815.54,505.993 814.22,487.248 824.87,474.987 C835.52,462.727 854.26,461.409 866.53,472.059 L974.47,565.819 C986.73,576.469 988.04,595.214 977.39,607.474" id="Fill-90" fill="#FFAA71"></path>
                <path d="M929.96,537.184 C914.11,539.41 899.31,528.257 897.09,512.4 L867.68,302.887 C865.45,287.03 876.61,272.235 892.46,270.009 C908.32,267.783 923.12,278.937 925.34,294.794 L954.75,504.306 C956.97,520.164 945.82,534.959 929.96,537.184" id="Fill-91" fill="#FFB380"></path>
                <path d="M986.37,523.19 C970.51,525.416 955.71,514.262 953.49,498.405 L939.97,402.066 C937.74,386.209 948.9,371.414 964.75,369.188 C980.61,366.963 995.4,378.116 997.63,393.973 L1011.15,490.312 C1013.38,506.169 1002.22,520.964 986.37,523.19" id="Fill-92" fill="#FFB380"></path>
                <path d="M1043.61,515.156 C1027.75,517.382 1012.96,506.228 1010.73,490.371 L999.6,411.097 C997.38,395.24 1008.53,380.445 1024.39,378.219 C1040.25,375.994 1055.04,387.147 1057.27,403.004 L1068.39,482.278 C1070.62,498.135 1059.47,512.93 1043.61,515.156" id="Fill-93" fill="#FFB380"></path>
                <path d="M1106.28,545.836 C1090.42,548.061 1075.63,536.908 1073.4,521.051 L1058.54,415.139 C1056.31,399.282 1067.47,384.487 1083.32,382.261 C1099.18,380.035 1113.98,391.188 1116.2,407.046 L1131.07,512.958 C1133.29,528.815 1122.14,543.61 1106.28,545.836" id="Fill-94" fill="#FFB380"></path>
                <path d="M1032.04,641.303 C969.01,650.15 910.2,605.816 901.35,542.782 L900.96,540.018 C892.11,476.985 936.45,418.173 999.48,409.326 C1062.52,400.479 1121.33,444.813 1130.18,507.847 L1130.56,510.61 C1139.41,573.644 1095.08,632.456 1032.04,641.303" id="Fill-95" fill="#FFB380"></path>
                <path d="M853.85,508.279 C844.9,498.435 830.75,495.049 817.99,498.485 C818.94,505.296 822.23,511.806 827.8,516.643 L858.06,542.933 C864.01,531.81 862.86,518.191 853.85,508.279" id="Fill-96" fill="#FFBE91"></path>
                <g id="Group-100" transform="translate(875.000000, 269.000000)">
                    <mask id="mask-6" fill="white">
                        <use xlink:href="#path-5"></use>
                    </mask>
                    <g id="Clip-98"></g>
                    <path d="M24.75,49.926 C13.71,51.474 3.42,43.714 1.87,32.682 L0.63,23.826 C-0.92,12.794 6.84,2.5 17.87,0.952 C28.91,-0.597 39.2,7.163 40.75,18.195 L41.99,27.051 C43.54,38.084 35.78,48.377 24.75,49.926" id="Fill-97" fill="#FFBE91" mask="url(#mask-6)"></path>
                    <polyline id="Fill-99" fill="#2E4970" mask="url(#mask-6)" points="60.47 634 42.32 493.611 271.54 461.44 293.3 634 60.47 634"></polyline>
                </g>
                <polyline id="Fill-101" fill="#FFFFFF" points="1138.51 673.258 933.6 702.018 941.63 759.2 1146.54 730.44 1138.51 673.258"></polyline>
                <path d="M993.67,725.381 C994.82,733.562 989.12,741.125 980.94,742.273 C972.75,743.421 965.19,737.72 964.04,729.539 C962.9,721.358 968.6,713.795 976.78,712.647 C984.96,711.499 992.52,717.2 993.67,725.381" id="Fill-102" fill="#2E4970"></path>
            </g>
        </g>
    </g>
</svg>