<?xml version="1.0" encoding="UTF-8"?>
<svg width="17px" height="17px" viewBox="0 0 17 17" version="1.1" xmlns="http://www.w3.org/2000/svg" xmlns:xlink="http://www.w3.org/1999/xlink">
    <!-- Generator: Sketch 48.1 (47250) - http://www.bohemiancoding.com/sketch -->
    <title>Group 3</title>
    <desc>Created with Sketch.</desc>
    <defs></defs>
    <g id="direction-2/navigation/homeowners/filing-a-claim" stroke="none" stroke-width="1" fill="none" fill-rule="evenodd" transform="translate(-328.000000, -274.000000)">
        <g id="Rectangle-+-direction-1/module/rich-hover-+-Rectangle-+-Getting-Started-+-Find-an-Agent-Insura-Mask" transform="translate(307.000000, 143.000000)" fill="#C1AA85" fill-rule="nonzero">
            <g id="Group-3" transform="translate(21.000000, 131.000000)">
                <path d="M16.2573684,5.1 C16.1671694,4.87132792 15.9591584,4.71027579 15.7151847,4.68021531 C15.471211,4.65015484 15.2303277,4.75589781 15.0873187,4.95583589 C14.9443098,5.15577396 14.9220668,5.41790299 15.0293421,5.63907895 C16.4258287,8.82558995 15.3165864,12.5546863 12.4055369,14.4598945 C9.49448747,16.3651027 5.63313645,15.8891341 3.27188567,13.3340368 C0.910634896,10.7789395 0.740169315,6.89210027 2.86866588,4.14009562 C4.99716244,1.38809096 8.80201869,0.57590451 11.8686842,2.21894737 C12.1954406,2.39437045 12.6025374,2.27169058 12.7779605,1.94493421 C12.9533836,1.61817785 12.8307037,1.21108097 12.5039474,1.03565789 C8.86304359,-0.915908226 4.34511343,0.0474372662 1.81694548,3.31441714 C-0.711222476,6.58139701 -0.510213628,11.196516 2.2924247,14.2313156 C5.09506304,17.2661153 9.67964176,17.8330063 13.1370814,15.5722759 C16.594521,13.3115455 17.9136224,8.88439076 16.2573684,5.1 Z" id="Shape"></path>
                <path d="M4.69736842,6.02381579 C4.42929231,5.76747573 4.00416901,5.77698968 3.74782895,6.04506579 C3.49148889,6.3131419 3.50100284,6.7382652 3.76907895,6.99460526 L7.71710526,10.7592105 C7.84185515,10.8782977 8.0076663,10.9447823 8.18013158,10.9448684 L8.20473684,10.9448684 C8.38660044,10.9377006 8.55775204,10.8569687 8.67894737,10.7211842 L16.2439474,2.30842105 C16.4197942,2.13277844 16.4841601,1.87432812 16.4112294,1.63672855 C16.3382986,1.39912898 16.1400169,1.22129786 15.8959105,1.17455916 C15.6518041,1.12782045 15.4018564,1.21982973 15.2463158,1.41368421 L8.14434211,9.30973684 L4.69736842,6.02381579 Z" id="Shape"></path>
            </g>
        </g>
    </g>
</svg>