<?xml version="1.0" encoding="UTF-8"?>
<svg width="303px" height="302px" viewBox="0 0 303 302" version="1.1" xmlns="http://www.w3.org/2000/svg" xmlns:xlink="http://www.w3.org/1999/xlink">
    <!-- Generator: Sketch 48.2 (47327) - http://www.bohemiancoding.com/sketch -->
    <title>Artboard Copy</title>
    <desc>Created with Sketch.</desc>
    <defs>
        <polygon id="path-1" points="0 0 299 0 299 298.98505 0 298.98505"></polygon>
        <polygon id="path-3" points="0.075 0.118922068 55.8487806 0.118922068 55.8487806 26.9852727 0.075 26.9852727"></polygon>
        <polygon id="path-5" points="0.05 0.0543820225 14.848704 0.0543820225 14.848704 21.9851685 0.05 21.9851685"></polygon>
        <polygon id="path-7" points="0.248731882 0.118452045 56.7958952 0.118452045 56.7958952 26.9852727 0.248731882 26.9852727"></polygon>
        <polygon id="path-9" points="0.248607595 0.117818182 19.7924051 0.117818182 19.7924051 26.9852727 0.248607595 26.9852727"></polygon>
    </defs>
    <g id="Page-1" stroke="none" stroke-width="1" fill="none" fill-rule="evenodd">
        <g id="Artboard-Copy">
            <g id="shutterstock_604857194" transform="translate(3.000000, 2.000000)">
                <g id="Group-4">
                    <mask id="mask-2" fill="white">
                        <use xlink:href="#path-1"></use>
                    </mask>
                    <g id="Clip-2"></g>
                    <path d="M259.968042,299 L251.95235,299 L246.288792,276.323342 C246.209557,276.0069 245.521608,275.854908 244.335574,275.854908 C243.936409,275.854908 243.480683,275.87235 242.973131,275.907233 L242.029537,272.122392 C242.005866,272.0302 241.921897,271.952958 241.780868,271.890667 C241.640837,271.830867 241.444244,271.786017 241.195078,271.756117 C241.194081,271.756117 241.193583,271.756117 241.192586,271.756117 C241.191838,271.756117 241.19134,271.756117 241.190842,271.756117 C240.946658,271.726217 240.652143,271.711267 240.310536,271.711267 C240.008546,271.711267 239.669679,271.723725 239.296677,271.74615 C238.331654,271.800967 237.136651,271.930533 235.753278,272.122392 C235.451786,269.688033 235.143318,267.241217 234.836095,264.861675 C234.597643,262.9705 234.440418,261.677325 234.330038,260.556075 C234.213926,259.267883 234.133943,257.989658 234.084608,256.723892 C234.079625,256.58685 234.074642,256.444825 234.069658,256.300308 C236.342058,249.29125 241.90595,232.285625 243.241483,229.779008 C244.935817,226.607117 245.152592,222.236733 238.965783,217.89625 C235.741567,215.635062 232.560705,211.69499 229.595622,207.80799 C231.982638,209.130567 234.106784,210.64849 235.92296,212.392158 C240.57241,216.854733 246.602243,227.384517 252.792042,231.722508 C258.97885,236.062992 258.762075,240.435867 257.070233,243.605267 C256.716417,244.26805 256.066092,245.947433 255.258792,248.18495 C255.51045,248.384283 255.754633,248.581125 255.991342,248.770492 C261.961375,253.604325 266.979592,260.62335 267.552675,261.37085 C268.125758,262.11835 268.207983,265.808508 267.886558,266.792717 C267.879083,266.815142 267.866625,266.845042 267.849183,266.874942 L267.856658,266.882417 C268.539375,267.450517 267.642375,269.658133 265.850867,271.810933 C264.3459,273.619883 262.688942,274.813392 261.791942,274.813392 C261.620017,274.813392 261.477992,274.771033 261.368358,274.678842 C261.368358,274.678842 256.252967,270.754467 249.41085,265.477117 C248.827302,267.258658 248.306543,268.858308 247.895418,270.126567 C247.97266,272.408933 248.147077,274.73615 248.453552,277.078317 C248.907035,280.549208 249.368492,284.204483 249.807025,287.789992 L256.604292,286.5317 L257.800292,292.977642 L258.8144,292.790767 L259.968042,299 M254.40415,250.604358 C254.050333,251.615975 253.679075,252.692375 253.300342,253.803658 C258.139158,258.136667 262.422333,261.988783 265.068483,264.370817 C265.25785,264.054375 265.427283,263.6881 265.432267,263.396575 C265.444725,262.728808 265.133267,261.928983 264.821808,261.129158 C264.532775,260.389133 257.959758,253.517117 254.40415,250.604358 M115.328785,299 L103.194867,299 L105.492183,285.774233 C105.559458,285.385533 104.723504,284.864775 103.174933,284.2593 C103.001763,284.189533 102.819871,284.122258 102.629258,284.052492 L103.297025,280.210342 C103.31048,280.1331 103.282573,280.048383 103.215548,279.958683 C103.215298,279.958683 103.215049,279.958683 103.2148,279.958683 C103.214302,279.958683 103.213803,279.956192 103.213554,279.956192 C103.059071,279.751875 102.700769,279.52015 102.161822,279.263508 C102.161323,279.261017 102.160825,279.261017 102.160576,279.261017 C102.158832,279.261017 102.157088,279.261017 102.155343,279.258525 C102.152603,279.258525 102.149862,279.256033 102.147121,279.256033 L102.146623,279.256033 C101.852606,279.1165 101.505766,278.969492 101.109591,278.8175 C102.651434,273.019392 104.444687,264.981275 105.262203,256.551967 C111.035893,254.929892 112.330563,252.07195 112.778564,248.487687 C113.0818,246.061552 112.953978,242.453867 112.800491,239.930058 C112.783298,239.645261 112.765857,239.374167 112.748415,239.120017 L179.001583,239.120017 C181.087357,244.87203 183.094643,250.360175 183.12255,250.499708 C183.499788,251.187408 183.848123,252.014642 184.194714,252.946525 L126.576168,252.946525 C126.583643,253.071108 126.591118,253.198183 126.601085,253.330242 C126.611052,253.4922 126.621018,253.659142 126.630985,253.831067 C126.635968,253.900833 126.640952,253.973092 126.643443,254.042858 C126.648427,254.122592 126.65341,254.199833 126.658393,254.282058 C126.795435,256.761267 126.887627,260.050267 126.606068,262.315192 C126.39926,263.9572 126.015543,265.449708 125.103593,266.7379 C124.191643,268.026092 122.748968,269.11495 120.429227,269.949658 L120.406802,269.959625 C120.212452,270.029392 120.010627,270.096667 119.803818,270.163942 L119.783885,270.171417 C119.559635,270.241183 119.32791,270.31095 119.08871,270.378225 C118.278918,278.730292 116.512327,286.69615 114.979952,292.4818 L116.634418,292.798242 L115.328785,299 M214.013486,232.305807 L214.013486,230.726589 C214.1737,231.252829 214.165727,231.801743 214.013486,232.305807 M227.839993,205.490989 C225.7749,202.761119 223.839124,200.237808 222.0972,198.5659 C219.749552,196.31144 216.9843,194.515447 214.013486,193.06131 L214.013486,79.511575 L222.522777,79.511575 C225.455468,79.511575 227.839993,81.8961 227.839993,84.8263 L227.839993,205.490989" id="Fill-3" fill="#E3E3E3" mask="url(#mask-2)"></path>
                </g>
                <path d="M97.1828664,191.387807 L97.9042431,281 L61,281 C61.1636112,277.727833 63.9152542,223.334883 65.5885507,217.912718 C67.3114263,212.321731 87.2744725,188.783479 90.8441716,186.740237 C91.7737807,186.208944 92.9165802,185.970607 94.039548,186.002882 C95.1302894,186.035157 96.1863254,186.385214 97.1084976,186.968643 L104,191.33567 L97.1828664,191.387807" id="Fill-5" fill="#F0AE74"></path>
                <path d="M80.3096173,231 C80.2675916,230.976012 80.2271128,230.952271 80.1886966,230.929271 C80.2343319,230.868682 80.2797094,230.808093 80.3248291,230.747504 C82.1559141,228.292037 83.6995223,225.962694 85,223.746121 L85,224.05426 C83.6897249,226.254758 82.1409601,228.565306 80.3096173,231 M79.3847931,230.052089 C78.7734861,228.593004 77.1788281,223.936544 78.5257146,217.609802 C80.2245345,217.718863 81.9241279,217.86304 83.6293935,218.213715 C83.7980121,218.248338 84.3043837,218.375204 85,218.559197 L85,221.56417 C83.5664837,224.145267 81.7243122,226.922723 79.3847931,230.052089 M85,217.47799 C82.9023223,217.155755 80.7783462,216.97646 78.6713867,216.966568 C78.8183479,216.355978 78.9928965,215.731292 79.1983844,215.093004 C80.8043867,210.104911 82.8724144,206.502207 85,204 L85,217.47799" id="Fill-6" fill="#E5A36B"></path>
                <path d="M78.8500451,218 C77.2339827,217.843642 75.6187165,217.733385 74,217.460622 C75.5797017,217.147906 77.1899252,217 78.8104995,217 C78.8736663,217 78.9368332,217.000384 79,217.000768 C78.9466532,217.336535 78.8964913,217.669996 78.8500451,218" id="Fill-7" fill="#DF9C66"></path>
                <path d="M85,219 C84.3553423,218.768944 83.8860659,218.609627 83.7297997,218.566149 C82.1494564,218.125776 80.5743698,217.94472 79,217.807764 C79.0418143,217.540994 79.0869738,217.271429 79.1350006,217 C81.087611,217.012422 83.0559914,217.237578 85,217.642236 L85,219" id="Fill-8" fill="#DD9A65"></path>
                <path d="M78,235 C78.4055854,233.71712 79.005086,232.53125 79.7837988,231.477717 C79.9017015,231.317663 80.0190494,231.158152 80.1350102,231 C80.2776031,231.347826 80.3705382,231.530163 80.3705382,231.530163 C80.3705382,231.530163 80.5852598,231.71087 81,231.963859 C80.9398003,232.045924 80.8790457,232.128261 80.8182911,232.21087 L78,235" id="Fill-9" fill="#DF9C66"></path>
                <path d="M80.7158272,231 C80.3726066,230.778737 80.1949125,230.620692 80.1949125,230.620692 C80.1949125,230.620692 80.1180036,230.461222 80,230.157015 C82.0831994,227.149647 83.723541,224.480472 85,222 L85,224.096887 C83.8420038,226.227046 82.4675146,228.465579 80.8370449,230.825319 C80.7968685,230.883546 80.7564626,230.941773 80.7158272,231" id="Fill-10" fill="#DD9A65"></path>
                <path d="M113.045278,249.279995 C113.423528,246.328107 113.151661,241.638738 112.969217,239.239013 C113.471324,236.492995 112.828657,234.118596 112.789342,232.381616 C112.747971,230.574174 112.273102,227.482115 111.931597,225.463537 C111.903845,223.909358 111.698788,222.473033 111.598058,221.613445 C111.390945,219.844619 108.321257,212.889428 107.063419,210.095014 C110.977234,210.881883 114.293094,209.561909 114.957088,206.877828 C115.523436,204.584673 110.355895,198.192427 107.008686,194.355625 C106.308203,193.552457 100,189 100,189 L102.556018,258 C110.862885,256.543114 112.51953,253.383601 113.045278,249.279995" id="Fill-11" fill="#E4A16A"></path>
                <path d="M114,204.972719 C113.63349,205.01447 113.204455,205.020835 112.844539,204.900418 C112.026712,204.626998 110.225539,202.044528 110.071841,201.336538 C109.941335,200.747183 109.978622,199.098517 110.266692,198 C110.293293,198.034368 110.317848,198.068482 110.343541,198.101832 C110.52725,198.345212 110.701865,198.575862 110.867386,198.793784 C112.569429,201.027732 113.602114,202.979604 113.930427,204.564116 L113.935429,204.586774 C113.96294,204.718392 113.984312,204.84721 114,204.972719" id="Fill-12" fill="#F6E2CA"></path>
                <path d="M113.105,240 C113.0705,239.648108 113.035,239.31375 113,239 L113.0005,239 C113.0355,239.31375 113.0705,239.648416 113.105,240" id="Fill-13" fill="#DDA477"></path>
                <path d="M105.120568,256 C105.389528,253.661743 105.554922,251.194664 105.564712,248.637895 C105.571153,248.240731 105.574502,247.843082 105.574502,247.446648 C105.574502,244.57803 105.400348,241.736878 105,239.000243 L106.162142,239.000243 C106.553215,241.444961 106.768332,243.852733 106.849226,246.186128 C107.991015,245.647503 109.067626,244.904705 109.973175,243.889678 C111.496248,242.181439 112.28973,240.535909 112.676167,239 L112.852124,239 C112.870157,239.247923 112.888449,239.512132 112.906225,239.790195 C112.940231,240.320313 112.972949,240.899287 113,241.505483 C112.473416,242.579574 111.762632,243.616963 110.880527,244.609385 C109.725341,245.904906 108.331337,246.803506 106.878079,247.416508 C106.922906,250.290473 106.768589,253.039505 106.498084,255.586795 C106.06914,255.735062 105.610569,255.871177 105.120568,256" id="Fill-14" fill="#DD9A65"></path>
                <path d="M90.3178841,239 C87.3856581,239 85,236.621224 85,233.69715 L85,71.3030981 C85,68.3790249 87.3856581,66 90.3178841,66 L208.682116,66 C211.614342,66 214,68.3790249 214,71.3030981 L214,233.69715 C214,236.621224 211.614342,239 208.682116,239 L90.3178841,239" id="Fill-15" fill="#32526E"></path>
                <polyline id="Fill-16" fill="#F2F2F2" points="203.877138 232 93 228.33988 98.122862 74 209 77.66012 203.877138 232"></polyline>
                <polyline id="Fill-17" fill="#E6E6E6" points="208 224.214925 97.104972 230 89 75.7850753 199.895278 70 208 224.214925"></polyline>
                <polyline id="Fill-18" fill="#F2F2F2" points="91 226.737717 201.842962 229 205 74.2620333 94.1570376 72 91 226.737717"></polyline>
                <polygon id="Fill-19" fill="#FFFFFF" points="94 228 205 228 205 74 94 74"></polygon>
                <path d="M111.021814,106.98785 C114.475735,106.98785 116.493382,105.737927 116.493382,103.054979 C116.493382,100.585445 114.53701,99.4572623 111.021814,99.4572623 L107.53701,99.4572623 L107.53701,106.98785 L111.021814,106.98785 Z M110.502206,97.5062276 C113.925735,97.5062276 115.331618,96.2560596 115.331618,94.2133524 C115.331618,91.8963612 113.742157,91.0121497 110.624265,91.0121497 L107.53701,91.0121497 L107.53701,97.5062276 L110.502206,97.5062276 Z M105,89 L110.960539,89 C115.02598,89 117.838235,90.3719091 117.838235,93.8779534 C117.838235,95.85979 116.79902,97.6279687 114.903922,98.2378962 L114.903922,98.3598817 C117.318627,98.8170217 119,100.402589 119,103.146407 C119,107.079278 115.881863,109 111.38848,109 L105,109 L105,89 Z" id="Fill-20" fill="#32526E"></path>
                <path d="M132.728042,100.776574 C132.728042,97.7018473 131.339821,96.0393365 128.941615,96.0393365 C126.796158,96.0393365 124.839694,97.7647355 124.524201,100.776574 L132.728042,100.776574 Z M122,102.031318 C122,97.0430312 125.376311,94 128.878617,94 C132.79104,94 135,96.7922333 135,101.152897 C135,101.686188 134.968375,102.250924 134.905377,102.627498 L124.555826,102.627498 C124.745071,105.85869 126.732908,107.929471 129.667478,107.929471 C131.11895,107.929471 132.349551,107.458816 133.485277,106.737363 L134.400385,108.431318 C133.075161,109.278296 131.434443,110 129.351984,110 C125.24981,110 122,107.019605 122,102.031318 Z" id="Fill-21" fill="#32526E"></path>
                <path d="M138,94.3615476 L140.097786,94.3615476 L140.313724,96.4699717 L140.406233,96.4699717 C141.825288,95.0844014 143.36777,94 145.43439,94 C148.580946,94 150,95.9879082 150,99.7229342 L150,109 L147.470586,109 L147.470586,100.054293 C147.470586,97.3133413 146.606835,96.1386134 144.632477,96.1386134 C143.089995,96.1386134 142.041225,96.9216043 140.529662,98.3975011 L140.529662,109 L138,109 L138,94.3615476" id="Fill-22" fill="#32526E"></path>
                <path d="M164.728251,100.776574 C164.728251,97.7018473 163.339749,96.0393365 160.94175,96.0393365 C158.795999,96.0393365 156.839749,97.7647355 156.52425,100.776574 L164.728251,100.776574 Z M154,102.031318 C154,97.0430312 157.376124,94 160.878751,94 C164.79125,94 167,96.7922333 167,101.152897 C167,101.686188 166.968374,102.250924 166.905375,102.627498 L156.555623,102.627498 C156.745125,105.85869 158.733,107.929471 161.667374,107.929471 C163.118874,107.929471 164.3495,107.458816 165.485501,106.737363 L166.400627,108.431318 C165.075377,109.278296 163.434627,110 161.351874,110 C157.249873,110 154,107.019605 154,102.031318 Z" id="Fill-23" fill="#32526E"></path>
                <path d="M171.055352,96.2681463 L169,96.2681463 L169,94.3840122 L171.055352,94.2322192 L171.055352,91.8924624 C171.055352,88.8841341 172.456717,87 175.477443,87 C176.411853,87 177.315049,87.2127052 178,87.4863225 L177.439404,89.4006689 C176.878808,89.1575077 176.287248,89.0359271 175.726652,89.0359271 C174.294074,89.0359271 173.608873,90.0083283 173.608873,91.8924624 L173.608873,94.2322192 L176.816631,94.2322192 L176.816631,96.2681463 L173.608873,96.2681463 L173.608873,109 L171.055352,109 L171.055352,96.2681463" id="Fill-24" fill="#32526E"></path>
                <path d="M179.526375,110 L182.403573,110 L182.403573,94.5492972 L179.526375,94.5492972 L179.526375,110 Z M179,89.6849936 C179,88.6676245 179.877198,88 181,88 C182.122802,88 183,88.6676245 183,89.6849936 C183,90.6704981 182.122802,91.3699871 181,91.3699871 C179.877198,91.3699871 179,90.6704981 179,89.6849936 Z" id="Fill-25" fill="#32526E"></path>
                <path d="M188.152961,104.889592 L188.152961,96.4039459 L186,96.4039459 L186,94.4479575 L188.272357,94.2903756 L188.571326,90 L190.63462,90 L190.63462,94.2903756 L194.551666,94.2903756 L194.551666,96.4039459 L190.63462,96.4039459 L190.63462,104.921209 C190.63462,106.813962 191.202589,107.88643 192.877008,107.88643 C193.385519,107.88643 194.043395,107.665613 194.521697,107.476413 L195,109.432149 C194.19276,109.715948 193.205946,110 192.309039,110 C189.199233,110 188.152961,107.918047 188.152961,104.889592" id="Fill-26" fill="#32526E"></path>
                <polygon id="Fill-27" fill="#32526E" points="122 184 184 184 184 183 122 183"></polygon>
                <polygon id="Fill-28" fill="#32526E" points="122 194 184 194 184 193 122 193"></polygon>
                <polygon id="Fill-29" fill="#32526E" points="122 204 184 204 184 203 122 203"></polygon>
                <polygon id="Fill-30" fill="#FBC02D" points="99 174 199 174 199 167 99 167"></polygon>
                <polygon id="Fill-31" fill="#FBC02D" points="99 218 199 218 199 211 99 211"></polygon>
                <polygon id="Fill-32" fill="#FBC02D" points="99 129 199 129 199 122 99 122"></polygon>
                <polygon id="Fill-33" fill="#32526E" points="99 183 104 183 104 180 99 180"></polygon>
                <polygon id="Fill-34" fill="#32526E" points="106 183 118 183 118 180 106 180"></polygon>
                <polygon id="Fill-35" fill="#32526E" points="102 171 130 171 130 168 102 168"></polygon>
                <polygon id="Fill-36" fill="#32526E" points="102 216 117 216 117 213 102 213"></polygon>
                <polygon id="Fill-37" fill="#32526E" points="102 126 119 126 119 123 102 123"></polygon>
                <polygon id="Fill-38" fill="#FBC02D" points="181 141 200 141 200 140 181 140"></polygon>
                <polygon id="Fill-39" fill="#FBC02D" points="190 151 199 151 199 150 190 150"></polygon>
                <polygon id="Fill-40" fill="#FBC02D" points="190 160 199 160 199 159 190 159"></polygon>
                <polygon id="Fill-41" fill="#FBC02D" points="177 160 186 160 186 159 177 159"></polygon>
                <polygon id="Fill-42" fill="#FBC02D" points="144 140 153 140 153 139 144 139"></polygon>
                <polygon id="Fill-43" fill="#FBC02D" points="144 151 153 151 153 150 144 150"></polygon>
                <polygon id="Fill-44" fill="#FBC02D" points="144 161 153 161 153 160 144 160"></polygon>
                <polygon id="Fill-45" fill="#FBC02D" points="124 186 133 186 133 185 124 185"></polygon>
                <polygon id="Fill-46" fill="#FBC02D" points="124 196 133 196 133 195 124 195"></polygon>
                <polygon id="Fill-47" fill="#FBC02D" points="124 207 133 207 133 206 124 206"></polygon>
                <polygon id="Fill-48" fill="#32526E" points="99 193 104 193 104 190 99 190"></polygon>
                <polygon id="Fill-49" fill="#32526E" points="106 193 118 193 118 190 106 190"></polygon>
                <polygon id="Fill-50" fill="#32526E" points="99 203 104 203 104 200 99 200"></polygon>
                <polygon id="Fill-51" fill="#32526E" points="106 203 118 203 118 200 106 200"></polygon>
                <polygon id="Fill-52" fill="#32526E" points="122 138 200 138 200 137 122 137"></polygon>
                <polygon id="Fill-53" fill="#32526E" points="122 148 200 148 200 147 122 147"></polygon>
                <polygon id="Fill-54" fill="#32526E" points="122 158 200 158 200 157 122 157"></polygon>
                <polygon id="Fill-55" fill="#32526E" points="99 137 104 137 104 134 99 134"></polygon>
                <polygon id="Fill-56" fill="#32526E" points="106 137 118 137 118 134 106 134"></polygon>
                <polygon id="Fill-57" fill="#32526E" points="99 147 104 147 104 144 99 144"></polygon>
                <polygon id="Fill-58" fill="#32526E" points="106 147 118 147 118 144 106 144"></polygon>
                <polygon id="Fill-59" fill="#32526E" points="99 157 104 157 104 154 99 154"></polygon>
                <polygon id="Fill-60" fill="#32526E" points="106 157 118 157 118 154 106 154"></polygon>
                <path d="M190.113176,186.886824 L195.886824,186.886824 L195.886824,181.113176 L190.113176,181.113176 L190.113176,186.886824 Z M189,188 L197,188 L197,180 L189,180 L189,188 Z" id="Fill-61" fill="#32526E"></path>
                <path d="M190.112954,196.887046 L195.887046,196.887046 L195.887046,191.112954 L190.112954,191.112954 L190.112954,196.887046 Z M189,198 L197,198 L197,190 L189,190 L189,198 Z" id="Fill-62" fill="#32526E"></path>
                <path d="M190.112954,206.887046 L195.887046,206.887046 L195.887046,201.112954 L190.112954,201.112954 L190.112954,206.887046 Z M189,208 L197,208 L197,200 L189,200 L189,208 Z" id="Fill-63" fill="#32526E"></path>
                <polygon id="Fill-64" fill="#FBC02D" points="104 137 105 137 105 134 104 134"></polygon>
                <polygon id="Fill-65" fill="#FBC02D" points="104 147 105 147 105 144 104 144"></polygon>
                <polygon id="Fill-66" fill="#FBC02D" points="104 157 105 157 105 154 104 154"></polygon>
                <polygon id="Fill-67" fill="#FBC02D" points="104 183 105 183 105 180 104 180"></polygon>
                <polygon id="Fill-68" fill="#FBC02D" points="104 193 105 193 105 190 104 190"></polygon>
                <polygon id="Fill-69" fill="#FBC02D" points="104 203 105 203 105 200 104 200"></polygon>
                <path d="M149.5,65.9018831 C146.968951,65.9018831 144.917133,63.8709259 144.917133,61.3653053 C144.917133,58.8596847 146.968951,56.8284806 149.5,56.8284806 C152.031049,56.8284806 154.082617,58.8596847 154.082617,61.3653053 C154.082617,63.8709259 152.031049,65.9018831 149.5,65.9018831 Z M162.72349,63.2753134 L160.048822,63.2753134 C160.048822,58.1529965 155.326574,54 149.501247,54 C143.673426,54 138.951178,58.1529965 138.951178,63.2753134 L136.27651,63.2753134 C126.737016,63.2753134 119,69.8692598 119,78 L180,78 C180,69.8692598 172.262984,63.2753134 162.72349,63.2753134 Z" id="Fill-70" fill="#E74B3C"></path>
                <path d="M119,78 L180,78 C180,77.320998 179.940905,76.6536946 179.829447,76 L119.170304,76 C119.058846,76.6536946 119,77.320998 119,78" id="Fill-71" fill="#C1392B"></path>
                <path d="M104.591931,219.16474 C103.374833,227.948157 103.637393,234.758109 103.637393,234.758109 C107.183171,250.309119 102.604332,270.738975 99.7480785,281 L93.8809805,281 C86.7035394,268.556202 72.7658077,241.620388 80.0463094,231.406706 C86.907207,221.776093 89.6334077,214.06662 90.700822,207.4585 C90.870136,206.411965 92.0234342,201.642756 92.3841466,200.160165 L93.6674977,193.023794 C93.677313,192.9615 93.6895821,192.901698 93.7018512,192.839404 C94.4993447,188.954767 98.2095296,186.403215 102.074306,187.120839 C105.021351,187.666532 107.087472,189.986351 107.833435,192.744718 C108.518053,195.276336 106.905889,204.979209 106.363593,207.336404 C106.191826,208.081437 104.734253,218.135647 104.591931,219.16474" id="Fill-72" fill="#F0AE74"></path>
                <path d="M107,239.0005 L106,239.0005 L106,239 L107,239 C107,239.0005 107,239.0005 107,239.0005" id="Fill-73" fill="#CB8F5E"></path>
                <polygon id="Fill-74" fill="#C5895A" points="105 239.0005 106 239.0005 106 239 105 239"></polygon>
                <path d="M107,239 L104.764103,239 C104.573382,237.630577 104.328938,236.287811 104.023687,234.97994 C104.023687,234.97994 104,234.376774 104,233.299847 C104,232.495544 104.013431,231.426371 104.059829,230.147096 L106.887912,230 C106.589499,234.610867 106.709402,237.645602 106.709402,237.645602 C106.814408,238.093917 106.912088,238.544657 107,239" id="Fill-75" fill="#2D4962"></path>
                <path d="M104,230 C104.018968,229.372997 104.043428,228.705341 104.074626,228 L107,228 C106.958569,228.626113 106.92213,229.233531 106.890433,229.819881 L104,230" id="Fill-76" fill="#CDCDCD"></path>
                <path d="M107.895823,228 L105,228 C105.130943,225.488665 105.381712,222.417568 105.850637,219.057496 C105.850884,219.055503 105.851131,219.05351 105.851378,219.051268 C105.882014,218.831797 105.96898,218.229934 106.088806,217.406357 L109.20748,217.406357 C108.894204,219.531563 108.625153,221.386229 108.567834,221.797768 C108.258017,224.017139 108.043567,226.110707 107.895823,228 M110.250332,210.535499 L107.106458,210.535499 C107.364144,208.833541 107.575136,207.487071 107.634431,207.231976 C107.816516,206.445518 108.118921,204.841961 108.415396,202.959643 L111.527894,202.959643 C111.141982,205.921628 110.617961,208.821832 110.351628,209.972249 C110.332357,210.054457 110.297521,210.250511 110.250332,210.535499 M111.891817,199.581635 L108.891486,199.581635 C109.21588,196.943002 109.408095,194.351452 109.189691,193 L110.772376,193 C111.24303,193.726919 111.60053,194.534552 111.831534,195.384037 C112.054385,196.19989 112.036596,197.761596 111.891817,199.581635" id="Fill-77" fill="#E3E3E3"></path>
                <path d="M108.997625,218 L106,218 C106.071242,217.480729 106.154833,216.874914 106.24531,216.221638 L109.24626,216.221638 C109.162194,216.819078 109.078604,217.419057 108.997625,218 M109.735455,212.778616 L106.725956,212.778616 C106.812396,212.164932 106.897649,211.562924 106.978152,211 L110,211 C109.933507,211.425111 109.841843,212.044125 109.735455,212.778616" id="Fill-78" fill="#DFAB28"></path>
                <path d="M109.439341,216 L106,216 C106.170919,215.06192 106.363612,214.011499 106.550861,213 L110,213 C109.83398,213.871738 109.636661,214.930119 109.439341,216" id="Fill-79" fill="#2D4962"></path>
                <path d="M111,193 L109.118281,193 C109.093019,192.892197 109.063351,192.794045 109.028689,192.706366 C109.02722,192.702259 109.025458,192.698357 109.023989,192.694251 C109.023402,192.692813 109.022814,192.691581 109.022227,192.690144 C109.021345,192.68768 109.02017,192.68501 109.019289,192.682341 C109.018408,192.680698 109.01782,192.67885 109.017233,192.677207 C109.016352,192.674743 109.015177,192.672485 109.014296,192.670021 C109.013708,192.668378 109.013121,192.666735 109.012239,192.665092 C109.010771,192.661602 109.009302,192.657906 109.007833,192.654209 C109.007246,192.652567 109.006658,192.650719 109.005777,192.649076 C109.004896,192.646612 109.004014,192.644353 109.003133,192.642094 C109.002252,192.640041 109.001371,192.637988 109.00049,192.635729 C108.999608,192.634086 108.999021,192.632238 108.998433,192.630595 C108.997258,192.628131 108.996377,192.625873 108.995496,192.623614 C108.994908,192.622177 108.994321,192.620739 108.993733,192.619507 C108.950553,192.51499 108.904142,192.411088 108.854499,192.308214 C108.633604,191.850719 108.346911,191.411704 108,191 C109.223441,191.489322 110.236855,192.182957 111,193" id="Fill-80" fill="#2D4962"></path>
                <path d="M111.581266,203 L108,203 C108.19359,202.050664 108.385189,201.021018 108.547793,200 L112,200 C111.901926,200.949779 111.753536,201.978982 111.581266,203" id="Fill-81" fill="#2D4962"></path>
                <path d="M105,219 C105.136457,217.933697 106.482374,207.876482 106.641346,207.132597 C106.586764,207.388729 106.39254,208.74068 106.155333,210.449566 C106.078235,211.004354 105.996589,211.597662 105.913805,212.202475 C105.757335,213.346569 105.596316,214.534685 105.453491,215.595735 C105.366841,216.239569 105.286786,216.836628 105.218558,217.348394 C105.108256,218.175322 105.028201,218.779636 105,219 M108,192.470244 C107.999545,192.468493 107.99909,192.466992 107.998635,192.465241 C107.99909,192.466992 107.999545,192.468493 108,192.470244 M107.996361,192.455736 C107.995679,192.453735 107.995224,192.451484 107.994769,192.449483 C107.995224,192.451484 107.995679,192.453735 107.996361,192.455736 M107.992495,192.440729 C107.99204,192.438727 107.991585,192.436726 107.990903,192.434725 C107.991585,192.436726 107.99204,192.438727 107.992495,192.440729 M107.987491,192.421469 C107.987037,192.419468 107.986582,192.417216 107.985899,192.415215 C107.986582,192.417216 107.987037,192.419468 107.987491,192.421469 M107.983853,192.406711 C107.98317,192.40421 107.982488,192.401708 107.981806,192.398957 C107.982488,192.401708 107.98317,192.40421 107.983853,192.406711 M107.980214,192.392704 C107.979304,192.389702 107.978622,192.386951 107.97794,192.384199 C107.978622,192.386951 107.979304,192.389702 107.980214,192.392704 M107.976575,192.379197 C107.947009,192.266638 107.915624,192.15483 107.881965,192.044023 C107.877644,192.029265 107.873095,192.014758 107.868774,192 C107.907209,192.125315 107.943143,192.251881 107.976575,192.379197" id="Fill-82" fill="#D69B67"></path>
                <path d="M101.122302,200.995098 C102.744161,200.910521 105.431519,199.731778 107,193.437276 C107,193.437276 106.301215,190.039469 102.433903,189.169317 C98.5660787,188.29942 96.4520168,191.064551 96.4520168,191.064551 C94.8873852,198.505794 97.7802984,200.26413 99.1265437,200.677617 C99.5055762,200.793942 100.30778,201.037514 101.122302,200.995098" id="Fill-83" fill="#F6E2CA"></path>
                <path d="M100,200 C99.8449178,199.977751 99.6979061,199.948522 99.5635452,199.91733 L99.5600553,199.91624 C99.6955068,199.947868 99.8438273,199.977533 100,200 M99.4826232,199.897481 C99.2950414,199.851892 99.1369056,199.803468 99.0221754,199.766823 C99.1369056,199.802378 99.2954777,199.85102 99.4826232,199.897481 M97.2259706,198.386738 C97.2257525,198.386302 97.2255344,198.386084 97.2253163,198.385865 C97.2255344,198.386084 97.2257525,198.386302 97.2259706,198.386738 M97.2185546,198.375395 C97.2181184,198.374959 97.2179002,198.374305 97.217464,198.37365 C97.2179002,198.374305 97.2181184,198.374959 97.2185546,198.375395 M97.2113567,198.364271 C97.2107023,198.363398 97.210048,198.362308 97.2093936,198.361435 C97.210048,198.362526 97.2107023,198.363398 97.2113567,198.364271 M97.2039407,198.352928 C97.2030682,198.35162 97.2024138,198.350529 97.2015414,198.34922 C97.2024138,198.350529 97.2030682,198.35162 97.2039407,198.352928 M97.1965246,198.341368 C97.1954341,198.339841 97.1945616,198.338314 97.1936891,198.336787 C97.1945616,198.338314 97.1954341,198.339841 97.1965246,198.341368 M97.1901992,198.331552 C97.1886724,198.329153 97.1871456,198.326753 97.1856187,198.324354 C97.1871456,198.326753 97.1886724,198.329153 97.1901992,198.331552 M97.1834375,198.320864 C97.1814745,198.31781 97.1795114,198.314756 97.1777665,198.311921 C97.1795114,198.314974 97.1814745,198.31781 97.1834375,198.320864 M97.1762396,198.309739 C97.1740585,198.306249 97.1718773,198.302541 97.1696961,198.298833 C97.1718773,198.302541 97.1740585,198.306031 97.1762396,198.309739 M97.1692599,198.298397 C97.1245456,198.226851 97.0809219,198.151816 97.0388251,198.073727 C97.0809219,198.151816 97.1245456,198.226851 97.1692599,198.298397 M97.0383888,198.072854 C97.0362076,198.068928 97.0340265,198.065002 97.0318453,198.060857 C97.0340265,198.064784 97.0362076,198.068928 97.0383888,198.072854 M97.0305366,198.058458 C97.0287916,198.055186 97.0270467,198.051914 97.0253017,198.048642 C97.0270467,198.051914 97.0287916,198.055186 97.0305366,198.058458 M97.0229024,198.044062 C97.0215937,198.041444 97.020285,198.039045 97.0187582,198.036209 C97.020285,198.039045 97.0215937,198.041444 97.0229024,198.044062 M97.0154864,198.03032 C97.0146139,198.028138 97.0135233,198.026175 97.0124327,198.024212 C97.0135233,198.026175 97.0146139,198.028138 97.0154864,198.03032 M97.0080704,198.015923 C97.007416,198.014833 97.0067617,198.013524 97.0063254,198.012215 C97.0069798,198.013524 97.007416,198.014614 97.0080704,198.015923 M97.0006544,198.001527 C97.0004362,198.001091 97.0002181,198.000654 97,198 C97.0002181,198.000654 97.0004362,198.001091 97.0006544,198.001527" id="Fill-84" fill="#FAE7D5"></path>
                <path d="M100.752799,200 C100.5547,200 100.359834,199.984395 100.175588,199.960026 C100.010274,199.938008 99.8532728,199.908935 99.7098934,199.877939 L99.7048139,199.876229 L99.6985801,199.873664 L99.6930388,199.873878 L99.6916535,199.873664 C99.6701812,199.868961 99.6489399,199.864258 99.6279293,199.859555 C99.4298303,199.814023 99.2619771,199.766353 99.1405318,199.731509 C99.1375303,199.730654 99.1347597,199.729799 99.1319891,199.728944 C98.6148074,199.58059 97.8431908,199.224882 97.2391965,198.379008 C97.2389656,198.378581 97.2387348,198.378367 97.2385039,198.378153 C97.236195,198.374733 97.2338862,198.371526 97.2313464,198.367892 C97.2308847,198.367465 97.2306538,198.366823 97.230192,198.366182 C97.2281141,198.363189 97.2258052,198.359983 97.2237272,198.35699 C97.2230346,198.356135 97.2223419,198.35528 97.2216493,198.354211 C97.2198022,198.351432 97.2177242,198.348653 97.2158772,198.345874 C97.2149536,198.344592 97.214261,198.343523 97.2133374,198.34224 C97.2114904,198.339675 97.2096433,198.33711 97.2080271,198.334545 C97.2068727,198.333048 97.2059491,198.331552 97.2050256,198.330056 C97.2036403,198.328345 97.2024859,198.326635 97.2013314,198.324925 C97.1997152,198.322574 97.198099,198.320222 97.1964829,198.317871 C97.1957902,198.316802 97.1948667,198.315519 97.194174,198.314451 C97.192096,198.311458 97.1900181,198.308679 97.188171,198.305686 C97.1874784,198.304831 97.1872475,198.30419 97.1865548,198.303549 C97.184246,198.299914 97.1819371,198.296494 97.1796283,198.29286 C97.1793974,198.29286 97.1793974,198.292646 97.1791665,198.292433 C97.1318351,198.222317 97.0856582,198.148782 97.0410975,198.072253 C97.0408666,198.071826 97.0406357,198.071826 97.0406357,198.071398 C97.0383269,198.06755 97.036018,198.063489 97.0337092,198.059641 C97.0332474,198.059 97.0327856,198.058145 97.0323239,198.057289 C97.0304768,198.054083 97.0286297,198.050876 97.0267826,198.04767 C97.02609,198.046174 97.0251664,198.044677 97.0242429,198.043181 C97.0228576,198.040616 97.0214723,198.038264 97.0198561,198.035485 C97.0187017,198.033561 97.0175472,198.031637 97.0163928,198.029714 C97.0154693,198.027576 97.0143148,198.025652 97.0131604,198.023728 C97.0115442,198.020949 97.0101589,198.018384 97.0085427,198.015605 C97.0078501,198.014322 97.0073883,198.013254 97.0066957,198.011971 C97.0046177,198.008551 97.0027706,198.00513 97.0006927,198.001496 C97.0004618,198.001069 97.0002309,198.000641 97,198 C97.0062339,198 97.0124678,198 97.0189325,198 C97.9353138,198 98.9826067,198.111159 100.075384,198.340958 C101.171624,198.571612 102.173202,198.892048 103,199.260368 C102.241082,199.793929 101.507792,199.967294 100.92781,199.995725 C100.869396,199.998717 100.810982,200 100.752799,200" id="Fill-85" fill="#FCF6EF"></path>
                <path d="M106.958735,194 C106.972248,193.938551 106.985762,193.876826 106.999276,193.814274 C106.999276,193.814274 106.371124,190.290989 102.945124,189.251309 C106.371365,190.290989 107,193.813723 107,193.813723 C106.986245,193.87655 106.97249,193.938551 106.958735,194 M97,191.698264 C97.0243732,191.547534 97.0509182,191.39515 97.0801178,191.239184 C97.0801178,191.239184 98.5644683,189 101.314052,189 C101.71995,189 102.152875,189.048774 102.61307,189.16065 C102.153117,189.048774 101.720191,189 101.314535,189 C98.5647096,189 97.0803591,191.240011 97.0803591,191.240011 C97.0523661,191.394875 97.0255798,191.547534 97.0004826,191.697713 C97.0002413,191.697988 97,191.697988 97,191.698264 M102.740486,189.193166 C102.735177,189.191788 102.729627,189.190135 102.724318,189.188757 C102.729627,189.190135 102.735177,189.191788 102.740486,189.193166" id="Fill-86" fill="#FAE7D5"></path>
                <path d="M106.890428,194 C106.842641,193.734421 106.143216,190.305026 102.647294,189.449561 C102.178356,189.334702 101.735966,189.284808 101.321572,189.284808 C98.6865376,189.284808 97.1696674,191.304454 97,191.544047 C97.0251002,191.402422 97.0518898,191.258459 97.0798861,191.112416 C97.0798861,191.112416 98.5644157,189 101.314573,189 C101.720278,189 102.153256,189.045996 102.613264,189.151499 C102.643916,189.158516 102.674808,189.165792 102.705701,189.173328 C102.711976,189.174887 102.718251,189.176446 102.724526,189.178005 C102.729835,189.179305 102.735386,189.180864 102.740696,189.182163 C102.810204,189.199574 102.878264,189.217764 102.945359,189.236994 C106.371772,190.217452 107,193.540045 107,193.540045 C106.986485,193.599033 106.972969,193.657242 106.959454,193.715192 C106.936526,193.81186 106.913598,193.90671 106.890428,194" id="Fill-87" fill="#FCF6EF"></path>
                <path d="M108.00063,200 L108,200 C108.362198,197.697767 108.595467,195.431514 108.46118,194 C108.596413,195.431514 108.362828,197.697767 108.00063,200" id="Fill-88" fill="#ECC8AB"></path>
                <path d="M108,203 C108.176674,202.048075 108.350956,201.019968 108.499469,200 L108.5,200 C108.351222,201.019968 108.176939,202.048075 108,203" id="Fill-89" fill="#8E7869"></path>
                <path d="M100.535957,279 C99.1088215,278.433248 97.0207657,277.789099 94.4561147,277.117485 C94.306004,277.077538 94.1534839,277.037591 94,276.997644 C97.9539575,268.326591 103.167591,255.855556 103.634308,247.953488 C103.918626,243.117373 102.441615,235.370101 102.523537,229.572755 C102.564498,226.741493 102.783761,222.342301 103.470463,217.293966 C103.610213,216.262827 105.039035,206.186131 105.207698,205.442113 C105.740194,203.080231 107.325632,193.358067 106.653387,190.821416 C106.578693,190.544281 106.491952,190.267147 106.390753,190 C106.965414,190.753006 107.410686,191.617864 107.707534,192.543392 C107.754037,192.6887 107.796926,192.835506 107.83596,192.983561 C107.900775,193.22699 107.944627,193.536581 107.97065,193.899851 C108.073294,195.3402 107.894992,197.620439 107.618143,199.936881 C107.483453,201.063394 107.325391,202.198895 107.16516,203.250257 C106.872649,205.167725 106.572669,206.806062 106.392681,207.604258 C106.224017,208.350773 104.792786,218.424973 104.653036,219.456111 C103.457934,228.256992 103.715748,235.080484 103.715748,235.080484 C104.016933,236.428704 104.257881,237.811878 104.445821,239.222515 L104.446785,239.222515 C104.821218,242.033554 104.984099,244.951951 104.984099,247.898561 C104.984099,248.305773 104.980966,248.714234 104.974943,249.122195 C104.810616,260.164867 102.469083,271.467445 100.535957,279" id="Fill-90" fill="#E5A36B"></path>
                <path d="M105,228 C105.122293,225.488665 105.356497,222.417568 105.794445,219.057496 C105.794676,219.055503 105.794907,219.05351 105.795137,219.051268 C105.794907,219.05351 105.794676,219.055503 105.794445,219.057496 C105.356497,222.417568 105.122293,225.488665 105,228 M107.460404,207.231976 C107.630461,206.445518 107.912658,204.841961 108.189318,202.959643 L108.18978,202.959643 C107.912889,204.841961 107.630461,206.445518 107.460404,207.231976 M108.63442,199.581635 L108.633958,199.581635 C108.899081,197.27034 109.070061,194.995167 108.971072,193.558019 C108.957228,193.354242 108.937846,193.167655 108.912464,193 L108.912925,193 C109.116902,194.351452 108.937384,196.943002 108.63442,199.581635" id="Fill-91" fill="#DFBB9E"></path>
                <path d="M109.212,193.5 L109.211,193.5 C109.1685,193.358338 109.118,193.229358 109.0595,193.114139 C109.1185,193.229358 109.169,193.358338 109.212,193.5 M109.0595,193.114139 C109.057,193.108743 109.054,193.103346 109.0515,193.098219 C109.054,193.103616 109.057,193.108743 109.0595,193.114139 M109.0485,193.092822 C109.047,193.089584 109.045,193.086077 109.0435,193.082569 C109.045,193.086077 109.047,193.089584 109.0485,193.092822 M109.04,193.075823 C109.0385,193.072855 109.0365,193.069617 109.035,193.066379 C109.0365,193.069617 109.0385,193.072585 109.04,193.075823 M109.0315,193.059903 C109.029,193.055316 109.0265,193.050459 109.024,193.045602 C109.0265,193.050459 109.029,193.055316 109.0315,193.059903 M109.0205,193.038856 C109.019,193.035618 109.0175,193.03265 109.016,193.029682 C109.0175,193.03265 109.019,193.035618 109.0205,193.038856 M109.0115,193.021317 C109.0105,193.019158 109.009,193.01673 109.008,193.014571 C109.009,193.01673 109.01,193.019158 109.0115,193.021317 M109.003,193.005397 C109.002,193.003508 109.001,193.001889 109,193 C109.001,193.001619 109.002,193.003508 109.003,193.005397" id="Fill-92" fill="#8C7463"></path>
                <path d="M108.000518,203 L108,203 C108.003888,202.978761 108.007776,202.957301 108.011664,202.936062 C108.184292,202.004425 108.354329,200.99823 108.499482,200 L108.5,200 C108.351737,201.021018 108.177035,202.050664 108.000518,203" id="Fill-93" fill="#8C7463"></path>
                <path d="M104.705377,240 L104.704476,240 C104.528763,238.579665 104.30349,237.186984 104.021898,235.829496 C104.021898,235.829496 103.780856,228.959099 104.898211,220.09772 C105.02887,219.059493 106.366994,208.916042 106.524685,208.164396 C106.692964,207.360713 106.973429,205.711114 107.246911,203.780465 C107.243532,203.804598 107.240153,203.828982 107.236774,203.853115 C106.966671,205.752593 106.691162,207.370769 106.525135,208.164396 C106.367669,208.91202 105.034502,219.019774 104.899338,220.091435 C104.899112,220.093698 104.898887,220.095709 104.898662,220.09772 C104.471093,223.488423 104.242441,226.587517 104.123046,229.121746 C104.024601,231.212277 104.000497,232.918438 104.000497,234.086632 C104.000497,235.203794 104.022349,235.829496 104.022349,235.829496 C104.30394,237.186229 104.529439,238.579163 104.705377,240 M108,194.365784 C107.97567,194.000016 107.934671,193.688297 107.874072,193.443195 C107.837578,193.294122 107.797479,193.146307 107.754002,193 C107.787342,193.111364 107.81843,193.223734 107.847715,193.336858 C107.848166,193.338618 107.848616,193.340126 107.849067,193.341886 C107.849743,193.344651 107.850418,193.347416 107.85132,193.350433 C107.85177,193.352444 107.852446,193.354707 107.852897,193.356718 C107.853572,193.359483 107.854248,193.361997 107.854924,193.364511 C107.8556,193.367276 107.856276,193.370041 107.856951,193.373058 C107.857627,193.375069 107.858078,193.377331 107.858528,193.379342 C107.859655,193.383867 107.860781,193.388392 107.861907,193.392666 C107.862583,193.394677 107.863034,193.396688 107.863484,193.398699 C107.86416,193.401716 107.865061,193.404732 107.865737,193.407498 C107.866188,193.409509 107.866638,193.411771 107.867314,193.413782 C107.86799,193.41705 107.868891,193.420318 107.869567,193.423335 C107.870017,193.425095 107.870468,193.426603 107.870918,193.428363 C107.872045,193.433139 107.873396,193.438167 107.874523,193.443195 C107.90088,193.550537 107.923632,193.6707 107.942781,193.802678 C107.967561,193.971861 107.986484,194.160149 108,194.365784" id="Fill-94" fill="#D99A65"></path>
                <g id="Group-99" transform="translate(50.000000, 272.000000)">
                    <mask id="mask-4" fill="white">
                        <use xlink:href="#path-3"></use>
                    </mask>
                    <g id="Clip-96"></g>
                    <path d="M53.64225,8.49027273 L50.7745,24.6951818 L5.03725,16.8946364 L7.90475,0.687272727 C8.118,-0.515454545 18.5295,0.252818182 31.15975,2.40545455 C43.78975,4.56054545 53.85525,7.28509091 53.64225,8.49027273" id="Fill-95" fill="#DFF3FC" mask="url(#mask-4)"></path>
                    <path d="M55.845,13.9712727 L53.54,27 L0.075,27 L3.9475,5.12018182 C4.19,3.75054545 16.0025,4.62190909 30.335,7.06663636 C44.6675,9.51136364 56.085,12.6040909 55.845,13.9712727" id="Fill-97" fill="#32526E" mask="url(#mask-4)"></path>
                    <path d="M53.54,27 L55.845,13.9712727 C55.91175,13.5908182 55.074,13.0753636 53.52,12.4789091 C55.07375,13.0753636 55.9125,13.5883636 55.845,13.9712727 L53.54,27 M52.9725,12.2751818 L53.64225,8.49027273 C53.65575,8.41418182 53.628,8.33072727 53.56075,8.24236364 C53.628,8.33072727 53.656,8.41418182 53.6425,8.49027273 L52.9725,12.2751818 M53.56,8.24236364 C53.5595,8.24236364 53.559,8.23990909 53.55875,8.23990909 C53.559,8.23990909 53.5595,8.24236364 53.56,8.24236364 M52.5035,7.55754545 C52.503,7.55509091 52.5025,7.55509091 52.50225,7.55509091 C52.5025,7.55509091 52.503,7.55509091 52.5035,7.55754545 M52.497,7.55263636 C52.49425,7.55263636 52.49175,7.55018182 52.48875,7.55018182 C52.4915,7.55018182 52.49425,7.55263636 52.497,7.55263636 M52.48825,7.55018182 C52.19325,7.41272727 51.84525,7.26790909 51.44775,7.11818182 C51.84525,7.26790909 52.19325,7.41272727 52.48825,7.55018182" id="Fill-98" fill="#CACACA" mask="url(#mask-4)"></path>
                </g>
                <path d="M101,279 C99.591844,278.397878 97.5312091,277.713528 95,277 C97.5309713,277.713528 99.5916062,278.397878 101,279" id="Fill-100" fill="#CC915F"></path>
                <g id="Group-104" transform="translate(91.000000, 277.000000)">
                    <mask id="mask-6" fill="white">
                        <use xlink:href="#path-5"></use>
                    </mask>
                    <g id="Clip-102"></g>
                    <path d="M11.9725,7.17101124 C9.91025,6.42449438 6.84025,5.56426966 3.09175,4.68426966 L3.905,0.0543820225 C3.9835,0.0741573034 4.062,0.0939325843 4.1395,0.113707865 C6.80075,0.778651685 8.96725,1.41640449 10.44775,1.97752809 C10.84525,2.12831461 11.19325,2.2741573 11.48825,2.41258427 C11.4885,2.41258427 11.48825,2.41258427 11.48875,2.41258427 C11.49175,2.41258427 11.49425,2.41505618 11.497,2.41505618 C11.49875,2.41752809 11.5005,2.41752809 11.50225,2.41752809 C11.5025,2.41752809 11.503,2.41752809 11.5035,2.42 C12.044,2.67460674 12.4035,2.90449438 12.55875,3.10719101 C12.559,3.10719101 12.5595,3.10966292 12.56,3.10966292 C12.56025,3.10966292 12.5605,3.10966292 12.56075,3.10966292 C12.628,3.19865169 12.65575,3.28269663 12.64225,3.35932584 L11.9725,7.17101124" id="Fill-101" fill="#C7D8E0" mask="url(#mask-6)"></path>
                    <path d="M12.54,22 L0.05,22 L3.09175,4.68426966 C6.84025,5.56426966 9.91025,6.42449438 11.9725,7.17101124 C12.16375,7.24022472 12.34625,7.3094382 12.52,7.37617978 C14.074,7.97685393 14.91175,8.49595506 14.845,8.87910112 L12.54,22" id="Fill-103" fill="#2D4962" mask="url(#mask-6)"></path>
                </g>
                <path d="M243.968275,229.608785 C242.624753,232.115322 237.027583,249.120403 234.741592,256.129237 C234.92407,261.486149 235.169714,261.219549 237.546443,281.075006 L204.449697,287 L204.434658,286.511649 C203.990995,285.198583 202.22637,280.2179 194.486083,272.337011 C187.169406,264.887165 185.933667,254.763847 183.489761,250.328823 C183.43211,250.04229 174.927319,227.064875 174.684182,225.829048 L170.994512,214.71657 C170.989498,214.594482 170.891742,213.199193 167.588083,208.377972 C164.728839,204.214531 165.823208,201.900594 170.124732,200.713851 C173.27549,199.841795 175.985092,201.259508 180.108399,205.355677 C182.108892,207.340974 184.924271,211.416214 185.713089,213.254008 C187.013998,216.278795 191.415535,226.524201 191.621073,227.239286 C192.74151,228.534911 193.96221,229.942658 193.96221,229.942658 C205.775672,238.005433 212.129827,234.218221 212.129827,234.218221 L212.979554,233.871891 C214.498535,233.251485 215.135204,231.45256 214.338114,230.02488 C198.485315,201.537071 205.494185,214.38494 201.394189,205.32827 C200.947017,204.340854 200.036631,204.077742 197.200698,202.50281 C195.639105,201.63823 193.681474,200.96301 184.82075,193.787239 C175.962533,186.611469 176.64432,183.594157 178.423984,181.017856 C178.822529,180.444791 179.419092,180.143309 180.156024,180.041154 C182.700944,179.687348 186.886665,181.703042 190.039428,182.709643 C194.13015,184.02271 196.360997,185.786753 197.373651,186.25268 C197.719558,186.412142 199.564393,187.356453 201.945634,188.60723 C209.332244,190.35159 217.168282,193.118746 222.697524,198.396675 C227.374783,202.859107 233.440682,213.386062 239.667001,217.726407 C245.890814,222.066751 245.672742,226.436995 243.968275,229.608785" id="Fill-105" fill="#F0AE74"></path>
                <path d="M235.996416,272 C235.522771,268.898058 235.168882,266.65534 234.900702,264.927184 C235.268926,267.245146 235.638644,269.628641 236,272 C235.999104,272 235.997312,272 235.996416,272 M234.294162,260.73301 C234.14275,259.480583 234.065402,258.446602 234,257 C234.059131,258.23301 234.154995,259.478155 234.294162,260.73301" id="Fill-106" fill="#DFBB9E"></path>
                <path d="M212,234.4385 L212.205791,234.275 C212.306618,234.195 212.40486,234.105 212.497932,234 C212.498707,234.001 212.499224,234.002 212.5,234.003 C212.406153,234.103 212.30817,234.194 212.206308,234.275 L212,234.4385" id="Fill-107" fill="#8E7869"></path>
                <path d="M227.403812,273 C230.224485,269.905384 231.703263,265.654618 231.128806,261.218176 C231.04528,260.57202 230.962004,259.933291 230.878728,259.299514 C230.572051,256.972362 230.395027,254.662541 230.317734,252.394806 C230.409488,252.112577 215.008609,239.504861 209,234.795103 C210.525901,234.540106 211.306305,234.074676 211.306305,234.074676 L211.950574,233.81151 L212.149539,233.730555 C212.247776,233.690448 212.342272,233.645391 212.432779,233.595877 C218.260873,238.134813 225.359055,243.596687 231.626469,248.402503 C234.259895,240.405519 238.372597,228.136973 239.498073,226.043527 C240.697352,223.815403 241.15612,220.990637 239.129065,218 C244.873633,222.208678 244.62929,226.417357 242.973737,229.494644 C241.637327,231.985191 236.069783,248.881797 233.795891,255.845922 C233.800628,255.987036 233.805864,256.125675 233.81135,256.26679 C233.865953,257.742303 233.93053,258.796948 234.05694,260.074406 C234.137723,260.96318 234.236208,261.856905 234.354391,262.753106 C234.423954,263.282904 234.493517,263.815178 234.56333,264.352404 C234.787228,266.115097 235.082684,268.402638 235.478122,271.566574 C234.547372,271.697785 233.531352,271.85623 232.442527,272.041907 L232.443025,272.044382 C230.897926,272.309282 229.205971,272.628646 227.403812,273" id="Fill-108" fill="#E5A36B"></path>
                <path d="M206,216 C205.623836,215.249266 205.292365,214.587493 205,214.002055 L205,214 C205.293429,214.587786 205.624634,215.250734 206,216" id="Fill-109" fill="#DDA477"></path>
                <path d="M205,214 C203.863298,211.906948 203.363819,210.963062 203.108782,210.419234 C203.384271,210.995067 203.903463,211.976208 205,213.99825 L205,214 M200.861743,205.009203 C200.392081,204.436121 199.530375,204.034563 197.771727,203.061922 C199.546146,204.042064 200.391834,204.42912 200.861743,205.009203 M195.634096,201.886753 C195.416513,201.764235 195.178479,201.625965 194.913339,201.465442 C195.178479,201.625965 195.416513,201.763985 195.634096,201.886753 M183.302121,192.571409 C181.299278,190.797904 179.919366,189.300688 179.008132,188.011502 C179.919613,189.300938 181.299031,190.797403 183.302121,192.571409 M179.005914,188.008501 C179.003943,188.005751 179.001971,188.003 179,188 C179.002218,188.003 179.003943,188.005751 179.005914,188.008501" id="Fill-110" fill="#E1A87B"></path>
                <path d="M196,202.5 C195.697898,202.352183 195.369434,202.190476 195,202 C195.369434,202.190146 195.697898,202.352183 196,202.5" id="Fill-111" fill="#C38E65"></path>
                <path d="M214,230 C210.172536,223.173485 207.703497,218.787891 206.096502,215.923143 C205.740429,215.288026 205.426248,214.726077 205.1479,214.227838 C204.024922,212.215223 203.49321,211.238656 203.211078,210.665507 C202.667758,209.540115 203.205274,210.13616 201.201325,205.74733 C201.123599,205.573619 201.028966,205.421808 200.909855,205.280698 C200.428614,204.703319 199.562533,204.318067 197.745326,203.342495 C197.506346,203.213829 197.251468,203.075458 196.978925,202.92514 C196.755086,202.802447 196.523425,202.683735 196.264509,202.549097 C196.050512,202.437852 195.817841,202.315905 195.556149,202.172805 C195.33332,202.050609 195.089545,201.913233 194.818011,201.753458 C193.084587,200.73284 190.221622,198.804095 184.515881,194.220151 C183.947831,193.763971 183.418895,193.324466 182.926803,192.900889 C180.875412,191.135153 179.46273,189.645664 178.52927,188.362239 C178.528513,188.361244 178.527756,188.360248 178.526999,188.359253 C178.52498,188.356515 178.523213,188.353778 178.520942,188.350791 C177.572341,187.043724 177.121635,185.951432 177,185 C179.467777,187.812733 182.88567,191.150085 185.388776,193.161954 C193.506271,199.683852 195.478676,200.604423 198.759035,202.323122 C200.017276,202.981882 201.207129,203.604805 201.839277,204.243157 C202.81261,205.215743 203.599452,208.755924 205.349279,211.801352 C206.281983,213.419756 208.951643,219.69129 212.321336,225.702257 C212.409156,225.859792 213.148807,227.768628 214,230" id="Fill-112" fill="#DF9C66"></path>
                <path d="M171.118238,215 C171.115668,214.873658 171.012084,213.417082 167.624405,208.390166 C166.199678,206.275362 165.815672,204.717401 166.075789,203.550424 C167.085153,203.072871 168.562571,202.700603 170.209631,203.341673 C173.258028,204.527627 175.253366,206.842343 174.973972,209.609655 C174.694322,212.377227 173.219987,214.1416 172.887131,214.299658 C172.668911,214.402864 172.121691,214.807627 171.118238,215" id="Fill-113" fill="#F6E2CA"></path>
                <path d="M171.048,215.351 C171.046,215.3115 171.0395,215.2015 171,215 C171.039,215.1955 171.047,215.306 171.049,215.351 C171.0485,215.351 171.048,215.351 171.048,215.351" id="Fill-114" fill="#FEECC0"></path>
                <path d="M170.458343,214 C170.457399,213.984536 170.453623,213.946564 170.435214,213.879381 C170.396271,213.737285 170.290536,213.463574 170,213 C170,213 170.000236,213 170.000472,213 C170.429313,213.685052 170.456691,213.954983 170.458343,214 M171.513571,213.756357 C171.731414,213.68299 171.890961,213.61323 172,213.569244 C171.891433,213.613402 171.731886,213.68299 171.513571,213.756357" id="Fill-115" fill="#FAE7D5"></path>
                <path d="M170.55545,214 C170.553445,213.956107 170.520233,213.692913 170,213.024962 C170.193835,213.010387 170.4226,213 170.679996,213 C171.313037,213 172.118725,213.06316 173,213.284637 C172.790991,213.433741 172.616339,213.524208 172.524718,213.549338 C172.49666,213.557045 172.463734,213.567432 172.425654,213.579997 C172.293377,213.622885 172.099828,213.690903 171.83556,213.762439 C171.517179,213.848551 171.095724,213.940023 170.55545,214" id="Fill-116" fill="#FCF6EF"></path>
                <path d="M204,189.329 C203.666265,189.2175 203.333333,189.108 203,189 C203.333333,189.107 203.665462,189.216 203.995582,189.3265 C203.997189,189.327 203.998795,189.3285 204,189.329" id="Fill-117" fill="#E1A87B"></path>
                <path d="M237,221 C236.330961,220.188523 236.709559,220.377507 230.72242,214.800141 C224.437847,208.946303 216.356184,198.090898 213.817132,196.161245 C212.146657,194.888981 205.576887,191.377661 201,189 C201.450272,189.106165 201.915777,189.217246 202.395767,189.336927 C202.550103,189.375019 202.70369,189.413357 202.857027,189.452186 C203.064307,189.505268 203.271337,189.559088 203.478866,189.613891 C207.864706,191.914877 213.217519,194.813289 214.70344,195.943262 C217.240744,197.873406 225.142848,208.92099 231.608478,214.582158 C232.788974,215.615796 235.942124,218.975486 237,221" id="Fill-118" fill="#DF9C66"></path>
                <path d="M184.80637,182.999318 C184.068255,183.031503 180.974494,181.917306 180.444498,181.173341 C180.210993,180.844271 180.077356,180.414049 180,180.036593 C182.057478,179.772111 185.233146,180.996873 188,181.921685 C187.022153,182.498597 185.422824,182.973264 184.80637,182.999318" id="Fill-119" fill="#F6E2CA"></path>
                <path d="M188,182.5 C188.176253,182.338552 188.344248,182.171233 188.498861,182 C188.499146,182 188.499431,182.000489 188.5,182.000489 C188.344818,182.171233 188.176822,182.338552 188,182.5" id="Fill-120" fill="#FAE7D5"></path>
                <path d="M186,183 C186.025692,182.563055 186.142735,182.206039 186.225521,182 C186.827291,182.138366 187.420782,182.278686 188,182.410124 C187.84499,182.472291 187.676563,182.533037 187.499857,182.591652 C187.032544,182.746181 186.504996,182.886679 186,183" id="Fill-121" fill="#FCF6EF"></path>
                <path d="M253.772782,253.10482 C253.772782,253.10482 219.682718,222.340077 211.359544,215.408522 C188.90953,196.7123 168.696958,183.174126 163.325561,183 L162,184.593923 C163.146853,189.848212 180.121865,207.279665 202.571879,225.976136 C210.895053,232.907691 247.317737,260.866078 247.317737,260.866078 C247.997372,261.431615 249.992902,260.154195 251.775022,258.011106 C253.557143,255.865536 254.451922,253.670358 253.772782,253.10482" id="Fill-122" fill="#32526E"></path>
                <path d="M161.714177,185 L163,183.303972 L162.253114,182.850246 L162.251589,182.8522 C161.662063,182.380616 160,182 160,182 C160,182 160.642912,183.72477 161.172443,184.275602 L161.170918,184.277556 L161.714177,185" id="Fill-123" fill="#32526E"></path>
                <path d="M253.814615,253.329802 C254.134785,252.343192 254.050399,248.655361 253.482036,247.908178 C252.91119,247.160746 247.910583,240.142109 241.96411,235.30971 C236.017388,230.477312 225.447314,223.000748 224.474146,223 C223.501227,222.999253 222.892656,224.38574 223.01576,224.759207 C223.138864,225.132674 223.612418,227.693625 224.256232,227.960708 C224.900047,228.228039 227.262851,228.575346 230.347403,230.204748 C233.431954,231.834151 237.275234,234.685355 240.005613,236.837213 C243.437388,239.54217 250.464,246.899145 250.761833,247.66601 C251.072075,248.466261 251.379835,249.266761 251.369907,249.933969 C251.357497,250.599183 250.496265,251.640606 250.496265,251.640606 L253.32071,254 C253.32071,254 253.752567,253.519152 253.814615,253.329802" id="Fill-124" fill="#E74B3C"></path>
                <path d="M209,231.453487 L217.364285,221 C217.577144,221.190113 217.789049,221.37973 218,221.570339 L209.654806,232 C209.436219,231.81907 209.218587,231.636651 209,231.453487" id="Fill-125" fill="#E74B3C"></path>
                <path d="M162,184.566371 C162.482021,186.670145 165.676464,190.759924 170.86222,196.110553 C171.456618,196.725007 172.078151,197.354579 172.724514,198 C173.700331,197.231688 174.81822,196.158832 175.919726,194.898225 C177.335838,193.277236 178.427616,191.684775 179,190.487565 C178.344165,190.078904 177.702409,189.687311 177.075245,189.309373 C170.518687,185.359553 165.648306,183.06998 163.368499,183 L162,184.566371" id="Fill-126" fill="#E74B3C"></path>
                <path d="M244,258.205897 C245.071807,257.409802 246.42533,256.075323 247.729999,254.46017 C249.034667,252.847569 250.066301,251.234967 250.624275,250 L250.812747,250.168405 L253.773732,252.878188 C254.408584,253.421675 253.662137,255.445082 252.102288,257.514417 C251.998133,257.652203 251.889018,257.787437 251.774943,257.925222 C251.663348,258.063008 251.554233,258.198242 251.442638,258.328373 C249.748875,260.285438 247.949965,261.408136 247.314122,260.862096 L244,258.205897" id="Fill-127" fill="#E74B3C"></path>
                <g id="Group-131" transform="translate(195.000000, 272.000000)">
                    <mask id="mask-8" fill="white">
                        <use xlink:href="#path-7"></use>
                    </mask>
                    <g id="Clip-129"></g>
                    <path d="M48.2590873,5.96209091 C39.7979476,7.99445455 12.9352664,14.4499091 3.35304367,16.7522727 L2.04055022,11.5682727 C1.74036681,10.3802727 11.5326681,6.94636364 23.9175983,3.89781818 C36.3000393,0.846818182 46.5804498,-0.662727273 46.8833712,0.522818182 L48.2590873,5.96209091" id="Fill-128" fill="#DFF3FC" mask="url(#mask-8)"></path>
                    <path d="M56.7958952,27 L2.74048035,27 L0.256375546,17.1916364 C-0.084628821,15.8465455 11.0266376,11.9462727 25.08,8.48536364 C39.1308734,5.02445455 50.7972052,3.31363636 51.1382096,4.66118182 L56.7958952,27" id="Fill-130" fill="#32526E" mask="url(#mask-8)"></path>
                </g>
                <path d="M236,272.5 C236,272.496711 236,272.496711 236,272.496711 C237.561634,272.243421 238.910625,272.072368 240,272 C238.910344,272.072368 237.561915,272.243421 236,272.5" id="Fill-132" fill="#CACACA"></path>
                <path d="M236,272.005 C236,272 236,272.005 236,272 C236.0015,272 236.0045,272 236.006,272 C236.006,272 236.006,272 236.006,272.005 C236.004,272.005 236.002,272.005 236,272.005" id="Fill-133" fill="#C7A68D"></path>
                <path d="M233.000493,272.5 L233,272.497409 C234.076057,272.303109 235.080164,272.137306 236,272 C236,272.002591 236,272 236,272.002591 C235.080411,272.137306 234.076304,272.303109 233.000493,272.5" id="Fill-134" fill="#CC915F"></path>
                <path d="M242,272.27 C241.762247,272.15 241.429054,272.06 241.007179,272 C241.429476,272.06 241.762669,272.15 242,272.27 M241.002956,272 C241.002111,272 241.000845,272 241,272 C241.000845,272 241.001689,272 241.002956,272" id="Fill-135" fill="#CACACA"></path>
                <g id="Group-139" transform="translate(232.000000, 272.000000)">
                    <mask id="mask-10" fill="white">
                        <use xlink:href="#path-9"></use>
                    </mask>
                    <g id="Clip-137"></g>
                    <path d="M1.41468354,5.52272727 L0.248607595,0.996545455 C1.35392405,0.81 2.38556962,0.652909091 3.33037975,0.525272727 C3.33139241,0.525272727 3.33240506,0.525272727 3.33341772,0.525272727 C4.73924051,0.333818182 5.95291139,0.206181818 6.93367089,0.152181818 C7.31265823,0.130090909 7.65696203,0.117818182 7.96405063,0.117818182 C8.31088608,0.117818182 8.61012658,0.132545455 8.85822785,0.162 C8.85873418,0.162 8.85949367,0.162 8.86,0.162 C8.86075949,0.162 8.86177215,0.162 8.86253165,0.162 C9.11544304,0.191454545 9.31518987,0.235636364 9.45772152,0.294545455 C9.60025316,0.355909091 9.68506329,0.432 9.70886076,0.522818182 L10.6681013,4.25127273 C8.44911392,4.39118182 5.24962025,4.833 1.41468354,5.52272727" id="Fill-136" fill="#C7D8E0" mask="url(#mask-10)"></path>
                    <path d="M19.7924051,27 L6.94683544,27 L1.41468354,5.52272727 C5.24962025,4.833 8.44911392,4.39118182 10.6681013,4.25127273 L10.6683544,4.25127273 C11.184557,4.21936364 11.6478481,4.20218182 12.0534177,4.20218182 C13.2577215,4.20218182 13.9564557,4.34945455 14.0379747,4.66118182 L19.7924051,27" id="Fill-138" fill="#2D4962" mask="url(#mask-10)"></path>
                </g>
            </g>
        </g>
    </g>
</svg>