<?xml version="1.0" encoding="UTF-8"?>
<svg width="338px" height="194px" viewBox="0 0 338 194" version="1.1" xmlns="http://www.w3.org/2000/svg" xmlns:xlink="http://www.w3.org/1999/xlink">
    <!-- Generator: Sketch 48.2 (47327) - http://www.bohemiancoding.com/sketch -->
    <title>Artboard Copy 3</title>
    <desc>Created with Sketch.</desc>
    <defs></defs>
    <g id="Agents---Desktop" stroke="none" stroke-width="1" fill="none" fill-rule="evenodd">
        <g id="Artboard-Copy-3">
            <g id="shutterstock_751497352">
                <g id="Group-7">
                    <path d="M242.689287,191.941462 L242.281192,191.941462 L241.481289,189.089194 C241.867813,190.036135 242.271066,190.988358 242.689287,191.941462 M235.067538,166.205898 L207.679341,68.4892039 C225.868436,60.8133064 245.999397,55.3077561 267.995625,52.55322 L258.605461,41.9224805 L336.875315,57.3966603 L301.768517,90.7874309 L291.04709,78.6493346 C255.883062,89.0810889 228.519077,122.855302 235.067538,166.205898" id="Fill-3" fill="#30A6DC"></path>
                    <path d="M94.9383851,191.941462 L94.529409,191.941462 C94.941907,191.002005 95.3389969,190.06475 95.7202384,189.131016 L94.9383851,191.941462" id="Fill-4" fill="#03A693"></path>
                    <path d="M102.21279,165.789438 C108.525287,122.638708 81.2238155,89.0476312 46.1716067,78.6493346 L35.4510597,90.7874309 L0.342941281,57.3966603 L78.6132355,41.9224805 L69.2235121,52.55322 C91.122448,55.2954296 111.180331,60.7679624 129.306472,68.3914722 L102.21279,165.789438" id="Fill-5" fill="#30A6DC"></path>
                    <polyline id="Fill-6" fill="#FFFFFF" points="242.281192 191.941462 195.15384 23.800301 224.531009 23.8258345 168.676043 0.402372697 113.39294 23.7298638 141.723236 23.7540766 94.9383851 191.941462 242.281192 191.941462"></polyline>
                </g>
                <path d="M158.819233,159.703661 L158.837283,159.700139 C161.596221,159.050795 162.957421,158.715778 165.6424,158.021091 C165.440333,159.828246 164.385535,161.748541 163.843169,162.641774 C161.804451,161.476918 160.813927,160.896691 158.819233,159.703661 M188.877442,153.934851 C188.827696,153.663668 188.802602,153.525875 188.749775,153.248969 C188.749775,153.248969 188.4196,153.307079 187.781263,153.376636 C187.771137,153.208027 187.766295,153.123062 187.754849,152.952252 C187.754849,152.952252 187.504356,153.006841 187.021421,153.075077 C187.070727,152.934202 187.09494,152.863765 187.143365,152.72201 C187.60517,152.617675 188.031755,152.511579 188.403752,152.410325 C188.622988,152.588619 188.731725,152.677106 188.9492,152.85364 C188.782352,152.965899 188.803483,153.045581 188.803483,153.045581 C189.202334,153.428143 189.399998,153.616123 189.793126,153.98856 C189.641686,153.980635 189.486724,153.973151 189.326039,153.965667 C189.178121,153.955102 189.028002,153.944536 188.877442,153.934851 M199.701003,156.927993 C199.400765,156.77039 199.122978,156.630836 198.938961,156.527822 C195.969151,154.910407 194.516823,154.077487 191.50299,152.28706 C191.392051,152.220585 191.251177,152.21178 190.97427,152.262407 C190.629128,152.083232 190.199461,151.912422 189.936642,151.735449 C190.058586,151.617906 190.186694,151.476592 190.308639,151.318988 C190.59567,150.949193 191.879389,150.969003 192.139126,150.468899 C192.224972,150.303812 192.094222,150.177465 191.811593,150.11099 C193.171912,149.439195 194.143506,148.78765 194.157593,148.602753 C194.184447,148.253648 193.975337,147.947246 193.637678,147.767191 C194.004832,147.596381 194.237275,147.382427 194.248721,147.155708 C194.269412,146.749373 193.58441,146.42316 192.61986,146.336435 C188.68374,145.540054 184.345687,145.469176 180.425854,146.207006 C176.206664,147.000746 175.167275,148.649857 175.796367,149.914206 C175.496569,149.976279 175.281295,150.09206 175.211738,150.24394 C174.982817,150.745805 176.231757,150.73656 176.212827,151.168869 L176.215909,151.168869 C176.241443,151.409236 176.324647,151.622749 176.465521,151.796641 C176.63457,152.005311 177.465289,152.357938 178.46946,152.68415 C178.354119,152.850558 178.295128,152.933762 178.177586,153.097969 C177.991808,153.079919 177.804269,153.060549 177.613208,153.039418 C177.48598,153.196581 177.422587,153.274062 177.293599,153.429464 C176.874937,153.399528 176.448352,153.367831 176.008119,153.329971 C175.89542,153.451916 175.83863,153.512668 175.72505,153.632851 C172.974916,153.708572 170.053532,154.040507 167.763001,154.427031 C167.549488,154.454766 167.427984,154.471055 167.427984,154.471055 L167.400689,154.489985 C166.172,154.707019 165.148459,154.937701 164.473582,155.152535 C160.236342,156.482918 155.912376,157.672867 151.56772,158.829358 C149.919929,159.280157 150.015459,160.04396 153.19482,160.879962 C156.192805,161.668419 159.553101,162.646176 161.653451,163.265143 C161.559241,163.491423 162.118777,163.687326 163.034901,163.773612 C162.712651,164.150891 162.413733,164.575716 162.793214,164.720553 C161.130015,166.930521 160.276403,168.006009 158.821434,170.41012 C158.742192,170.503449 158.70081,170.595018 158.688924,170.683945 C158.582388,170.746898 158.483776,170.813813 158.39705,170.887332 C156.500968,173.49439 155.064928,176.253769 154.176099,179.100754 C154.105661,179.419482 154.072204,179.580608 154.010131,179.907701 C154.08497,179.908141 154.12239,179.907701 154.19723,179.908141 C154.089813,180.319758 154.039186,180.528429 153.945857,180.954134 C152.984829,181.094568 152.301588,181.370154 152.244798,181.694605 L152.244798,181.709573 C151.973614,181.728503 151.75746,181.805104 151.741612,181.901955 C151.723562,182.014214 151.972734,182.104462 152.299387,182.104462 C154.6696,182.104462 155.855146,182.104902 158.225359,182.104902 C158.551131,182.104902 158.836402,182.016415 158.862376,181.907238 C158.88835,181.79806 158.644461,181.710013 158.317368,181.709133 L158.289633,181.709133 L158.292715,181.702529 C158.368435,181.385122 159.133559,180.812379 158.241207,180.666222 C158.346863,180.242277 159.283238,180.334286 159.401221,179.92487 C159.858182,179.927071 159.205757,179.928392 159.662719,179.931033 C162.033372,177.078325 163.113703,174.447934 166.259166,171.950935 C166.346772,171.909553 166.421171,171.851002 166.484565,171.770879 C169.189355,169.707068 170.611306,168.769813 173.391816,166.883416 C173.442883,167.196862 173.468857,167.353584 173.523886,167.669231 C173.769096,167.906076 173.724632,168.175059 173.73916,168.418507 C173.745323,168.523283 173.735638,168.628058 173.717148,168.733274 C173.876072,169.580281 173.962798,170.009068 174.149897,170.890414 C174.146815,170.984184 174.178512,171.075312 174.238824,171.162478 C174.182914,171.227632 174.139772,171.296749 174.112477,171.371588 C174.34404,174.263477 174.559754,175.794166 174.973132,179.343322 C175.038287,179.640039 175.070864,179.789278 175.135138,180.092158 C175.65065,180.068826 175.908627,180.05782 176.42502,180.034928 C176.400807,180.443904 174.187317,180.351455 174.163104,180.771437 C173.279557,180.907909 173.07661,181.448075 172.958187,181.725862 L173.394458,181.739949 C173.119752,181.757558 172.885989,181.827115 172.848569,181.917363 C172.805426,182.021258 173.034787,182.104462 173.36144,182.104462 C176.417095,182.104462 179.266722,182.104462 182.322817,182.104462 C182.64991,182.104462 182.955432,182.023459 183.00826,181.923086 C183.061087,181.823593 182.83921,181.742591 182.511237,181.74215 C182.386211,181.74171 182.321937,181.74215 182.196911,181.74215 C182.369042,181.740389 183.807282,181.738628 183.808603,181.736427 C183.985576,181.398329 183.971929,180.809737 182.383569,180.697478 C182.330741,180.259447 179.221378,180.34265 179.164588,179.916945 C179.30194,179.910782 179.810409,179.008745 179.947762,179.003022 C181.225317,175.522543 181.431786,174.935712 182.753365,172.102375 C182.809274,172.058792 182.83921,171.99848 182.840091,171.918798 C184.354931,169.026028 185.132382,167.731744 186.646343,165.022992 C186.7925,165.007144 186.889351,164.992176 186.930733,164.978089 C186.930733,164.978089 187.054879,163.861659 187.476181,163.454443 C187.476181,163.454443 189.615712,160.750534 192.147931,158.395289 C192.807399,158.603959 193.137574,158.707854 193.799684,158.914323 C194.26589,159.071927 197.905294,159.958115 201.022582,158.886148 C202.444093,158.39749 201.044153,157.538596 199.701003,156.927993" id="Fill-9" fill="#D1E5E4"></path>
                <path d="M169.939071,62.3470771 L171.701763,65.9067988 C172.560657,65.4621638 172.256456,63.3028223 173.126356,62.872715 C172.592794,61.820999 171.560008,60.9145599 171.16688,59.9262375 C171.038772,59.6039871 170.484079,56.7741713 170.304904,56.7658068 C170.140257,56.7596436 170.104158,57.0634041 170.124409,57.390497 C169.89857,56.8943548 169.569716,56.3334983 169.484751,56.2613001 C169.225014,56.0403033 169.033512,56.2978395 169.053763,56.3753204 C169.141369,56.703734 169.254949,57.0792525 169.366769,57.4327594 C169.298532,57.3011298 169.194638,57.1267977 168.986407,56.7565619 C168.530767,55.9447728 168.0267,56.2824313 168.21556,56.6944891 C168.627618,57.5908029 169.227655,59.206457 168.913329,58.41756 C168.141161,56.4814165 167.992802,56.5571365 167.737908,56.6324163 C167.683319,56.6487049 167.623887,56.6645533 167.55257,56.6610314 C167.292392,56.6460635 168.376685,59.3292819 168.331781,59.5806548 C168.331781,59.5806548 167.776648,58.3352364 167.324969,58.595414 C166.873731,58.8555915 167.336856,60.178931 167.336856,60.178931 C168.182543,62.1221182 169.500159,61.3869296 169.939071,62.3470771" id="Fill-10" fill="#FBC7A1"></path>
                <path d="M170.7874,64.8577243 L180.069266,86.0778214 C182.016415,84.7236656 184.029159,84.3371412 186.011087,83.0344927 C185.455513,81.096148 183.659364,78.6621014 182.924175,77.4725926 L173.235093,62.2343776 C172.948502,61.7826988 172.64166,62.1146343 171.423976,63.2962189 C170.613067,64.0833549 170.7874,64.8577243 170.7874,64.8577243" id="Fill-11" fill="#283042"></path>
                <path d="M136.1314,88.1455944 L141.972848,93.1461978 C142.613387,92.4475485 143.636047,92.3683066 144.183697,91.6670159 L154.902042,77.3999542 C157.248483,73.9934335 162.787491,67.8165283 162.787491,67.8165283 C157.360742,65.0540681 149.105939,69.3318093 146.761259,72.7374496 C146.761259,72.7374496 137.236824,86.2895733 136.1314,88.1455944" id="Fill-12" fill="#283042"></path>
                <path d="M160.079619,91.5490335 C159.973523,91.3984739 159.867867,91.2474741 159.762212,91.0955938 L159.75957,91.0925122 L159.68341,90.9842149 L159.682089,90.9842149 C159.435999,90.6333495 159.185507,90.2860059 158.932373,89.9413037 L158.938096,89.9417439 C158.904638,89.8959597 158.868979,89.8519364 158.834201,89.805712 L158.791498,89.7445196 L158.788857,89.7440794 C158.716219,89.6481087 158.64314,89.5525782 158.570061,89.4566074 L158.558615,89.435036 C158.519875,89.3844093 158.478493,89.3351032 158.440633,89.2840362 L158.390006,89.2206427 C158.166808,88.9375731 157.940529,88.6584655 157.702363,88.3877224 L157.641611,88.3137633 C157.592304,88.3062794 157.548281,88.3001161 157.491931,88.2930724 C154.543253,87.9294402 151.371376,87.3095925 152.681068,88.0016383 C153.311922,88.3370957 151.480114,90.6773727 151.981539,90.6403932 C154.647588,90.4449299 157.403004,92.3273649 157.629284,92.198817 C158.588551,92.268814 159.332985,92.160957 160.187476,91.9034208 L160.079619,91.5490335" id="Fill-13" fill="#FDC8A8"></path>
                <path d="M152.510698,110.228988 C152.510698,110.228988 145.428234,102.677236 139.559052,97.2430034 C133.687228,91.8078903 134.819507,86.8138905 139.473207,86.2895733 C141.341994,87.6503326 143.075191,90.2455045 144.065274,91.5058907 L153.227397,107.364834 C153.601155,107.851291 156.194125,109.313304 154.441559,110.15767 C153.274942,110.721168 152.510698,110.228988 152.510698,110.228988" id="Fill-14" fill="#283042"></path>
                <polyline id="Fill-15" fill="#FDC8A8" points="178.251985 179.147859 175.326199 179.439293 174.778549 174.898733 177.701694 174.608179 178.251985 179.147859"></polyline>
                <path d="M177.025497,179.271564 C177.025497,179.271124 177.025937,179.270684 177.025937,179.269803 L178.251985,179.147859 L177.025497,179.271564 M174.96829,176.475646 L174.789995,174.995584 L174.96873,176.475646 L174.96829,176.475646" id="Fill-16" fill="#CFB496"></path>
                <path d="M177.025937,179.269803 C177.06908,179.063334 177.117506,178.859947 177.166371,178.656559 C177.269826,178.238778 177.464849,177.677041 177.286555,177.251336 C176.966506,176.48225 176.288107,176.438667 175.513298,176.382757 C175.486003,176.380996 175.458709,176.380116 175.431855,176.380116 C175.266327,176.380116 175.109604,176.414014 174.96873,176.475646 L174.789995,174.995584 L176.02837,174.774587 L177.701694,174.608179 L178.251985,179.147859 L177.025937,179.269803" id="Fill-17" fill="#FB9D6F"></path>
                <path d="M161.08379,144.891591 C161.00851,147.509655 159.434238,144.823355 157.282821,144.77625 L156.307705,144.753358 C154.157609,144.706253 152.941686,142.539868 153.015645,139.920923 L152.345611,113.121317 C152.422652,110.505894 152.901625,105.824019 155.053923,105.871124 L158.329254,108.512521 C160.476709,108.560066 165.733088,110.80129 165.656927,113.421115 L161.08379,144.891591" id="Fill-18" fill="#283042"></path>
                <polyline id="Fill-19" fill="#FDC8A8" points="155.958601 178.413551 153.016526 178.386256 153.013884 173.818842 155.9564 173.846136 155.958601 178.413551"></polyline>
                <path d="M155.958601,178.413551 L154.725069,178.402105 C154.791544,178.202239 154.864182,178.006335 154.938141,177.808671 C155.091783,177.404978 155.352841,176.868334 155.228695,176.428101 C154.999334,175.629519 154.331941,175.510656 153.567697,175.372863 C153.49682,175.359656 153.425502,175.353493 153.355505,175.353493 C153.237082,175.353493 153.121741,175.371543 153.015645,175.40456 L153.015205,175.091555 L155.95684,175.077027 L155.958601,178.413551" id="Fill-21" fill="#FB9D6F"></path>
                <path d="M157.702803,138.427214 L156.736052,138.272252 C154.606646,137.920066 153.235762,139.108694 152.934642,141.964483 L152.773957,172.526759 L152.831188,175.092875 L157.075471,175.071744 L161.269128,143.497374 C161.568046,140.642024 159.83441,138.778079 157.702803,138.427214" id="Fill-22" fill="#283042"></path>
                <path d="M161.08379,144.891151 L161.08423,144.886748 L161.262965,143.659379 C161.240953,144.087726 161.17888,144.497583 161.08379,144.891151 M161.921993,139.123222 L164.250384,123.100072 L164.304092,123.369934 L163.936058,125.63229 L161.921993,139.123222" id="Fill-23" fill="#F48BAA"></path>
                <path d="M161.08423,144.886748 L161.269128,143.497374 C161.336924,142.848471 161.299944,142.251515 161.177119,141.71135 C162.146512,135.1466 162.892266,129.948772 163.010248,128.876365 C163.129111,127.793833 163.667956,124.914271 164.151772,122.607011 L164.250384,123.100072 L161.921993,139.123222 L161.269128,143.497374 C161.267367,143.551522 161.265606,143.605671 161.262965,143.659379 L161.08423,144.886748" id="Fill-24" fill="#261A2C"></path>
                <path d="M156.012309,175.075266 C156.654609,171.833833 159.323299,154.271189 161.177119,141.71135 C161.299944,142.251515 161.336924,142.848471 161.269128,143.497374 L161.08423,144.886748 L161.08379,144.891151 L161.08379,144.891591 L157.075471,175.071744 L156.012309,175.075266" id="Fill-25" fill="#261A2C"></path>
                <path d="M176.524952,144.048985 C176.7662,145.729354 176.006358,145.321698 174.862193,144.914043 C174.241465,144.693046 173.507597,144.471609 172.759642,144.584308 L171.795092,144.729585 C169.668328,145.051835 168.099779,143.123616 167.725581,140.531966 L162.48373,114.240388 C162.113054,111.649619 161.785521,106.955417 163.913166,106.634048 L167.59219,108.676287 C169.716754,108.355798 175.278213,109.66637 175.65065,112.260662 L176.524952,144.048985" id="Fill-26" fill="#283042"></path>
                <path d="M172.088287,138.259045 L171.108769,138.270931 C168.950308,138.28722 167.803502,139.692442 167.994563,142.558357 L173.059,172.69845 L173.555583,175.2157 L177.734272,174.469946 L176.468162,142.644203 C176.27534,139.779168 174.248069,138.239234 172.088287,138.259045" id="Fill-27" fill="#283042"></path>
                <path d="M176.531116,144.09565 C176.531116,144.09521 176.531116,144.09521 176.531116,144.09521 C176.531116,144.09521 176.531116,144.09521 176.531116,144.09565 M176.530235,144.088606 C176.530235,144.087726 176.530235,144.086405 176.529795,144.085084 C176.530235,144.086405 176.530235,144.087726 176.530235,144.088606 M176.529355,144.080242 C176.528915,144.077601 176.528474,144.074959 176.528034,144.071877 C176.528474,144.074959 176.528915,144.077601 176.529355,144.080242 M176.527594,144.067915 C176.527154,144.066154 176.526713,144.063953 176.526713,144.061752 C176.526713,144.063953 176.527154,144.066154 176.527594,144.067915 M176.526273,144.05867 C176.525833,144.055149 176.525393,144.052067 176.524952,144.048985 C176.525393,144.052067 176.525833,144.055149 176.526273,144.05867 M152.422212,116.198984 L152.421771,116.198543 L152.372465,114.218817 C152.372905,114.219257 152.372905,114.219257 152.372905,114.219257 L152.422212,116.198984" id="Fill-28" fill="#F48BAA"></path>
                <path d="M162.01092,117.415347 C154.567025,117.415347 154.453005,116.828076 152.422212,116.198984 L152.372905,114.219257 C152.443343,114.309945 152.522144,114.372898 152.611071,114.403274 C155.629307,115.437381 157.266092,115.533352 162.768561,115.667183 L163.116345,117.411385 C162.730701,117.414026 162.362666,117.415347 162.01092,117.415347" id="Fill-29" fill="#261A2C"></path>
                <path d="M176.554448,144.815431 L176.468162,142.644203 C176.340055,140.742397 175.403239,139.424341 174.1565,138.758709 C173.236854,119.95681 173.265029,117.284157 169.666567,117.284157 C169.590407,117.284157 169.512045,117.285478 169.432363,117.287679 C166.919955,117.359877 164.843818,117.399498 163.116345,117.411385 L162.768561,115.667183 C162.921321,115.670704 163.077604,115.674666 163.236528,115.678629 C163.46765,115.683911 163.700093,115.686553 163.932536,115.686553 C168.65095,115.686993 173.585959,114.578487 175.30947,113.815124 C175.46135,113.747768 175.588577,113.683054 175.68807,113.622302 L176.524952,144.048985 C176.525393,144.052067 176.525833,144.055149 176.526273,144.05867 C176.526273,144.059551 176.526273,144.060872 176.526713,144.061752 C176.526713,144.063953 176.527154,144.066154 176.527594,144.067915 C176.527594,144.069236 176.528034,144.070557 176.528034,144.071877 C176.528474,144.074959 176.528915,144.077601 176.529355,144.080242 C176.529355,144.082003 176.529795,144.083764 176.529795,144.085084 C176.530235,144.086405 176.530235,144.087726 176.530235,144.088606 C176.530675,144.090807 176.531116,144.093009 176.531116,144.09521 C176.531116,144.09521 176.531116,144.09521 176.531116,144.09565 C176.573378,144.404253 176.579541,144.639337 176.554448,144.815431" id="Fill-30" fill="#261A2C"></path>
                <path d="M176.358104,174.715596 C175.165514,158.729426 174.566797,147.14118 174.1565,138.758709 C175.403239,139.424341 176.340055,140.742397 176.468162,142.644203 L177.734272,174.469946 L176.358104,174.715596" id="Fill-31" fill="#261A2C"></path>
                <path d="M165.884088,131.299406 L164.946832,126.5964 C164.947272,126.597721 164.947713,126.599041 164.948153,126.600362 L165.882327,131.285318 C165.882767,131.290161 165.883207,131.294563 165.884088,131.299406" id="Fill-32" fill="#F48BAA"></path>
                <path d="M165.882327,131.285318 L164.948153,126.600362 C165.350966,127.631387 165.498444,128.823097 165.683782,129.896824 C165.762583,130.358629 165.826857,130.821313 165.882327,131.285318" id="Fill-33" fill="#261A2C"></path>
                <polyline id="Fill-34" fill="#FFFFFF" points="169.867313 67.4093131 170.641682 79.6332547 164.285162 89.9756418 158.656787 79.6332547 158.656787 67.0509636 169.867313 67.4093131"></polyline>
                <path d="M159.763972,66.2167227 C159.748124,67.7623797 161.800489,69.0218855 164.350757,69.0271683 C166.900145,69.0438971 168.976722,67.7984788 168.995212,66.2554631 L168.70818,54.5747686 C168.723148,53.0330737 167.086363,51.7770898 164.536095,51.7660839 C161.988028,51.7563988 160.737327,53.0075402 160.721038,54.5580398 L159.763972,66.2167227" id="Fill-35" fill="#FDC8A8"></path>
                <path d="M170.702435,55.2478844 L171.744465,54.9489664 C172.609082,54.7099201 173.194152,55.2628524 173.150569,56.2062711 C173.074849,57.823686 171.738742,57.7382809 171.60271,58.9938246 L169.609777,58.4298865 L170.702435,55.2478844" id="Fill-36" fill="#FDC8A8"></path>
                <path d="M158.239447,54.7319317 L157.229112,54.3366027 C156.390909,54.0187547 155.756974,54.5153372 155.712951,55.4587559 C155.638111,57.07441 156.918308,57.0475558 157.05478,58.4809535 L159.029664,58.0015401 L158.239447,54.7319317" id="Fill-37" fill="#FDC8A8"></path>
                <path d="M171.080154,61.4397575 C170.251636,62.9889364 165.764344,66.5121188 164.180387,66.4390402 C162.527313,66.361119 158.130269,62.1925555 157.548281,60.5839451 C155.944073,56.1384752 156.866361,44.4208012 165.133491,45.2312696 C167.338176,45.4474239 171.252725,44.7223606 171.873454,48.911615 C172.268342,51.5776643 171.805658,60.0825201 171.080154,61.4397575" id="Fill-38" fill="#FDC8A8"></path>
                <path d="M168.446682,67.5589922 C167.790735,67.4969194 167.13655,67.4639019 166.496011,67.4639019 C166.450227,67.4639019 166.404443,67.4639019 166.359099,67.4643422 C166.936244,67.0487625 167.34566,66.302568 167.399809,64.9202373 C167.923686,64.552643 168.448443,64.1467485 168.933139,63.7364516 L168.995212,66.2554631 C168.989489,66.7269524 168.791825,67.1707069 168.446682,67.5589922" id="Fill-40" fill="#FB9D6F"></path>
                <path d="M171.611955,58.9273494 C171.612836,58.9203057 171.613716,58.9128218 171.614597,58.905778 C171.77176,57.9302224 172.691846,57.8025549 173.029505,56.8582557 C172.689205,57.8091584 171.758553,57.9319833 171.611955,58.9273494 M173.029945,56.8578155 C173.030385,56.8560545 173.031266,56.8542936 173.031706,56.8520924 C173.031266,56.8542936 173.030385,56.8560545 173.029945,56.8578155 M173.032146,56.851212 C173.033027,56.849451 173.033467,56.8476901 173.033907,56.8459292 C173.033467,56.8476901 173.033027,56.849451 173.032146,56.851212 M173.034787,56.8441683 C173.035228,56.8424073 173.035668,56.8406464 173.036548,56.8388855 C173.035668,56.8406464 173.035228,56.8424073 173.034787,56.8441683 M173.036989,56.8375648 C173.037429,56.8362441 173.037869,56.8349234 173.038309,56.8336027 C173.037869,56.8349234 173.037429,56.8362441 173.036989,56.8375648 M173.03919,56.830521 C173.03963,56.8300808 173.03963,56.8292003 173.04007,56.8287601 C173.03963,56.8292003 173.03963,56.8300808 173.03919,56.830521 M173.041831,56.8234773 L173.041831,56.8230371 L173.041831,56.8234773" id="Fill-41" fill="#FDC8A8"></path>
                <path d="M171.614597,58.905778 C171.701763,58.1930413 171.777483,57.3852143 171.839115,56.5404077 C172.136713,56.0495482 172.419782,55.5498841 172.682161,55.0585844 C172.997368,55.2672547 173.175222,55.672709 173.150569,56.2062711 C173.139563,56.4457577 173.100382,56.6482647 173.041831,56.8230371 L173.041831,56.8234773 C173.040951,56.8252382 173.040511,56.8269992 173.04007,56.8287601 C173.03963,56.8292003 173.03963,56.8300808 173.03919,56.830521 C173.03919,56.8314015 173.03875,56.8327222 173.038309,56.8336027 C173.037869,56.8349234 173.037429,56.8362441 173.036989,56.8375648 C173.036989,56.838005 173.036548,56.8384452 173.036548,56.8388855 C173.035668,56.8406464 173.035228,56.8424073 173.034787,56.8441683 C173.034347,56.8450487 173.034347,56.8450487 173.033907,56.8459292 C173.033467,56.8476901 173.033027,56.849451 173.032146,56.851212 C173.032146,56.8516522 173.032146,56.8516522 173.031706,56.8520924 C173.031266,56.8542936 173.030385,56.8560545 173.029945,56.8578155 C173.029945,56.8582557 173.029505,56.8582557 173.029505,56.8582557 C172.691846,57.8025549 171.77176,57.9302224 171.614597,58.905778" id="Fill-42" fill="#FB9D6F"></path>
                <path d="M167.399809,64.9202373 C167.409054,64.6851531 167.407733,64.4311388 167.395406,64.157314 C167.317045,62.4047476 166.692795,61.8518153 165.350526,61.8518153 C164.73376,61.8518153 163.965113,61.9689172 163.028298,62.1397275 C162.985155,62.1476517 162.904152,62.1533747 162.794094,62.1533747 C162.062427,62.1533747 160.047482,61.8971593 159.273993,60.2859076 C159.163935,60.0569866 159.042431,59.8298265 158.914764,59.6035469 C159.103623,59.8038528 159.298206,59.9900712 159.497191,60.1608815 C159.32374,60.0367359 159.160854,59.900704 159.007653,59.753226 C160.014905,60.7587175 161.176239,61.3702008 162.371031,61.3702008 C162.46524,61.3702008 162.55989,61.3662387 162.65454,61.3583145 C162.656742,61.3583145 162.658943,61.3583145 162.661144,61.3578742 C162.662465,61.3578742 162.663345,61.3578742 162.665106,61.357434 C162.6924,61.3552328 162.719695,61.3525914 162.746989,61.3495098 C163.284954,61.2909589 163.860778,61.2707082 164.399183,61.2707082 C165.593094,61.2707082 166.602107,61.3702008 166.602107,61.3702008 C166.657576,61.3759238 166.713926,61.3790054 166.769836,61.3790054 C168.38637,61.3790054 170.310187,59.0638216 171.839115,56.5404077 C171.777483,57.3852143 171.701763,58.1930413 171.614597,58.905778 C171.613716,58.9128218 171.612836,58.9203057 171.611955,58.9273494 C171.608874,58.9484806 171.605792,58.970052 171.603591,58.9920636 C171.456113,60.1639631 171.277819,61.0690816 171.080154,61.4397575 C170.767149,62.0239463 169.934229,62.8885634 168.93402,63.7351309 L168.93402,63.7355711 C168.93402,63.7360113 168.93358,63.7360113 168.933139,63.7364516 C168.448443,64.1467485 167.923686,64.552643 167.399809,64.9202373" id="Fill-43" fill="#FB9D6F"></path>
                <path d="M150.007535,107.353828 C150.007535,108.807036 151.185598,109.984659 152.638806,109.984659 C154.091574,109.984659 155.269637,108.807036 155.269637,107.353828 C155.269637,105.90062 154.091574,104.722997 152.638806,104.722997 C151.185598,104.722997 150.007535,105.90062 150.007535,107.353828" id="Fill-44" fill="#FDC8A8"></path>
                <path d="M175.458709,106.611155 C175.458709,106.611155 176.00988,84.7064965 178.616498,76.5934479 L178.436003,76.5934479 L178.436003,71.6342264 C178.384936,71.6003285 178.33695,71.5633489 178.293807,71.5197659 C177.471453,70.6886065 176.200941,68.3043062 169.902092,67.9261463 C169.244384,70.9655129 158.320009,68.7656701 159.159533,66.8418531 C155.655721,66.8418531 149.435233,70.1277501 149.435233,70.1277501 C149.180338,71.0055741 148.165161,75.6077668 148.632688,77.6843445 C150.985292,88.124023 151.749536,106.969065 151.749536,106.969065 C151.944559,108.103544 151.455901,114.007065 152.611071,114.403274 C155.712951,115.465996 157.35634,115.537754 163.236528,115.678629 C169.117157,115.819943 175.604426,114.105677 175.935041,113.401745 C175.935041,113.401745 175.313432,108.432838 175.458709,106.611155" id="Fill-45" fill="#283042"></path>
                <path d="M182.580794,77.3013421 C184.286255,79.2986779 187.807236,84.0558325 186.284912,86.6329548 C183.688419,91.027798 179.531742,87.6076301 178.968244,86.9855812 L167.111016,74.7162956 C164.679171,71.6756083 160.163704,69.3938821 160.163704,69.3938821 C163.811032,65.6074406 175.48028,68.0511724 177.911685,71.0909792 L182.580794,77.3013421" id="Fill-46" fill="#283042"></path>
                <path d="M175.931959,113.407468 C175.932399,113.407028 175.932399,113.406147 175.932839,113.405707 C175.932399,113.406147 175.932399,113.407028 175.931959,113.407468 M175.932839,113.405267 C175.93328,113.404827 175.93328,113.404386 175.93372,113.403946 C175.93372,113.404386 175.93328,113.404827 175.932839,113.405267 M175.93372,113.403506 C175.93416,113.403066 175.9346,113.402185 175.935041,113.401745 C175.9346,113.402185 175.93416,113.403066 175.93372,113.403506 M175.436697,107.275907 C175.436697,107.026295 175.443741,106.801336 175.458709,106.611155 C175.443741,106.801336 175.436697,107.026295 175.436697,107.275907 M175.458709,106.610715 C175.459149,106.610715 175.459149,106.610275 175.459149,106.610275 C175.459149,106.610275 175.459149,106.610715 175.458709,106.610715 M175.459149,106.610275 C175.459149,106.609395 175.459149,106.608514 175.459149,106.607634 C175.459149,106.608514 175.459149,106.609395 175.459149,106.610275 M175.459149,106.606753 C175.459149,106.604992 175.459149,106.602351 175.459149,106.598829 C175.459149,106.602351 175.459149,106.604992 175.459149,106.606753 M175.459149,106.598829 C175.470595,106.166961 175.785802,94.3330652 176.990278,84.9631522 L176.991159,84.9644729 C175.786242,94.3339456 175.470595,106.167401 175.459149,106.598829" id="Fill-49" fill="#F48BAA"></path>
                <path d="M166.298347,115.599827 C169.022507,114.789359 171.79157,114.679741 172.853412,111.607797 C175.019357,105.348128 173.047994,86.3829027 176.902232,84.8623389 L176.990278,84.9631522 C175.785802,94.3330652 175.470595,106.166961 175.459149,106.598829 C175.459149,106.602351 175.459149,106.604992 175.459149,106.606753 C175.459149,106.607193 175.459149,106.607193 175.459149,106.607634 C175.459149,106.608514 175.459149,106.609395 175.459149,106.610275 C175.459149,106.610275 175.459149,106.610715 175.458709,106.610715 C175.458709,106.610715 175.458709,106.610715 175.458709,106.611155 C175.443741,106.801336 175.436697,107.026295 175.436697,107.275907 C175.436697,109.416759 175.935041,113.401745 175.935041,113.401745 C175.9346,113.402185 175.93416,113.403066 175.93372,113.403506 C175.93372,113.403506 175.93372,113.403506 175.93372,113.403946 C175.93328,113.404386 175.93328,113.404827 175.932839,113.405267 C175.932839,113.405707 175.932839,113.405707 175.932839,113.405707 C175.932399,113.406147 175.932399,113.407028 175.931959,113.407468 C175.898942,113.471742 175.816178,113.54394 175.68807,113.622302 C175.588577,113.683054 175.46135,113.747768 175.30947,113.815124 C173.873871,114.45082 170.209374,115.325562 166.298347,115.599827" id="Fill-50" fill="#261A2C"></path>
                <path d="M183.043478,77.8582365 C182.879271,77.6552892 182.723869,77.4686305 182.580794,77.3013421 C182.723869,77.4686305 182.879271,77.6552892 183.043478,77.8582365 M178.293807,71.5197659 C178.180227,71.4048651 178.057402,71.2600286 177.914327,71.0949413 L177.911685,71.0909792 C178.055642,71.2578274 178.178907,71.4035445 178.293807,71.5197659" id="Fill-51" fill="#261A2C"></path>
                <path d="M178.436003,71.7887481 L177.914327,71.0949413 C178.057402,71.2600286 178.180227,71.4048651 178.293807,71.5197659 C178.33695,71.5633489 178.384936,71.6003285 178.436003,71.6342264 L178.436003,71.7887481 M177.677041,70.8281603 C176.59671,69.7302199 174.346681,68.7339733 171.77176,68.1154463 C175.36714,68.6424049 176.850725,69.9234821 177.677041,70.8281603" id="Fill-52" fill="#261A2C"></path>
                <path d="M161.21674,68.5829735 C159.984529,68.1524259 159.123434,67.6065373 159.113749,67.0654913 L159.114629,67.0654913 C159.117271,67.1671851 159.149848,67.2693191 159.208839,67.3701324 C159.544296,67.3714531 159.87359,67.386421 160.19408,67.4159166 C160.498721,67.8112455 160.95172,68.156388 161.509495,68.4249299 C161.409562,68.4755567 161.312271,68.5279444 161.21674,68.5829735" id="Fill-55" fill="#F48BAA"></path>
                <path d="M161.509495,68.4249299 C160.95172,68.156388 160.498721,67.8112455 160.19408,67.4159166 C161.060458,67.4951584 161.864763,67.6809367 162.563852,67.997464 C162.414173,68.0458896 162.267576,68.0973968 162.1245,68.1528661 C161.719046,68.1414201 161.299944,68.1075221 160.87556,68.0511724 C161.067942,68.1872043 161.281014,68.3117901 161.512577,68.4236092 C161.511696,68.4240495 161.510816,68.4244897 161.509495,68.4249299" id="Fill-56" fill="#F26D70"></path>
                <path d="M161.425851,70.0986947 C160.079619,69.7742432 158.747035,69.1596783 157.420614,68.0987175 C157.269174,67.8125662 158.783574,67.8068432 158.656787,67.4643422 C158.602639,67.314663 158.60572,66.8418531 159.159533,66.8418531 C159.145886,66.8731096 159.13532,66.9043662 159.127836,66.9356227 C159.117711,66.9787655 159.112868,67.0223485 159.113749,67.0654913 C159.123434,67.6065373 159.984529,68.1524259 161.21674,68.5829735 C160.81833,68.8132152 160.463502,69.0826376 160.163704,69.3938821 C160.163704,69.3938821 160.666009,69.6474562 161.425851,70.0986947" id="Fill-58" fill="#261A2C"></path>
                <path d="M186.481255,83.8762176 C186.01769,83.6358505 186.315728,81.1907981 180.860804,76.3372324 C178.364685,74.1171389 174.436929,69.6567011 170.927394,69.6567011 C170.736333,69.6567011 170.546152,69.669908 170.358173,69.6972025 C168.251219,70.0053654 166.204577,70.4050967 164.195795,70.4050967 C163.265143,70.4050967 162.341975,70.3192513 161.425851,70.0986947 C160.666009,69.6474562 160.163704,69.3938821 160.163704,69.3938821 C160.463502,69.0826376 160.81833,68.8132152 161.21674,68.5829735 C161.312271,68.5279444 161.409562,68.4755567 161.509495,68.4249299 C161.510816,68.4244897 161.511696,68.4240495 161.512577,68.4236092 C161.7076,68.3249971 161.912308,68.2347494 162.1245,68.1528661 C162.267576,68.0973968 162.414173,68.0458896 162.563852,67.997464 C162.565613,67.9983444 162.567374,67.9992249 162.569135,68.0001054 C163.723866,67.6298697 165.078462,67.4665433 166.501294,67.4665433 C168.229647,67.4665433 170.058374,67.7077908 171.749748,68.1123647 C171.756792,68.1132452 171.764716,68.1145659 171.77176,68.1154463 C174.346681,68.7339733 176.59671,69.7302199 177.677041,70.8281603 C177.761126,70.9201689 177.838167,71.0082155 177.910365,71.0909792 L177.911685,71.0909792 L177.914327,71.0949413 L178.436003,71.7887481 L178.436003,71.7896285 L182.580794,77.3013421 C182.723869,77.4686305 182.879271,77.6552892 183.043478,77.8582365 C184.255439,79.3567886 185.940209,81.7516545 186.481255,83.8762176" id="Fill-59" fill="#261A2C"></path>
                <path d="M170.073782,67.3133423 C170.073782,67.3133423 168.289959,69.4330628 164.146929,69.3168414 C160.004339,69.2010602 159.007653,67.0619695 159.007653,67.0619695 L159.249781,64.8740129 C166.259606,67.3503219 169.664806,64.5350337 169.664806,64.5350337 L170.073782,67.3133423" id="Fill-61" fill="#FFFFFF"></path>
                <path d="M171.339451,68.3500904 C171.339451,68.3500904 169.096025,70.4698109 163.884551,70.3535894 C158.672636,70.237368 157.420614,68.0987175 157.420614,68.0987175 L157.724815,65.9112012 C166.542235,68.3870699 170.823499,65.5713415 170.823499,65.5713415 L171.339451,68.3500904" id="Fill-62" fill="#283042"></path>
                <path d="M157.493252,180.615595 L157.497654,180.542956 C157.497654,179.136413 156.149222,177.994449 154.485582,177.994449 C152.823264,177.994449 151.474831,179.136413 151.474831,180.542956 L151.479233,180.615595 L157.493252,180.615595" id="Fill-63" fill="#EF7970"></path>
                <path d="M158.11442,181.152679 C158.11442,181.479772 157.849841,181.743911 157.524068,181.743911 L151.598096,181.743911 C151.271443,181.743911 151.008184,181.479772 151.008184,181.152679 C151.008184,180.826466 151.271443,180.562327 151.598096,180.562327 L157.524068,180.562327 C157.849841,180.562327 158.11442,180.826466 158.11442,181.152679" id="Fill-64" fill="#283042"></path>
                <path d="M179.876004,180.615595 L181.595553,180.542956 C181.595553,179.136413 178.531973,177.994449 176.869214,177.994449 C175.205575,177.994449 173.857582,179.136413 173.857582,180.542956 L173.861545,180.615595 L179.876004,180.615595" id="Fill-65" fill="#EF7970"></path>
                <path d="M182.211879,181.152679 C182.211879,181.479772 181.947739,181.743911 181.621086,181.743911 L173.980848,181.743911 C173.654195,181.743911 173.390055,181.479772 173.390055,181.152679 C173.390055,180.826466 173.654195,180.562327 173.980848,180.562327 L181.621086,180.562327 C181.947739,180.562327 182.211879,180.826466 182.211879,181.152679" id="Fill-66" fill="#283042"></path>
                <path d="M174.158261,46.0399771 C174.053046,44.8500281 173.270752,43.9198163 172.277587,43.6715251 C170.814254,42.5194361 164.754891,40.5551177 160.003899,43.2933652 C151.844186,47.9928494 157.065786,61.968477 162.746989,61.3495098 C164.477984,61.16065 166.602107,61.3702008 166.602107,61.3702008 C169.914418,61.7105006 174.657925,51.7418711 174.537742,50.3591002 C174.444853,49.2946175 174.132728,48.378053 173.732997,47.8392082 C174.050404,47.3325003 174.216372,46.7029675 174.158261,46.0399771" id="Fill-67" fill="#7B424E"></path>
                <path d="M162.371031,61.3702008 C161.176239,61.3702008 160.014905,60.7587175 159.007653,59.753226 C159.160854,59.900704 159.32374,60.0367359 159.497191,60.1608815 C160.385581,60.9216036 161.371262,61.3697605 162.380275,61.3697605 C162.471404,61.3697605 162.562972,61.3657984 162.65454,61.3583145 C162.55989,61.3662387 162.46524,61.3702008 162.371031,61.3702008 M162.661144,61.3578742 C162.662465,61.3578742 162.663345,61.3578742 162.665106,61.357434 C162.663345,61.3578742 162.662465,61.3578742 162.661144,61.3578742" id="Fill-68" fill="#F0564A"></path>
                <path d="M166.769836,61.3790054 C166.713926,61.3790054 166.657576,61.3759238 166.602107,61.3702008 C166.602107,61.3702008 165.593094,61.2707082 164.399183,61.2707082 C163.860778,61.2707082 163.284954,61.2909589 162.746989,61.3495098 C162.719695,61.3525914 162.6924,61.3552328 162.665106,61.357434 C162.663345,61.3578742 162.662465,61.3578742 162.661144,61.3578742 C162.658943,61.3583145 162.656742,61.3583145 162.65454,61.3583145 C162.562972,61.3657984 162.471404,61.3697605 162.380275,61.3697605 C161.371262,61.3697605 160.385581,60.9216036 159.497191,60.1608815 C159.918494,60.4615604 160.401429,60.689601 160.960085,60.8265134 C161.229507,60.892108 161.49893,60.9198427 161.768352,60.9198427 C162.675231,60.9198427 163.578149,60.6059568 164.454212,60.3779162 C165.591333,60.0829603 166.595063,60.2123887 167.57282,59.416448 C168.505673,58.6548454 169.216649,57.3931384 169.947876,56.4026148 C170.838466,55.1950565 171.456553,53.7356851 171.928042,52.2727918 C172.296957,51.1251051 172.443115,49.6670544 172.072879,48.4973561 C171.819305,47.8462519 171.717611,47.1581682 171.764716,46.4339854 C171.870812,45.9352017 172.328214,45.3809487 172.551852,44.9151825 C172.731467,44.5401042 172.689205,44.1962825 172.651785,43.8027144 C173.462253,44.1663467 174.065812,45.00499 174.158261,46.0399771 C174.166186,46.1280236 174.170148,46.2151897 174.169707,46.3019155 C174.169707,46.8680548 174.008142,47.3998559 173.732997,47.8392082 C174.132728,48.378053 174.444853,49.2946175 174.537742,50.3591002 C174.539063,50.3762693 174.539943,50.394759 174.539943,50.4145695 C174.539503,51.962868 170.029759,61.3794456 166.769836,61.3790054" id="Fill-69" fill="#762434"></path>
            </g>
        </g>
    </g>
</svg>