<?xml version="1.0" encoding="UTF-8"?>
<svg width="303px" height="302px" viewBox="0 0 303 302" version="1.1" xmlns="http://www.w3.org/2000/svg" xmlns:xlink="http://www.w3.org/1999/xlink">
    <!-- Generator: Sketch 48.1 (47250) - http://www.bohemiancoding.com/sketch -->
    <title>Artboard Copy</title>
    <desc>Created with Sketch.</desc>
    <defs>
        <polygon id="path-1" points="18.204 3.118 15.266 3.118 0.909 2.969 0.909 0.794 18.204 2.826"></polygon>
    </defs>
    <g id="Property-Owner---Desktop" stroke="none" stroke-width="1" fill="none" fill-rule="evenodd">
        <g id="Artboard-Copy">
            <g id="shutterstock_485037937">
                <polygon id="Fill-3" fill="#819BA3" points="127.978 209.869 135.158 209.869 135.158 189.04 127.978 189.04"></polygon>
                <path d="M148.937,92.871 L99.686,92.871 C97.606,92.871 95.518,93.603 93.831,95.076 C92.155,96.561 91.168,98.545 90.903,100.603 L80.159,184.47 C79.946,186.071 80.169,187.715 80.838,189.23 C81.198,190.08 81.696,190.887 82.345,191.618 C84.137,193.654 86.64,194.693 89.153,194.693 L148.937,194.693 L148.937,92.871" id="Fill-4" fill="#82B34D"></path>
                <path d="M115.942,92.871 C116.741,98.896 115.806,104.84 114.597,111.032 C112.637,121.072 111.176,131.194 109.959,141.35 C107.824,159.154 106.169,177.03 103.054,194.693 L148.937,194.693 L148.937,92.871 L115.942,92.871" id="Fill-5" fill="#476E37"></path>
                <path d="M148.141,102.926 L103.249,102.926 C101.23,102.926 99.201,103.646 97.563,105.131 C95.936,106.616 94.978,108.59 94.72,110.658 L84.945,189.23 C85.295,190.08 85.779,190.887 86.407,191.618 C88.149,193.654 90.58,194.693 93.021,194.693 L148.141,194.693 L148.141,102.926" id="Fill-6" fill="#476E37"></path>
                <path d="M296.977,301.727 L18.528,301.727 C15.317,301.727 12.713,299.125 12.713,295.912 C12.713,292.7 15.317,290.098 18.528,290.098 L296.977,290.098 C300.187,290.098 302.791,292.7 302.791,295.912 C302.791,299.125 300.187,301.727 296.977,301.727" id="Fill-7" fill="#B1CADE"></path>
                <path d="M187.769,288.691 C187.667,288.691 187.566,288.686 187.463,288.67 L131.486,280.624 C130.327,280.458 129.521,279.383 129.688,278.223 C129.855,277.063 130.93,276.256 132.09,276.426 L188.066,284.471 C189.227,284.638 190.031,285.713 189.865,286.872 C189.713,287.93 188.806,288.691 187.769,288.691" id="Fill-8" fill="#72868A"></path>
                <path d="M75.845,288.691 C74.806,288.691 73.898,287.928 73.747,286.87 C73.582,285.709 74.389,284.636 75.549,284.471 L132.037,276.425 C133.199,276.257 134.271,277.065 134.437,278.226 C134.602,279.386 133.795,280.459 132.636,280.625 L76.146,288.671 C76.046,288.686 75.944,288.691 75.845,288.691" id="Fill-9" fill="#72868A"></path>
                <polyline id="Fill-10" fill="#72868A" points="129.812 295.688 133.755 295.688 133.759 232.078 129.816 232.078 129.812 295.688"></polyline>
                <path d="M125.372,228.896 C125.372,230.654 126.796,232.078 128.554,232.078 L135.456,232.078 C137.214,232.078 138.638,230.654 138.638,228.896 L138.638,210.821 C138.638,209.063 137.214,207.64 135.456,207.64 L128.554,207.64 C126.796,207.64 125.372,209.063 125.372,210.821 L125.372,228.896" id="Fill-11" fill="#544E4E"></path>
                <path d="M178.254,291.816 C178.254,294.965 180.807,297.518 183.956,297.518 C187.104,297.518 189.656,294.965 189.656,291.816 C189.656,288.667 187.104,286.115 183.956,286.115 C180.807,286.115 178.254,288.667 178.254,291.816" id="Fill-12" fill="#363232"></path>
                <path d="M177.206,291.565 C177.34,287.952 180.312,285.055 183.956,285.055 C187.6,285.055 190.571,287.952 190.705,291.565 L177.206,291.565" id="Fill-13" fill="#72868A"></path>
                <path d="M126.282,291.816 C126.282,294.965 128.834,297.518 131.983,297.518 C135.132,297.518 137.684,294.965 137.684,291.816 C137.684,288.667 135.132,286.115 131.983,286.115 C128.834,286.115 126.282,288.667 126.282,291.816" id="Fill-14" fill="#363232"></path>
                <path d="M125.233,291.565 C125.367,287.952 128.339,285.055 131.983,285.055 C135.627,285.055 138.599,287.952 138.732,291.565 L125.233,291.565" id="Fill-15" fill="#72868A"></path>
                <path d="M74.31,291.816 C74.31,294.965 76.862,297.518 80.011,297.518 C83.159,297.518 85.712,294.965 85.712,291.816 C85.712,288.667 83.159,286.115 80.011,286.115 C76.862,286.115 74.31,288.667 74.31,291.816" id="Fill-16" fill="#363232"></path>
                <path d="M73.261,291.565 C73.395,287.952 76.366,285.055 80.011,285.055 C83.654,285.055 86.626,287.952 86.76,291.565 L73.261,291.565" id="Fill-17" fill="#72868A"></path>
                <path d="M86.343,211.731 C86.343,216.219 89.991,219.856 94.479,219.856 L169.53,219.856 C174.028,219.856 177.666,216.219 177.666,211.731 C177.666,209.484 176.754,207.448 175.279,205.973 C173.816,204.509 171.78,203.597 169.53,203.597 L167.197,203.597 C167.197,203.597 165.384,203.872 164.608,204.657 L164.599,204.668 C163.591,205.909 162.085,206.694 160.408,206.694 L103.6,206.694 C101.924,206.694 100.418,205.909 99.41,204.668 L99.399,204.657 C98.625,203.872 96.812,203.597 96.812,203.597 L94.479,203.597 C89.991,203.597 86.343,207.234 86.343,211.731" id="Fill-18" fill="#82B34D"></path>
                <path d="M175.279,205.973 C173.816,204.509 171.78,203.597 169.53,203.597 L167.197,203.597 C167.197,203.597 165.384,203.872 164.608,204.657 L164.599,204.668 C163.591,205.909 162.085,206.694 160.408,206.694 L127.097,206.694 C128.596,207.832 129.706,210.173 129.925,211.906 C130.27,214.617 129.957,217.258 129.343,219.856 L169.53,219.856 C174.028,219.856 177.666,216.219 177.666,211.731 C177.666,209.484 176.754,207.448 175.279,205.973" id="Fill-19" fill="#476E37"></path>
                <path d="M86.343,211.734 C86.343,216.221 89.992,219.859 94.479,219.859 L169.531,219.859 C174.028,219.859 177.667,216.221 177.667,211.734 L86.343,211.734" id="Fill-20" fill="#476E37"></path>
                <polygon id="Fill-21" fill="#6E6565" points="248.375 297.511 254.8 297.511 254.8 171.239 248.375 171.239"></polygon>
                <polygon id="Fill-22" fill="#6E6565" points="261.595 297.511 268.021 297.511 268.021 171.239 261.595 171.239"></polygon>
                <path d="M167.129,150.601 L166.175,185.563 L148.063,185.563 L148.063,206.782 C148.063,206.782 144.749,206.782 131.889,206.782 C119.028,206.782 120.46,194.918 120.46,194.918 L117.481,191.496 C119.791,178.371 121.722,163.925 121.413,150.601 L167.129,150.601" id="Fill-23" fill="#BA2B2C"></path>
                <polygon id="Fill-24" fill="#6E6565" points="46.031 297.379 52.456 297.379 52.456 171.239 46.031 171.239"></polygon>
                <polygon id="Fill-25" fill="#6E6565" points="61.949 297.379 68.373 297.379 68.373 171.239 61.949 171.239"></polygon>
                <polygon id="Fill-26" fill="#6E6565" points="48.732 264.827 61.949 264.827 61.949 245.844 48.732 245.844"></polygon>
                <polygon id="Fill-27" fill="#363232" points="261.595 191.385 268.021 191.385 268.021 171.239 261.595 171.239"></polygon>
                <polygon id="Fill-28" fill="#363232" points="248.375 191.385 254.8 191.385 254.8 171.239 248.375 171.239"></polygon>
                <polygon id="Fill-29" fill="#363232" points="61.949 191.385 68.373 191.385 68.373 171.239 61.949 171.239"></polygon>
                <polygon id="Fill-30" fill="#363232" points="46.031 191.385 52.456 191.385 52.456 171.239 46.031 171.239"></polygon>
                <polygon id="Fill-31" fill="#FFB936" points="12.965 171.238 302.391 171.238 302.391 161.192 12.965 161.192"></polygon>
                <polygon id="Fill-32" fill="#A67A0E" points="9.209 171.238 57.297 171.238 57.297 161.192 9.209 161.192"></polygon>
                <polygon id="Fill-33" fill="#6E6565" points="253.587 259.331 266.803 259.331 266.803 240.347 253.587 240.347"></polygon>
                <polyline id="Fill-34" fill="#DE9F76" points="120.412 136.213 122.384 137.14 127.811 136.979 127.811 149.092 122.508 149.092 115.156 150.601 120.412 136.213"></polyline>
                <path d="M117.481,191.496 C117.481,199.933 123.251,206.771 130.369,206.771 L154.767,206.771 C161.884,206.771 192.354,193.846 192.354,185.41 L190.756,181.34 C190.756,179.466 161.884,176.225 154.767,176.225 L130.369,176.225 C123.251,176.225 117.481,183.063 117.481,191.496" id="Fill-35" fill="#1F1C1C"></path>
                <path d="M161.154,206.878 C154.036,206.878 148.267,201.108 148.267,193.99 C148.267,186.873 154.036,181.104 161.154,181.104 L185.552,181.104 C189.254,181.104 192.592,182.665 194.941,185.166 C194.941,185.166 198.578,187.893 196.191,193.99 L161.154,206.878" id="Fill-36" fill="#D4854E"></path>
                <polygon id="Fill-37" fill="#D4854E" points="160.532 206.292 184.922 206.292 184.922 195.051 160.532 195.051"></polygon>
                <path d="M174.757,199.472 C174.757,199.472 180.007,181.337 160.824,181.34 C153.752,181.34 153.236,185.918 153.236,185.918 L150.389,193.99 L153.236,202.069 L156.019,204.245 L174.757,199.472" id="Fill-38" fill="#D49366"></path>
                <path d="M174.757,199.472 C174.757,199.472 180.007,181.337 160.824,181.34 C153.752,181.341 151.688,185.596 151.688,185.596 L148.267,193.992 L151.115,202.071 L156.019,204.245 L174.757,199.472" id="Fill-39" fill="#E39A68"></path>
                <path d="M161.154,207.939 L161.154,205.817 C154.633,205.817 149.327,200.512 149.327,193.99 C149.327,187.47 154.633,182.163 161.154,182.163 L185.552,182.163 C188.85,182.163 191.909,183.487 194.17,185.893 L194.307,186.015 C194.419,186.104 197.244,188.392 195.204,193.605 L197.18,194.378 C199.651,188.062 196.273,184.891 195.664,184.385 C193.041,181.625 189.36,180.043 185.552,180.043 L161.154,180.043 C153.464,180.043 147.206,186.301 147.206,193.99 C147.206,201.682 153.464,207.939 161.154,207.939" id="Fill-40" fill="#4D3E3E"></path>
                <path d="M123.826,286.703 C126.874,286.703 129.819,285.056 131.34,282.174 L174.122,201.024 C176.309,196.878 174.72,191.746 170.574,189.561 C166.428,187.378 161.297,188.965 159.11,193.109 L116.327,274.258 C114.142,278.404 115.731,283.537 119.877,285.723 C121.138,286.388 122.492,286.703 123.826,286.703" id="Fill-41" fill="#F7BE9F"></path>
                <path d="M151.111,289.877 C154.401,289.877 157.531,287.953 158.912,284.739 L196.801,196.557 C198.65,192.252 196.66,187.261 192.354,185.411 C188.047,183.562 183.059,185.551 181.209,189.857 L143.319,278.04 C141.47,282.346 143.459,287.336 147.766,289.187 C148.858,289.655 149.993,289.877 151.111,289.877" id="Fill-42" fill="#F7BE9F"></path>
                <path d="M174.127,201.023 L160.392,227.073 L139.582,230.149 L159.107,193.111 C161.293,188.964 166.426,187.373 170.574,189.559 C174.722,191.743 176.313,196.876 174.127,201.023" id="Fill-43" fill="#E39A68"></path>
                <path d="M196.805,196.559 L185.275,223.393 L165.546,226.311 L181.213,189.854 C183.058,185.549 188.043,183.565 192.35,185.411 C196.655,187.257 198.649,192.253 196.805,196.559" id="Fill-44" fill="#E39A68"></path>
                <path d="M139.876,285.68 L146.505,270.3 C144.648,274.605 146.643,279.602 150.949,281.447 C152.041,281.913 153.177,282.138 154.29,282.138 C157.377,282.138 160.326,280.449 161.822,277.586 L155.468,292.381 C154.09,295.596 150.949,297.518 147.661,297.518 C146.547,297.518 145.412,297.293 144.32,296.827 C140.014,294.981 138.02,289.984 139.876,285.68" id="Fill-45" fill="#1F1C1C"></path>
                <path d="M111.896,292.282 C112.564,291.381 114.59,291.327 116.669,292.188 C118.854,293.101 120.296,294.712 119.936,295.825 C122.556,295.486 124.983,293.927 126.33,291.411 L133.914,277.211 C132.187,279.938 129.1,281.369 126.023,281.104 C124.921,281.008 123.807,280.699 122.757,280.139 C118.62,277.932 117.062,272.788 119.277,268.651 L111.365,283.416 C109.807,286.322 110.114,289.749 111.896,292.282" id="Fill-46" fill="#1F1C1C"></path>
                <path d="M111.896,292.282 C112.627,293.343 113.624,294.244 114.845,294.893 C115.894,295.453 117.009,295.772 118.11,295.868 C118.726,295.92 119.33,295.899 119.936,295.825 C120.296,294.712 118.854,293.101 116.669,292.188 C114.59,291.327 112.564,291.381 111.896,292.282" id="Fill-47" fill="#F7C39F"></path>
                <path d="M140.735,293.852 C141.468,294.912 142.465,295.814 143.685,296.461 C144.734,297.024 145.848,297.34 146.951,297.436 C147.566,297.49 148.172,297.469 148.775,297.396 C149.136,296.28 147.694,294.669 145.508,293.757 C143.43,292.896 141.403,292.951 140.735,293.852" id="Fill-48" fill="#F7C39F"></path>
                <polyline id="Fill-49" fill="#4D1C1C" points="157.221 113.495 147.742 113.495 155.021 96.632 157.221 90.707 170.822 77.117 157.221 113.495"></polyline>
                <polyline id="Fill-50" fill="#BA2B2C" points="161.514 161.214 187.773 161.214 170.513 120.943 161.514 124.119 161.514 161.214"></polyline>
                <path d="M172.347,124.119 C172.347,130.415 167.245,135.512 160.953,135.512 L121.872,135.512 C115.58,135.512 110.479,130.415 110.479,124.119 C110.479,117.827 115.58,112.726 121.872,112.726 L160.953,112.726 C167.245,112.726 172.347,117.827 172.347,124.119" id="Fill-51" fill="#F74A4B"></path>
                <polyline id="Fill-52" fill="#E39A68" points="139.831 89.103 155.565 95.995 147.739 113.503 145.193 119.207 134.532 113.495 127.577 109.77 139.831 89.103"></polyline>
                <path d="M156.188,48.481 L156.188,51.052 L158.764,51.052 C161.485,51.052 164.249,52.113 166.329,54.191 C168.408,56.31 169.469,59.037 169.469,61.795 L169.469,77.117 L172.154,62.025 C172.569,57.636 171.17,53.095 167.994,49.579 C165.685,47.081 161.131,44.272 156.188,44.272 L156.188,48.481" id="Fill-53" fill="#4D1C1C"></path>
                <path d="M142.815,94.842 C144.213,98.049 151.126,100.779 154.585,100.267 C158.74,100.267 162.895,98.457 166.066,94.847 C169.238,91.237 170.822,86.495 170.822,81.761 L170.822,63.783 C170.822,60.453 169.708,57.124 167.478,54.581 C165.249,52.041 162.328,50.774 159.406,50.774 L142.938,50.311 L142.815,94.842" id="Fill-54" fill="#F7BE9F"></path>
                <path d="M144.328,64.362 L144.382,60.093 C144.414,57.576 145.427,55.079 147.414,53.171 C149.402,51.263 151.995,50.311 154.588,50.311 L158.672,50.311 C162.044,50.311 164.7,50.441 167.271,52.939 C169.846,55.439 170.372,59.829 170.372,63.103 L170.372,64.362 L165.418,64.362 L164.572,60.61 L162.992,64.362 L144.328,64.362" id="Fill-55" fill="#4D1C1C"></path>
                <path d="M157.817,81.106 C157.817,81.587 158.206,81.974 158.685,81.974 L160.336,81.974 C160.814,81.974 161.201,81.587 161.201,81.106 C161.201,80.626 160.814,80.238 160.336,80.238 L158.685,80.238 C158.206,80.238 157.817,80.626 157.817,81.106" id="Fill-56" fill="#E89166"></path>
                <path d="M171.772,139.442 C171.751,141.033 171.454,142.719 170.945,144.321 C170.319,146.272 169.354,148.096 168.135,149.401 L166.279,151.406 L123.077,151.406 L123.077,125.6 L163.457,125.6 L168.368,131.157 C170.521,133.597 171.814,135.931 171.772,139.442" id="Fill-57" fill="#F74A4B"></path>
                <path d="M97.256,153.274 C96.493,154.954 96.576,156.973 97.648,158.638 C98.724,160.305 100.527,161.214 102.372,161.214 L123.475,158.786 L123.475,124.119 L110.479,124.119 L97.256,153.274" id="Fill-58" fill="#F74A4B"></path>
                <path d="M152.656,73.216 C152.607,74.626 151.368,75.774 149.887,75.774 C148.403,75.776 147.242,74.632 147.29,73.222 C147.34,71.812 148.509,72.071 149.993,72.069 C151.474,72.068 152.706,71.804 152.656,73.216" id="Fill-59" fill="#FFFFFF"></path>
                <path d="M152.759,73.266 C152.739,74.531 151.697,75.542 150.432,75.52 C149.165,75.499 148.155,74.456 148.176,73.19 C148.197,71.926 149.2,72.177 150.468,72.196 C151.73,72.217 152.781,71.999 152.759,73.266" id="Fill-60" fill="#1F1C1C"></path>
                <path d="M149.367,73.219 C149.361,73.571 149.073,73.847 148.724,73.842 C148.375,73.837 148.097,73.55 148.102,73.199 C148.107,72.85 148.396,72.57 148.744,72.577 C149.095,72.583 149.372,72.87 149.367,73.219" id="Fill-61" fill="#F5F5F5"></path>
                <path d="M168.871,73.216 C168.822,74.626 167.583,75.774 166.101,75.774 C164.618,75.776 163.456,74.632 163.505,73.222 C163.555,71.812 164.724,72.071 166.209,72.069 C167.688,72.068 168.92,71.804 168.871,73.216" id="Fill-62" fill="#FFFFFF"></path>
                <path d="M168.974,73.266 C168.952,74.531 167.912,75.542 166.646,75.52 C165.379,75.499 164.37,74.456 164.39,73.19 C164.411,71.926 165.415,72.177 166.682,72.196 C167.946,72.217 168.995,71.999 168.974,73.266" id="Fill-63" fill="#1F1C1C"></path>
                <path d="M165.581,73.219 C165.576,73.571 165.287,73.847 164.938,73.842 C164.59,73.837 164.312,73.55 164.317,73.199 C164.322,72.85 164.608,72.57 164.958,72.577 C165.31,72.583 165.587,72.87 165.581,73.219" id="Fill-64" fill="#F5F5F5"></path>
                <polyline id="Fill-65" fill="#FFFFFF" points="130.322 112.977 147.468 130.496 149.1 122.306 151.088 112.726 148.141 112.726 145.22 119.237 133.536 112.977 130.322 112.977"></polyline>
                <polyline id="Fill-66" fill="#F79F0F" points="148.738 124.119 145.22 119.237 142.682 125.604 147.515 136.526 148.738 124.119"></polyline>
                <path d="M157.817,49.581 C157.817,48.177 157.543,44.272 157.543,44.272 C157.543,44.272 153.446,44.272 152.042,44.272 L143.57,44.272 C137.758,44.272 131.944,46.494 127.507,50.927 C123.072,55.364 120.852,61.178 120.852,66.991 L120.886,112.622 C120.886,112.622 120.888,112.622 122.854,112.78 L122.732,112.878 C128.424,113.606 134.897,118.65 138.096,114.168 C138.787,113.198 139.347,111.917 139.8,110.499 C143.274,106.388 142.878,99.567 142.878,99.567 L142.878,63.157 C142.878,60.072 146.939,56.95 149.292,54.592 C151.646,52.241 154.731,51.064 157.817,51.064 L157.528,51.064 L157.817,49.581" id="Fill-67" fill="#4D1C1C"></path>
                <path d="M122.663,112.933 L122.732,112.878 C122.433,112.839 122.134,112.809 121.839,112.797 L122.663,112.933" id="Fill-68" fill="#1F1C1C"></path>
                <path d="M142.818,93.792 C142.818,93.792 142.84,94.43 142.815,95.708 C142.783,96.976 142.941,98.879 142.831,101.052 C142.718,103.226 142.557,105.761 142.28,108.483 C142.14,109.845 141.97,111.253 141.744,112.689 C141.511,114.126 141.244,115.585 140.786,117.081 C140.547,117.83 140.288,118.584 139.769,119.4 C139.631,119.605 139.483,119.813 139.267,120.027 C139.1,120.224 138.683,120.498 138.596,120.539 C138.358,120.695 137.831,120.977 137.384,121.123 C136.493,121.44 135.439,121.446 134.576,121.184 C133.705,120.93 133.006,120.5 132.399,120.063 C131.192,119.172 130.277,118.22 129.39,117.367 C128.511,116.51 127.688,115.735 126.889,115.098 C126.09,114.461 125.315,113.964 124.597,113.611 C123.879,113.252 123.217,113.053 122.663,112.933 C122.109,112.808 121.661,112.774 121.356,112.766 C121.051,112.756 120.888,112.752 120.888,112.752 L120.885,111.076 C120.885,111.076 121.014,111.164 121.381,111.155 C121.746,111.147 122.293,111.16 122.973,111.275 C123.652,111.384 124.474,111.591 125.345,111.973 C126.219,112.346 127.144,112.877 128.064,113.537 C128.984,114.197 129.905,114.979 130.838,115.8 C131.768,116.612 132.723,117.487 133.724,118.143 C134.223,118.469 134.733,118.723 135.203,118.828 C135.677,118.933 136.088,118.901 136.524,118.726 C136.738,118.629 136.85,118.588 137.2,118.344 C137.416,118.199 137.3,118.276 137.371,118.203 C137.406,118.165 137.463,118.077 137.517,117.981 C137.746,117.573 137.952,116.952 138.104,116.324 C138.417,115.05 138.597,113.662 138.735,112.299 C138.871,110.931 138.956,109.566 139.015,108.243 C139.131,105.593 139.146,103.104 139.133,100.969 C139.118,98.835 139.072,97.054 139.033,95.812 C138.985,94.575 138.957,93.868 138.957,93.868 L142.818,93.792" id="Fill-69" fill="#4D1C1C"></path>
                <path d="M152.657,69.99 L146.362,69.99 C145.925,69.99 145.569,69.635 145.569,69.198 C145.569,68.76 145.925,68.405 146.362,68.405 L152.657,68.405 C153.094,68.405 153.449,68.76 153.449,69.198 C153.449,69.635 153.094,69.99 152.657,69.99" id="Fill-70" fill="#4D1C1C"></path>
                <path d="M169.335,69.99 L163.04,69.99 C162.602,69.99 162.248,69.635 162.248,69.198 C162.248,68.76 162.602,68.405 163.04,68.405 L169.335,68.405 C169.772,68.405 170.127,68.76 170.127,69.198 C170.127,69.635 169.772,69.99 169.335,69.99" id="Fill-71" fill="#4D1C1C"></path>
                <path d="M170.945,144.321 C170.319,146.272 169.354,148.096 168.135,149.401 L166.279,151.406 L112.385,151.406 L118.972,138.503 L120.362,138.507 C120.828,140.577 121.773,142.475 123.077,144.066 C125.559,147.11 129.346,149.051 133.578,149.051 C140.027,149.051 146.094,144.543 147.451,138.507 C148.809,144.543 154.208,149.051 160.656,149.051 C164.772,149.051 168.464,147.228 170.945,144.321" id="Fill-72" fill="#BA2B2C"></path>
                <polyline id="Fill-73" fill="#F74A4B" points="107.394 160.496 155.238 155.407 154.063 144.222 113.354 148.492 107.394 160.496"></polyline>
                <path d="M170.505,147.342 C171.985,147.408 173.034,145.326 172.377,145.234 L163.701,144.316 C163.701,144.316 164.111,144.643 164.018,145.299 C163.925,145.955 164.382,146.563 165.038,146.654 C165.038,146.654 169.066,147.277 170.505,147.342" id="Fill-74" fill="#F7BE9F"></path>
                <path d="M154.555,153.668 C159.834,152.411 167.299,152.411 172.577,153.668 C172.464,148.458 168.082,144.267 162.683,144.267 L155.805,144.267 C155.608,144.267 152.982,144.4 152.788,144.411 L154.555,153.668" id="Fill-75" fill="#F7BE9F"></path>
                <path d="M173.473,155.188 C174.538,156.216 176.702,155.347 176.271,154.845 L170.827,148.415 C170.396,147.912 170.458,148.936 169.955,149.366 C169.451,149.797 169.392,150.556 169.824,151.059 C169.824,151.059 172.436,154.189 173.473,155.188" id="Fill-76" fill="#F7BE9F"></path>
                <path d="M169.745,154.832 C170.553,156.075 172.855,155.718 172.55,155.131 L169.253,148.876 C168.946,148.289 168.223,148.06 167.634,148.366 C167.047,148.673 166.819,149.398 167.125,149.985 C167.125,149.985 168.962,153.625 169.745,154.832" id="Fill-77" fill="#F7BE9F"></path>
                <path d="M258.443,151.756 C258.443,153.735 257.018,155.339 255.261,155.339 L193.494,155.339 C191.735,155.339 190.312,153.735 190.312,151.756 L200.735,111.352 C200.735,109.373 202.158,107.769 203.918,107.769 L265.686,107.769 C267.442,107.769 268.867,109.373 268.867,111.352 L258.443,151.756" id="Fill-78" fill="#56777D"></path>
                <path d="M274.077,111.355 L263.65,151.756 C263.65,153.739 262.23,155.341 260.47,155.341 L198.707,155.341 C196.947,155.341 195.525,153.739 195.525,151.756 L205.952,111.355 C205.952,109.37 207.373,107.769 209.134,107.769 L270.896,107.769 C272.656,107.769 274.077,109.37 274.077,111.355" id="Fill-79" fill="#98C7E3"></path>
                <polyline id="Fill-80" fill="#7BACC9" points="242.761 131.555 229.588 131.555 230.86 126.613 244.035 126.613 242.761 131.555"></polyline>
                <polygon id="Fill-81" fill="#93C0DB" points="153.973 161.127 261.628 161.127 261.628 155.341 153.973 155.341"></polygon>
                <polygon id="Fill-82" fill="#56777D" points="151.851 161.127 197.856 161.127 197.856 155.341 151.851 155.341"></polygon>
                <path d="M159.461,90.565 C156.61,90.565 154.467,89.006 154.436,88.982 C154.103,88.735 154.034,88.266 154.281,87.933 C154.528,87.602 154.993,87.531 155.329,87.778 C155.49,87.896 159.325,90.646 163.238,87.776 C163.573,87.53 164.042,87.604 164.286,87.938 C164.531,88.271 164.459,88.741 164.125,88.986 C162.511,90.169 160.896,90.565 159.461,90.565" id="Fill-83" fill="#DB625C"></path>
                <polygon id="Fill-84" fill="#FFFFFF" points="11.274 161.118 69.146 161.118 69.146 140.059 11.274 140.059"></polygon>
                <polygon id="Fill-85" fill="#AFDAF0" points="11.274 161.118 19.909 161.118 19.909 140.059 11.274 140.059"></polygon>
                <polygon id="Fill-86" fill="#FFFFFF" points="4.522 140.059 62.395 140.059 62.395 127.12 4.522 127.12"></polygon>
                <polygon id="Fill-87" fill="#AFDAF0" points="4.522 140.059 13.158 140.059 13.158 127.12 4.522 127.12"></polygon>
                <path d="M39.863,161.118 C39.863,161.118 34.698,162.722 29.964,171.971 C26.855,169.639 20.066,161.118 20.066,161.118 L39.863,161.118" id="Fill-88" fill="#AFDAF0"></path>
                <path d="M34.698,161.118 C34.698,161.118 26.917,165.457 24.142,168.055 C21.032,165.721 14.901,161.118 14.901,161.118 L34.698,161.118" id="Fill-89" fill="#FFFFFF"></path>
                <g id="Group-92" transform="translate(19.000000, 158.000000)">
                    <mask id="mask-2" fill="white">
                        <use xlink:href="#path-1"></use>
                    </mask>
                    <g id="Clip-91"></g>
                    <polygon id="Fill-90" fill="#CED6D5" mask="url(#mask-2)" points="0.909 3.118 18.204 3.118 18.204 0.794 0.909 0.794"></polygon>
                </g>
                <polyline id="Fill-93" fill="#8DB7C8" points="19.909 160.969 13.698 160.905 19.909 158.794 19.909 160.969"></polyline>
                <path d="M37.204,161.148 L34.69,161.122 C34.695,161.119 34.698,161.118 34.698,161.118 L34.266,161.118 L37.204,161.118 L37.204,161.148" id="Fill-94" fill="#8DB7C8"></path>
                <path d="M34.69,161.122 L34.266,161.118 L34.698,161.118 C34.698,161.118 34.695,161.119 34.69,161.122" id="Fill-95" fill="#CED6D5"></path>
                <polyline id="Fill-96" fill="#CED6D5" points="27.698 153.891 19.909 153.891 19.909 152.695 27.698 153.891"></polyline>
                <polyline id="Fill-97" fill="#8DB7C8" points="19.909 153.891 16.365 153.891 19.633 152.653 19.909 152.695 19.909 153.891"></polyline>
                <polyline id="Fill-98" fill="#CED6D5" points="19.909 143.676 19.909 140.059 62.395 140.059 19.909 143.676"></polyline>
                <polyline id="Fill-99" fill="#8DB7C8" points="11.274 144.411 11.274 140.059 19.909 140.059 19.909 143.676 11.274 144.411"></polyline>
                <polygon id="Fill-100" fill="#CED6D5" points="42.892 132.616 62.395 132.616 62.395 130.616 42.892 130.616"></polygon>
                <path d="M69.146,147.888 L63.365,145.721 C63.365,145.721 65.934,145.499 67.647,145.499 C68.504,145.499 69.146,145.555 69.146,145.721 L69.146,147.888" id="Fill-101" fill="#CED6D5"></path>
                <polyline id="Fill-102" fill="#FF5647" points="37.204 161.179 100.39 161.179 100.39 150.274 83.634 148.134 37.204 148.134 37.204 161.179"></polyline>
                <polyline id="Fill-103" fill="#E4F7F6" points="83.634 160.04 100.39 160.04 100.39 151.231 83.634 149.274 83.634 160.04"></polyline>
                <polyline id="Fill-104" fill="#B8CFCD" points="100.39 156.833 88.554 156.833 100.39 155.179 100.39 156.833"></polyline>
                <polygon id="Fill-105" fill="#DB1A0B" points="37.204 161.179 82.032 161.179 82.032 148.134 37.204 148.134"></polygon>
                <path d="M68.724,154.657 C68.724,156.131 69.92,157.33 71.396,157.33 C72.872,157.33 74.068,156.131 74.068,154.657 C74.068,153.181 72.872,151.984 71.396,151.984 C69.92,151.984 68.724,153.181 68.724,154.657" id="Fill-106" fill="#363232"></path>
                <path d="M69.224,154.657 C69.224,155.855 70.199,156.83 71.396,156.83 C72.593,156.83 73.568,155.855 73.568,154.657 C73.568,153.458 72.593,152.484 71.396,152.484 C70.199,152.484 69.224,153.458 69.224,154.657 Z M68.224,154.657 C68.224,152.907 69.647,151.484 71.396,151.484 C73.145,151.484 74.568,152.907 74.568,154.657 C74.568,156.407 73.145,157.83 71.396,157.83 C69.647,157.83 68.224,156.407 68.224,154.657 Z" id="Fill-107" fill="#B2CBD4"></path>
                <polygon id="Fill-108" fill="#AFDAF0" points="40.657 158.794 63.365 158.794 63.365 150.588 40.657 150.588"></polygon>
                <path d="M46.293,24.099 C46.293,35.918 36.711,45.499 24.891,45.499 C13.073,45.499 3.491,35.918 3.491,24.099 C3.491,12.279 13.073,2.698 24.891,2.698 C36.711,2.698 46.293,12.279 46.293,24.099" id="Fill-109" fill="#DAF0EE"></path>
                <path d="M24.891,5.201 C14.471,5.201 5.995,13.679 5.995,24.099 C5.995,34.519 14.471,42.996 24.891,42.996 C35.312,42.996 43.79,34.519 43.79,24.099 C43.79,13.679 35.312,5.201 24.891,5.201 Z M24.891,48.002 C11.711,48.002 0.988,37.279 0.988,24.099 C0.988,10.918 11.711,0.195 24.891,0.195 C38.073,0.195 48.796,10.918 48.796,24.099 C48.796,37.279 38.073,48.002 24.891,48.002 Z" id="Fill-110" fill="#AFDAF0"></path>
                <polyline id="Fill-111" fill="#AFDAF0" points="15.767 19.198 26.763 24.099 24.891 27.778 15.767 19.198"></polyline>
                <polyline id="Fill-112" fill="#AFDAF0" points="24.53 9.005 24.891 27.778 27.724 26.812 24.53 9.005"></polyline>
            </g>
        </g>
    </g>
</svg>